<svg width="66" height="66" fill="none" xmlns="http://www.w3.org/2000/svg"><g clip-path="url(#a)"><path d="M15.636 60.315H11.19c-.992 0-1.792-.799-1.792-1.792 0-.992.8-1.791 1.792-1.791h4.447c.993 0 1.792.799 1.792 1.791 0 .993-.799 1.792-1.792 1.792ZM64.208 60.315H59.49c-.992 0-1.791-.799-1.791-1.792 0-.992.799-1.791 1.791-1.791h4.718c.993 0 1.792.799 1.792 1.791 0 .993-.8 1.792-1.792 1.792Z" fill="#F0BF5F"/><path d="M62.236 60.096H59.49c-.992 0-1.791-.8-1.791-1.792s.799-1.791 1.791-1.791h.954v-.787c0-3.66-1.56-6.613-4.511-8.546-2.153-1.405-4.886-2.153-7.902-2.153H21.9a5.087 5.087 0 0 0-4.963 4.035l-1.572 7.45h.541c.993 0 1.792.8 1.792 1.792 0 .993-.8 1.792-1.792 1.792h-2.745a1.8 1.8 0 0 1-1.393-.657 1.791 1.791 0 0 1-.36-1.496l2.023-9.616c.838-3.983 4.409-6.884 8.482-6.884h26.13c3.712 0 7.128.941 9.86 2.733 3.958 2.591 6.137 6.69 6.137 11.55v2.578a1.807 1.807 0 0 1-1.805 1.792Z" fill="#F0BF5F"/><path d="M41.959 60.096H28.282c-.992 0-1.792-.8-1.792-1.792s.8-1.791 1.792-1.791h13.69c.992 0 1.792.799 1.792 1.791 0 .993-.812 1.792-1.805 1.792Z" fill="#F0BF5F"/><path d="M48.03 43.235c2.707 0 5.247.554 7.4 1.611l-2.514-10.892a6.055 6.055 0 0 0-5.852-4.512H31.092a6.02 6.02 0 0 0-5.581 3.739l-3.752 10.054h26.272Z" fill="#CEE8FA"/><path d="M55.43 46.638c-.271 0-.542-.064-.787-.18-1.907-.928-4.202-1.431-6.613-1.431H21.76a1.764 1.764 0 0 1-1.47-.773 1.788 1.788 0 0 1-.206-1.65l3.75-10.055c.014-.026.014-.039.026-.065a7.819 7.819 0 0 1 7.245-4.847h15.972a7.835 7.835 0 0 1 7.58 5.84c0 .013.012.039.012.052l2.514 10.892a1.79 1.79 0 0 1-.632 1.805 1.68 1.68 0 0 1-1.121.412Zm-31.08-5.195h23.693c1.702 0 3.352.207 4.912.606l-1.766-7.657a4.263 4.263 0 0 0-4.112-3.145H31.092a4.243 4.243 0 0 0-3.919 2.604l-2.823 7.592Z" fill="#F0BF5F"/><path d="M41.959 52.568c-.993 0-1.792-.8-1.792-1.792v-20.65c0-.993.8-1.792 1.792-1.792s1.792.799 1.792 1.791v20.638a1.79 1.79 0 0 1-1.792 1.805Z" fill="#F0BF5F"/><path d="M54.463 64.866a7.108 7.108 0 0 1-7.103-7.103 7.108 7.108 0 0 1 7.103-7.103 7.108 7.108 0 0 1 7.103 7.103 7.108 7.108 0 0 1-7.103 7.103Zm0-10.622a3.524 3.524 0 0 0-3.52 3.519 3.515 3.515 0 0 0 3.52 3.519 3.524 3.524 0 0 0 3.52-3.52 3.524 3.524 0 0 0-3.52-3.518ZM20.844 64.866a7.108 7.108 0 0 1-7.103-7.103 7.108 7.108 0 0 1 7.103-7.103 7.108 7.108 0 0 1 7.103 7.103c.013 3.919-3.184 7.103-7.103 7.103Zm0-10.622a3.515 3.515 0 0 0-3.52 3.519 3.515 3.515 0 0 0 3.52 3.519 3.515 3.515 0 0 0 3.52-3.52 3.515 3.515 0 0 0-3.52-3.518ZM24.39 25.717H1.791c-.993 0-1.792-.8-1.792-1.792V2.926c0-.992.8-1.792 1.792-1.792h22.597c.993 0 1.792.8 1.792 1.792v20.999c0 .993-.8 1.792-1.792 1.792ZM3.583 22.133h19.013V4.718H3.584v17.415Z" fill="#2D527C"/><path d="M13.329 7.257H9.99c-.683 0-1.199.439-1.199 1.032v10.26c0 .62.632 1.045 1.521 1.045.903 0 1.522-.426 1.522-1.044v-3.21h1.327c2.694 0 4.241-1.457 4.241-4.01v-.076c0-2.579-1.443-3.997-4.073-3.997Zm-.168 5.595h-1.327V9.99h1.327c.8 0 1.186.438 1.186 1.34v.181c0 .903-.386 1.34-1.186 1.34ZM13.084 40.799c-.993 0-1.792-.8-1.792-1.792v-14.85c0-.992.8-1.792 1.792-1.792s1.792.8 1.792 1.792v14.85c.013.993-.8 1.792-1.792 1.792Z" fill="#2D527C"/></g><defs><clipPath id="a"><path fill="#fff" d="M0 0h66v66H0z"/></clipPath></defs></svg>