<svg width="25" height="26" fill="none" xmlns="http://www.w3.org/2000/svg"><path d="M3.322 9.339c-.208-.114-.432-.183-.656-.26-.286-.098-.571-.208-.85-.323-.158-.066-.314-.128-.46-.219-.064-.04-.108-.09-.075-.163.034-.078.105-.066.17-.045.048.015.09.059.152.016-.093-.152-.242-.252-.347-.391a1.831 1.831 0 0 1-.232-.454c-.033-.086-.048-.19.04-.264a.288.288 0 0 1 .323-.033c.17.081.338.173.534.186.046.002.092.026.143-.018-.072-.11-.214-.116-.298-.203-.045-.046-.153-.063-.104-.156.05-.092.147-.085.228-.042.202.106.4.22.596.334.143.083.28.138.426-.004.061-.059.154-.035.234-.04.041-.003.1.014.115-.035.014-.05-.04-.086-.079-.107-.127-.066-.26-.125-.364-.222-.171-.159-.375-.272-.564-.405-.062-.044-.135-.097-.079-.186.05-.08.127-.06.204-.032.174.062.321.173.451.293.23.21.48.384.769.503.066.028.108.096.185.102.036.003.083.017.104-.023.024-.046-.024-.065-.053-.085-.116-.083-.229-.174-.351-.244-.237-.134-.44-.313-.663-.466-.143-.098-.261-.22-.385-.336-.058-.056-.14-.133-.071-.22.069-.085.165-.04.248 0 .091.047.155.126.224.198.191.2.421.35.651.501.075.05.139.112.216.161.49.316 1.025.565 1.472.95.079.068.18.095.31.127-.073-.143-.188-.207-.288-.276-.377-.262-.76-.515-1.141-.772a.447.447 0 0 1-.078-.062c-.266-.285-.628-.458-.885-.753-.12-.139-.316-.171-.446-.3-.04-.04-.09-.07-.107-.129-.033-.107.017-.175.127-.15a.93.93 0 0 1 .455.25c.23.232.475.447.723.659.238.204.507.365.763.545.22.155.442.312.664.461.184.125.36.262.528.408.052.046.112.114.212.112-.017-.091-.087-.135-.14-.178-.152-.12-.291-.259-.47-.343a.534.534 0 0 1-.245-.232c-.03-.057-.046-.106.013-.15.058-.046.116-.061.18-.008.183.15.366.3.55.448.032.026.06.06.142.035-.122-.113-.196-.256-.33-.329-.268-.146-.46-.378-.69-.567A1.474 1.474 0 0 1 4.72 6.1c-.024-.036-.057-.073-.027-.116.03-.043.086-.042.13-.018.07.038.148.066.203.128.147.162.346.267.49.432.015.017.034.035.062.018.016-.047-.021-.067-.047-.092-.278-.26-.566-.506-.795-.813-.092-.124-.247-.188-.349-.313a11.426 11.426 0 0 0-.482-.541 1.544 1.544 0 0 0-.367-.29c-.09-.051-.168-.121-.104-.228.064-.107.156-.053.24-.01.031.016.056.051.113.04-.033-.059-.065-.113-.094-.17-.023-.045-.033-.092.008-.132.042-.04.093-.026.132 0 .06.038.112.086.192.114-.07-.163-.14-.328-.214-.49-.02-.042-.051-.078-.063-.126-.052-.216.063-.332.274-.261.12.04.248.066.355.142.069.049.12.041.151-.049.04-.114.114-.123.194-.04.14.14.265.295.374.46a.664.664 0 0 0 .428.308c-.203-.211-.34-.472-.53-.691a.937.937 0 0 1-.155-.238c-.06-.137.003-.227.153-.212.065.007.1.008.097-.07-.002-.077-.007-.165.094-.18a.202.202 0 0 1 .224.119c.102.233.281.414.417.624.2.306.457.57.642.885.132.225.27.445.445.64.052.06.092.133.176.158.032-.04 0-.067-.018-.09-.156-.198-.27-.43-.448-.615-.138-.142-.2-.332-.29-.503-.151-.292-.342-.557-.525-.826-.13-.19-.202-.42-.38-.579a.117.117 0 0 1-.016-.157c.039-.057.104-.057.155-.034.12.057.23.125.301.248.264.455.53.908.804 1.356.057.094.075.203.139.294.292.41.578.825.87 1.236.084.118.22.187.301.311-.054-.2-.205-.339-.289-.516-.081-.174-.215-.311-.305-.478-.206-.383-.408-.767-.628-1.142-.2-.343-.42-.676-.635-1.011a.474.474 0 0 1-.094-.234c-.003-.054.003-.106.057-.136.054-.03.102-.014.149.012.12.068.158.197.221.307.288.5.573 1.003.862 1.503.069.12.142.237.187.368.068.195.182.36.305.525.106.142.18.311.273.465.061.099.133.192.212.304.046-.111.006-.186-.038-.262-.244-.427-.5-.849-.727-1.285-.271-.521-.576-1.025-.847-1.545a1.809 1.809 0 0 0-.233-.322c-.075-.088-.087-.185-.08-.292.003-.052.002-.108.065-.13.053-.017.09.015.127.048.116.104.182.242.248.378.192.395.436.76.612 1.158.14.316.314.613.497.907.077.124.152.25.23.373.036.057.063.124.153.135-.085-.118-.124-.26-.217-.37a.833.833 0 0 1-.14-.245c-.168-.434-.404-.837-.63-1.24-.185-.327-.345-.67-.54-.992a.734.734 0 0 1-.06-.158c-.024-.076-.011-.143.066-.182.077-.039.14-.007.19.051a.366.366 0 0 1 .075.119c.114.356.342.655.49.992.148.331.34.64.45.992.063.205.192.39.294.582a.084.084 0 0 0 .095.049c.047-.011.051-.051.053-.09a.227.227 0 0 0-.036-.15c-.208-.286-.31-.627-.482-.931-.236-.417-.378-.88-.646-1.281-.068-.1-.101-.224-.145-.34a.146.146 0 0 1 .046-.179c.069-.051.124-.004.177.039a.42.42 0 0 1 .14.21c.057.206.171.39.213.602.016.08.074.152.12.224.17.269.26.579.437.844.035.053.056.118.117.156.048-.06.031-.118 0-.163-.214-.32-.302-.694-.463-1.036-.154-.33-.234-.691-.444-.996-.049-.071-.047-.159.03-.218.072-.057.143-.024.208.025.102.078.138.19.164.307.019.104.052.204.099.3.05-.151.095-.303.152-.451.07-.185.132-.376.245-.541a.432.432 0 0 1 .12-.121c.125-.083.25-.045.292.097.045.154.077.313.116.468.06.241.168.46.312.693a.53.53 0 0 0 .006-.35c-.073-.23-.157-.457-.234-.686a.61.61 0 0 1-.028-.153c-.004-.061-.007-.13.069-.154.07-.022.146-.024.201.032.063.063.12.132.132.23.034.286.073.572.109.86.018.151.097.298.02.458-.022.044.153.3.202.313.074.019.061-.04.059-.078-.021-.295-.107-.576-.173-.862-.063-.27-.16-.532-.2-.808-.012-.083.012-.143.091-.169.08-.026.135.01.174.084a.703.703 0 0 1 .08.284c.02.281.093.55.164.82.054.204.114.412.095.627a.838.838 0 0 0 .068.36c.08.237.21.455.268.704.051-.106.011-.198-.02-.288-.023-.068-.054-.135-.052-.205.008-.3-.125-.57-.175-.854a1.09 1.09 0 0 1-.029-.196 2.611 2.611 0 0 0-.141-.79A1.423 1.423 0 0 1 9.834.57c.007-.077.042-.156.136-.156s.134.077.136.155c.013.336.118.659.132.998.013.29.116.574.161.865.02.131.016.265.051.394.013.045.014.095.07.131a.482.482 0 0 0 .013-.316c-.12-.397-.088-.81-.174-1.209-.057-.27-.052-.555-.071-.834-.005-.072.023-.135.109-.138.086-.003.133.046.143.127.039.3.069.603.116.902.05.313.013.643.1.944.077.269-.019.534.066.795.112.343.032.718.161 1.061.021.055.013.122.015.183a.656.656 0 0 0 .114.33c.07-.034.054-.092.054-.14 0-.199.007-.398-.046-.593-.063-.23-.027-.47-.05-.705-.029-.277-.038-.558-.077-.834-.088-.633-.04-1.276-.155-1.907a.437.437 0 0 1 .007-.169c.011-.054.024-.104.093-.107a.123.123 0 0 1 .133.085c.03.09.074.175.067.274-.033.537.062 1.069.068 1.605.003.265-.01.54.064.805a.604.604 0 0 1-.015.352c-.036.105-.01.207.005.31.004.026.012.062.047.06.035-.001.038-.04.041-.066.017-.121.025-.243.034-.366.024-.338-.074-.664-.077-1-.003-.29.008-.577.008-.866 0-.346-.091-.686-.061-1.034.003-.066.01-.132.02-.197.019-.082.067-.145.16-.127.094.017.133.089.12.18a4.95 4.95 0 0 0-.045.552c-.006.35.038.7.034 1.05-.002.183-.047.367.02.561a.391.391 0 0 0 .113-.239c.025-.12.037-.244.035-.367-.021-.513.064-1.022.032-1.534-.005-.078-.033-.206.08-.212.111-.006.105.123.116.209.007.05 0 .103.01.155.029-.119.067-.235.115-.347.057-.133.158-.194.304-.19.099.003.16.045.192.137.036.105.076.209.12.333.049-.087.016-.147.006-.21-.013-.083-.024-.174.059-.234a.138.138 0 0 1 .161 0 .196.196 0 0 1 .082.226c-.126.463-.023.92.029 1.379.024.216.032.434.057.65.007.057.004.163.086.155.066-.007.062-.107.063-.17.002-.431.003-.862.002-1.293 0-.18.011-.36-.015-.54-.015-.103.044-.183.144-.195.1-.01.154.069.156.165.004.18.02.36-.032.537-.032.107-.024.217-.023.325 0 .417.034.837-.007 1.25-.044.442.086.874.039 1.312a.1.1 0 0 0 .006.042c.003.008.013.012.025.024a.225.225 0 0 0 .042-.171c-.053-.503.017-1.003.021-1.505 0-.109-.011-.217-.015-.326-.016-.493.075-.982.064-1.476-.004-.148.082-.247.17-.236.105.013.182.144.16.28-.078.502-.056 1.007-.062 1.513a9.28 9.28 0 0 1-.067.905c-.027.248-.08.514.05.785a.499.499 0 0 0 .085-.322c-.018-.292.044-.573.098-.857.043-.228-.003-.465.018-.696.036-.386-.014-.778.077-1.16.043-.178.123-.276.209-.238.133.057.114.18.097.295-.077.525-.136 1.053-.09 1.579.035-.059.095-.407.106-.543a9.07 9.07 0 0 1 .196-1.248c.023-.106.09-.177.204-.15.122.028.12.132.101.23-.036.197-.161.362-.191.563-.064.427-.206.844-.175 1.285.006.078-.044.156.006.255.067-.176.125-.338.14-.51a6.318 6.318 0 0 1 .32-1.48c.026-.077.061-.165.167-.134.098.028.096.122.086.203-.027.18-.12.34-.163.512a7.405 7.405 0 0 0-.2 1.1c-.035.362-.148.703-.238 1.05-.042.165-.102.327-.073.502.005.032-.002.07.036.085.045.02.071-.013.097-.041a.449.449 0 0 0 .099-.17c.08-.265.106-.538.15-.809.073-.461.153-.922.25-1.38.057-.264.094-.53.174-.788.031-.1.097-.163.203-.121a.151.151 0 0 1 .096.095.15.15 0 0 1-.019.133c-.251.355-.19.782-.293 1.171-.086.32-.114.651-.176.976-.028.151-.144.281-.114.448.007.038-.021.097.038.107.045.007.08-.038.094-.076.035-.092.078-.186.088-.283.04-.356.15-.702.157-1.064.002-.139.072-.264.106-.398.075-.289.14-.58.255-.857a.291.291 0 0 1 .063-.11c.033-.031.071-.05.117-.032a.1.1 0 0 1 .065.102.855.855 0 0 1-.015.098c-.006.048-.047.11.02.139.066.029.085-.037.12-.074.163-.168.367-.284.55-.425.103-.079.323-.022.395.067.08.1.066.267-.032.411-.149.22-.203.472-.248.727-.008.047-.014.104.031.157.118-.137.116-.318.19-.467.029-.07.066-.137.11-.198.048-.06.12-.088.19-.045s.065.123.03.179c-.172.286-.256.61-.4.91-.04.083-.089.167-.035.28.085-.09.155-.193.205-.306.064-.143.143-.278.236-.403.066-.085.089-.207.137-.31.035-.076.076-.177.185-.123.095.049.072.15.032.228-.148.297-.307.589-.43.898-.026.064-.064.128-.038.217.088-.074.121-.174.163-.262.137-.286.282-.57.44-.844a.592.592 0 0 1 .037-.06c.058-.077.134-.144.229-.093.102.057.043.145.013.225-.057.153-.188.275-.178.463l.104-.154c.029-.043.052-.09.086-.13.057-.072.132-.158.224-.086.085.068-.004.14-.042.208a5.429 5.429 0 0 0-.317.69c.046.01.06-.007.066-.023.106-.248.287-.457.381-.711.047-.127.154-.186.25-.143.098.044.128.169.058.285-.16.262-.308.531-.45.803-.077.148-.163.289-.247.432-.08.137-.094.3-.172.443-.049.087-.128.167-.138.287.061.001.078-.044.094-.076.137-.295.344-.55.47-.854.153-.369.373-.71.568-1.06.037-.066.09-.14.178-.114.088.025.122.092.077.177-.064.122-.117.254-.205.357-.217.253-.314.567-.451.858a22 22 0 0 1-.635 1.235c-.028.053-.072.102-.074.167 0 .024 0 .05.029.059a.046.046 0 0 0 .049-.015.045.045 0 0 0 .008-.016c.077-.234.235-.42.363-.623.134-.21.263-.425.388-.641.081-.14.16-.28.229-.425.136-.292.345-.541.475-.838.043-.098.135-.101.218-.052.092.054.072.134.031.211-.142.274-.347.513-.479.79-.198.413-.487.776-.635 1.222.075-.084.178-.156.221-.253.117-.264.314-.474.455-.72.154-.265.343-.512.48-.787.038-.076.106-.116.19-.084.083.031.052.101.037.16-.051.202-.18.365-.295.53-.15.215-.25.456-.4.671l-.175.256c-.021.029-.058.066-.025.101.038.041.085.008.114-.02.051-.048.098-.101.14-.158.241-.316.482-.632.718-.95.042-.058.057-.132.098-.19.052-.074.13-.127.219-.073.089.054.061.135.025.215-.072.158-.228.264-.277.45.1-.025.19-.077.26-.152a.758.758 0 0 1 .255-.178c.112-.05.232-.1.331 0 .1.101.077.24.016.36-.075.147-.162.289-.244.433-.071.123-.14.247-.234.356a.36.36 0 0 0-.091.216c.08.005.117-.048.139-.1.114-.273.36-.444.518-.682.02-.03.052-.072.092-.047.053.033.01.078-.01.11a5.215 5.215 0 0 1-.425.62.95.95 0 0 0-.15.223.657.657 0 0 1-.293.338c-.11.059-.165.17-.222.272a3.057 3.057 0 0 0-.215.484c.235-.242.48-.471.649-.764.03-.053.06-.112.107-.15.237-.195.378-.458.52-.72a.45.45 0 0 1 .167-.17c.049-.03.098-.04.146 0a.127.127 0 0 1 .037.141.222.222 0 0 1-.035.077c-.257.313-.435.681-.692.987-.205.243-.403.49-.59.746a.667.667 0 0 0-.055.083.046.046 0 0 0 .01.064c.023.015.043-.003.062-.018.337-.27.617-.59.882-.93.183-.233.4-.442.605-.659.042-.044.101-.085.166-.05.064.036.063.114.048.18a.237.237 0 0 1-.051.113c-.328.323-.595.7-.907 1.035-.229.245-.472.48-.714.714a8.511 8.511 0 0 0-.602.624c-.2.236-.45.421-.652.654-.028.035-.077.057-.082.122a.481.481 0 0 0 .24-.166c.285-.313.576-.615.922-.86.286-.202.497-.482.76-.71.282-.245.555-.5.82-.768.137-.138.272-.277.418-.405.08-.071.173-.11.251-.024.072.08.054.186-.028.254-.356.296-.628.68-.983.968-.297.24-.566.502-.843.76-.04.038-.073.086-.124.142a.19.19 0 0 0 .175-.073c.18-.198.412-.333.616-.501.428-.353.885-.668 1.26-1.08.072-.08.155-.122.245-.036.091.085.034.164-.028.246-.19.252-.472.392-.697.598-.305.279-.674.476-.959.778-.194.206-.438.345-.67.5-.102.067-.207.13-.265.245.034.029.061.009.082-.006.273-.197.574-.347.856-.525.16-.1.285-.246.453-.342.284-.158.504-.409.79-.57a.687.687 0 0 0 .246-.23c.066-.1.158-.177.253-.248.076-.057.162-.055.245-.031.097.028.125.136.055.217a1.14 1.14 0 0 1-.162.14c-.026.02-.06.03-.083.053-.233.241-.533.396-.786.606-.39.324-.851.537-1.252.84-.05.038-.145.071-.107.142.038.07.143.052.207.022.17-.074.334-.159.492-.254.112-.07.232-.132.339-.21.439-.32.877-.642 1.312-.968.093-.07.177-.074.255 0 .093.089.009.161-.048.216-.103.099-.232.165-.347.247-.403.292-.833.546-1.227.85-.077.06-.175.093-.266.135-.047.022-.114.037-.092.103.022.065.083.028.125.016.234-.06.44-.186.64-.308.404-.246.825-.464 1.211-.74a.325.325 0 0 1 .172-.062.143.143 0 0 1 .14.08c.027.05-.003.09-.03.13-.115.167-.296.232-.467.313-.18.085-.357.174-.534.265-.03.015-.08.037-.057.085.017.037.061.021.09.009.175-.072.35-.142.522-.222.12-.055.237-.121.353-.184.078-.043.157-.07.207.028.049.091.049.185-.037.26-.053.048-.174.06-.15.145.024.085.14.08.22.106.147.047.302.03.451.061.122.026.232.06.27.196.04.136-.052.212-.144.282a3.828 3.828 0 0 1-1.008.544.366.366 0 0 0-.09.04c-.054.04-.157.063-.115.151.036.077.128.047.193.027a6.566 6.566 0 0 0 1.015-.41c.064-.02.135-.045.176.034.04.08-.004.136-.071.177-.416.256-.858.448-1.345.524-.127.02-.249.065-.379.066-.062 0-.103.044-.143.085-.06.059-.115.125-.195.17.166-.004.33-.04.481-.107.104-.047.213-.082.326-.104.309-.048.59-.174.88-.28a.251.251 0 0 1 .11-.017c.083.01.163.034.181.132.02.098-.032.158-.119.183-.292.083-.584.164-.879.24-.366.093-.744.141-1.102.268-.359.126-.735.132-1.11.138a1.83 1.83 0 0 0-.831.222c-.036.019-.09.046-.073.091.016.046.077.03.114.02.434-.136.89-.15 1.333-.228.24-.043.485-.099.733-.082.066.005.149-.008.167.075.02.092-.07.125-.132.138-.2.044-.387.124-.608.114-.301-.013-.599.088-.892.161-.14.035-.294.003-.42.114.243-.014.485-.026.729-.044.483-.036.958-.135 1.433-.223.175-.033.357-.011.52-.057.26-.072.528-.09.789-.146.148-.031.293-.077.444-.094.09-.01.182.002.226.085.049.092.006.182-.068.24-.1.083-.092.127.028.167.09.028.147.098.131.195-.016.104-.097.152-.195.155-.2.006-.4.032-.597.026-.35-.01-.703.003-1.034.082-.332.079-.673.085-1.008.136-.194.03-.395.062-.595.038-.026-.003-.057-.02-.076.013a.036.036 0 0 0 .037.037c.288.01.579.052.863.022.366-.037.729-.117 1.097-.118.391-.002.77-.114 1.16-.106.042 0 .086-.01.128-.012.085-.002.166.012.2.102.032.085 0 .159-.067.216-.052.044-.082.075-.026.149.069.09.027.158-.081.188-.064.017-.127.04-.19.061-.032.011-.062.028-.056.07.003.034.034.043.061.052l.488.157c.12.04.271.06.296.208.026.147-.057.273-.183.36-.039.027-.07.066-.111.09-.102.056-.186.105-.04.217.064.05.028.122-.036.165a.264.264 0 0 1-.234.027.957.957 0 0 0-.38-.038c-.172.015-.325-.073-.492-.071-.028 0-.057-.012-.085-.009-.046.005-.117.003-.12.053-.003.061.07.051.113.053.31.009.607.103.913.144.228.03.288.151.164.347-.034.055-.022.092.01.143.09.14.02.282-.148.303a.176.176 0 0 1-.07-.002c-.235-.073-.477-.077-.719-.093-.287-.02-.546-.157-.826-.213-.191-.037-.385-.047-.577-.075-.219-.032-.437-.081-.66-.093-.069-.004-.139-.018-.218.016.08.086.177.099.267.106.41.03.799.17 1.203.22.383.048.733.237 1.125.235.085 0 .17.014.256.017a.594.594 0 0 1 .21.034c.15.06.176.188.06.302a1 1 0 0 1-.11.082c.004.05.046.048.073.061.085.042.17.091.13.203-.04.111-.141.167-.253.129-.208-.071-.431-.071-.636-.153-.285-.114-.59-.137-.887-.2-.395-.082-.791-.16-1.184-.246-.236-.052-.462-.165-.697-.237-.035-.011-.068-.037-.117-.01.06.123.177.163.291.196.182.054.371.086.551.136.407.114.823.179 1.23.3.364.11.736.211 1.112.289.102.024.2.06.295.105.074.033.114.088.099.169-.015.085-.086.096-.154.093a2.66 2.66 0 0 1-.71-.129 32.188 32.188 0 0 0-1.468-.453.296.296 0 0 1-.15-.078c-.055-.063-.11-.085-.184-.037-.034.021-.105-.008-.107.047-.002.062.06.11.112.114.166.012.302.122.463.136.296.024.556.154.824.26.184.074.377.124.573.148.208.026.41.114.612.178.074.024.092.09.085.163a.164.164 0 0 1-.126.155c-.05.014-.114.024-.153-.006-.155-.114-.347-.138-.52-.182-.47-.12-.895-.376-1.382-.433-.086-.01-.171-.047-.285-.08.11.143.202.246.365.28.17.04.34.09.505.15.07.024.165.057.126.154-.035.089-.124.127-.224.096-.095-.028-.188-.063-.305-.047a.38.38 0 0 0 .22.177c.44.151.856.357 1.275.56.152.072.171.157.07.292-.05.067-.045.12 0 .178.082.1.189.177.31.223.052.022.106.04.157.064.223.099.239.212.057.377a.768.768 0 0 1-.515.2 1.921 1.921 0 0 1-1.194-.35c-.085-.057-.185-.097-.279-.142-.028-.015-.068-.033-.092-.003-.034.043.012.068.036.093.171.183.386.307.594.438a.55.55 0 0 1 .223.233.118.118 0 0 1-.01.134.125.125 0 0 1-.142.035.493.493 0 0 1-.247-.163c-.142-.184-.335-.306-.518-.44-.086-.063-.143-.154-.236-.204-.05-.026-.095-.063-.147-.085-.046-.02-.11-.057-.145-.012-.037.05.037.078.067.105.314.275.629.548.946.817.076.064.123.12.047.21-.071.086-.155.097-.236.024-.265-.237-.577-.418-.816-.685a.121.121 0 0 0-.03-.029 3.89 3.89 0 0 1-.825-.574c-.03-.029-.083-.047-.114 0-.03.046.015.067.044.091.385.32.768.643 1.157.959.23.187.45.39.701.553.099.064.091.169.037.267-.054.099-.119.076-.214.05-.19-.051-.295-.177-.377-.338a.208.208 0 0 0-.086-.092c-.28-.15-.472-.408-.72-.6-.464-.359-.899-.754-1.384-1.09-.334-.232-.597-.554-.931-.792-.028-.02-.048-.062-.12-.033.229.192.365.455.632.59a.865.865 0 0 1 .28.216c.156.185.34.345.545.475.116.081.222.177.314.285.238.257.505.486.796.683.336.23.584.537.885.791.085.073.109.173.039.25-.078.086-.172.032-.233-.043-.235-.288-.527-.517-.814-.745-.31-.248-.608-.513-.945-.727a.9.9 0 0 0-.085-.038c.078.114.167.157.242.215.295.238.573.497.83.776.137.145.329.223.462.377.063.071.117.149.163.231.03.056.04.111-.01.156-.055.05-.114.022-.152-.02-.312-.334-.714-.567-1.013-.915a.989.989 0 0 0-.342-.273c-.098-.043-.155-.138-.225-.215-.104-.116-.206-.234-.373-.308.038.177.17.275.283.353.233.159.38.415.63.549.02.014.035.032.048.052.054.068.117.144.057.228-.057.076-.146.045-.224.023-.022-.006-.042-.025-.065-.004a.054.054 0 0 0 .028.06c.279.192.453.482.685.717.07.069.139.127.232.157l-.002-.002c.01.31.01.31-.333.143.195.268.222.585.361.856.038.073.055.162-.023.222-.077.06-.163.046-.243.003a5.183 5.183 0 0 1-.294-.174.185.185 0 0 0-.212-.004c-.123.071-.231.057-.322-.067a1.297 1.297 0 0 0-.297-.28c-.041.072 0 .115.031.151.076.085.094.195.143.292.043.086-.007.16-.083.203-.077.043-.129-.015-.167-.069a1.33 1.33 0 0 1-.101-.185c-.143-.285-.394-.497-.531-.785-.053-.11-.09-.23-.198-.305-.029-.021-.057-.062-.098-.029-.034.029-.002.06.01.09.037.1.108.178.165.265.213.33.378.69.607 1.011.107.15.1.338 0 .37-.163.055-.228-.098-.288-.194-.154-.249-.27-.523-.428-.77-.184-.287-.35-.583-.519-.879a.702.702 0 0 0-.235-.233c-.042.057-.014.103.01.146.143.25.249.523.484.712a.117.117 0 0 1 .04.072c.032.352.272.605.426.9.048.091.1.182.14.278.027.064.02.136-.05.176-.069.04-.114 0-.16-.05a2.309 2.309 0 0 1-.372-.562c-.115-.24-.229-.489-.404-.698-.039-.047-.083-.098-.099-.154-.109-.377-.38-.663-.548-1.005-.103-.21-.307-.347-.382-.572a.114.114 0 0 0-.035-.044c-.035-.03-.076-.089-.118-.06-.055.04.016.08.029.12.077.227.285.36.407.56.131.214.248.435.378.65.13.213.238.45.356.674.192.364.369.736.566 1.098.068.126.136.256.061.403-.062.122-.146.135-.228.028-.078-.1-.164-.196-.169-.337a.449.449 0 0 0-.057-.188c-.21-.386-.385-.79-.625-1.162-.168-.26-.287-.554-.45-.82-.042-.068-.095-.188-.155-.156-.078.04.003.142.033.209.074.163.198.303.221.489a.096.096 0 0 0 .032.046c.226.223.321.525.49.78.142.217.185.472.342.68a1.043 1.043 0 0 1 .226.575c-.003.145-.356.354-.485.287-.044-.023-.079-.05-.118.012-.1.155-.17.157-.286.019-.023-.029-.034-.081-.076-.076-.053.006-.044.065-.057.104a.795.795 0 0 0-.013.38c.032.166.002.322-.034.479-.036.163-.122.202-.27.121-.136-.074-.228-.2-.334-.307-.043-.044-.084-.09-.127-.135-.042-.044-.091-.06-.152-.024-.126.076-.189.002-.22-.107-.05-.173-.088-.35-.136-.523a1.523 1.523 0 0 0-.081-.211.06.06 0 0 0-.068-.041c-.038.01-.029.046-.022.072.05.236.098.472.155.706a.704.704 0 0 1 .031.265c-.01.072-.045.128-.123.135-.078.007-.128-.038-.15-.106a1.461 1.461 0 0 1-.073-.274 5.917 5.917 0 0 0-.242-1.095c-.019-.057-.043-.112-.116-.1-.085.013-.068.08-.053.133.099.342.101.704.233 1.04.057.148.051.316.06.477a.289.289 0 0 1-.064.185.158.158 0 0 1-.218.039.159.159 0 0 1-.053-.061.335.335 0 0 1-.036-.165 4.042 4.042 0 0 0-.082-.833c-.051-.294-.07-.593-.133-.883a.524.524 0 0 0-.032-.109c-.026-.057-.064-.125-.135-.094-.071.032-.002.09.006.134.057.342.119.68.173 1.022.032.196.055.394.08.59.012.1.022.2-.01.297-.021.067-.063.105-.136.1-.067-.004-.114-.046-.116-.105-.01-.234-.102-.453-.103-.688 0-.313-.095-.615-.118-.926-.018-.24-.125-.467-.11-.713a.375.375 0 0 0-.079-.24c-.178-.245-.181-.533-.214-.813-.02-.171-.043-.34-.143-.484-.026-.039-.045-.086-.1-.095-.048.04-.007.076.005.112.067.194.153.386.139.601 0 .048.01.095.028.139.062.166.104.33.068.512-.024.123.063.235.086.356.073.38.168.756.216 1.141.04.324.097.647.147.97l.015.069c.02.115-.006.227-.125.253-.118.025-.155-.095-.17-.185-.041-.219-.065-.44-.099-.66-.076-.494-.077-.996-.197-1.489a4.488 4.488 0 0 1-.146-.893.625.625 0 0 0-.095-.318c-.02.129-.057.23-.028.33.045.163.028.33.041.494.024.32.058.64.1.96.076.56.22 1.114.211 1.686 0 .076.002.153-.05.217-.033.04-.063.092-.122.089-.066-.003-.091-.059-.114-.112-.067-.156-.07-.323-.082-.488-.005-.063.007-.131-.04-.202-.066.093-.048.183-.034.268.017.122.021.246.012.37-.005.089-.038.189-.136.19-.107 0-.114-.103-.121-.192-.029-.315-.082-.63-.09-.945-.015-.541-.16-1.068-.136-1.61.008-.195-.104-.373-.077-.574-.043.131-.11.257-.08.398.079.373.029.756.098 1.131.051.282.024.57.064.858.04.276.038.556-.006.832-.01.055-.029.101-.09.115-.06.014-.096-.027-.125-.072-.042-.065-.074-.136-.055-.215.068-.266.036-.527.01-.797a8.853 8.853 0 0 1-.053-.976c0-.069.032-.186-.062-.188-.072 0-.05.117-.05.185-.004.254.025.507-.025.762a.915.915 0 0 0 .022.41c.048.178-.029.346-.039.52-.004.073-.066.15-.153.138-.08-.01-.06-.096-.062-.155-.003-.11 0-.221 0-.357-.108.062-.123.137-.136.21a1.603 1.603 0 0 0-.035.338c.005.146-.079.257-.171.347-.136.132-.338.065-.393-.117a5.926 5.926 0 0 1-.152-.665.254.254 0 0 0-.073-.16c-.016.175-.004.327-.036.474-.01.05-.013.103-.026.154-.01.042-.032.083-.086.076-.049-.007-.071-.044-.08-.089a.414.414 0 0 1-.008-.085c.002-.421-.031-.844.092-1.257.035-.118-.045-.228-.086-.351-.02.077-.062.156-.055.23.017.222.017.444 0 .666-.018.285-.054.57-.108.85-.01.057-.043.127-.123.114-.068-.011-.1-.07-.114-.132a.545.545 0 0 1 .008-.226c.057-.293.063-.593.11-.882.066-.42-.018-.853.135-1.263.057-.154-.022-.303-.124-.446-.017.131-.04.262-.05.394-.045.598-.076 1.196-.19 1.787-.028.153-.002.314-.065.463-.01.026-.013.057-.025.081-.038.083-.077.183-.191.15s-.095-.135-.086-.227c.02-.214.13-.405.154-.619.008-.064.02-.13.029-.195.044-.364.05-.733.12-1.096.04-.211.027-.432.044-.648.02-.247.065-.487.108-.73.025-.14.046-.278-.01-.44a.706.706 0 0 0-.086.322.513.513 0 0 1-.03.21c-.02.046-.043.089-.103.078-.06-.012-.073-.06-.068-.11.017-.198.037-.395.057-.593l.063-.643c-.103.077-.086.16-.098.23l-.202 1.1c-.08.423-.205.835-.249 1.265-.04.399-.14.788-.186 1.188-.024.212-.16.41-.25.613a.097.097 0 0 1-.054.056.096.096 0 0 1-.078-.003c-.067-.033-.132-.097-.108-.168.103-.3-.015-.63.164-.926.135-.223.148-.5.187-.755.043-.287.107-.568.17-.849.072-.323.09-.654.19-.973.043-.135.075-.274.11-.413.008-.038.037-.079.002-.122-.071.015-.07.077-.093.128-.107.247-.103.532-.264.761a.11.11 0 0 0-.014.068c.03.349-.13.663-.178.998-.036.253-.113.5-.11.758 0 .108-.04.204-.062.304-.076.33-.159.658-.244.984-.024.09-.081.167-.179.187-.072.015-.109-.046-.143-.099a.154.154 0 0 1-.008-.137c.137-.409.275-.819.348-1.243.061-.363.193-.709.236-1.076.029-.247.09-.494.236-.706.01-.015.023-.036.02-.051-.034-.164.035-.316.067-.488-.07.02-.08.07-.09.11-.07.275-.146.549-.22.822-.07.255-.165.505-.21.764-.081.463-.27.898-.335 1.363-.023.165-.107.313-.118.481-.004.062-.054.11-.1.152a.145.145 0 0 1-.171.023c-.057-.029-.06-.086-.053-.137.018-.107.032-.22.068-.317.121-.325.143-.679.299-.992.053-.107.015-.225.057-.334.064-.162.143-.325.171-.495.065-.377.226-.73.265-1.146-.114.162-.191.313-.2.48-.007.15-.046.289-.085.43-.093.322-.176.647-.314.954a.75.75 0 0 0-.063.317.959.959 0 0 1-.127.46c-.065.127-.148.244-.178.387a.173.173 0 0 1-.072.102c-.04.029-.083.051-.133.026-.049-.025-.05-.072-.05-.122 0-.129.053-.24.119-.345a.719.719 0 0 0 .106-.32c.003-.032.029-.072-.007-.092-.04-.022-.07.015-.096.042-.13.133-.261.263-.383.402-.127.147-.241.305-.367.452a.778.778 0 0 0-.14.213c-.039.097-.12.157-.208.207a.189.189 0 0 1-.215-.016c-.11-.077-.14-.193-.127-.313.014-.094.039-.186.074-.274.08-.219.07-.458.172-.689-.074.016-.078.067-.095.105-.066.142-.12.29-.247.394-.05.04-.1.082-.166.052-.066-.03-.059-.101-.06-.162a.214.214 0 0 1 .041-.148c.267-.311.387-.703.585-1.053.052-.09.1-.183.143-.277a.493.493 0 0 0 .005-.423c-.057-.14-.047-.306-.071-.46-.006-.04-.003-.097-.05-.109-.06-.015-.08.044-.1.083-.217.427-.539.786-.805 1.18-.116.17-.207.36-.347.517-.067.075-.141.129-.232.059-.098-.076-.067-.182.003-.25.32-.314.52-.71.783-1.063.236-.317.464-.645.642-1.002a.49.49 0 0 0 .06-.31c-.11.133-.22.228-.285.348-.117.218-.283.401-.41.613-.239.403-.58.731-.841 1.12a1.284 1.284 0 0 1-.2.22c-.075.07-.167.1-.257.024-.065-.057-.052-.207.028-.269.194-.154.362-.338.499-.544.245-.36.542-.677.804-1.022.286-.374.539-.771.825-1.145.15-.198.255-.43.4-.633.08-.11.186-.202.235-.334.011-.03.033-.06-.006-.11-.111.12-.214.246-.307.38-.171.237-.304.501-.51.713-.11.112-.22.22-.28.372-.047.117-.158.189-.25.27-.268.24-.408.581-.668.827-.152.143-.318.28-.426.457-.153.252-.363.45-.559.66a.52.52 0 0 1-.084.078c-.063.043-.135.093-.206.028a.19.19 0 0 1-.044-.234.291.291 0 0 1 .058-.081c.412-.405.783-.849 1.159-1.286.192-.223.355-.475.552-.7a15.24 15.24 0 0 0 1.16-1.488c.08-.115.172-.222.264-.36-.125.032-.182.117-.242.188-.143.167-.286.329-.469.453a.162.162 0 0 0-.067.072c-.071.235-.28.366-.411.553-.2.285-.434.541-.63.826-.178.256-.405.466-.59.711-.165.22-.372.403-.538.623-.091.12-.204.224-.31.331-.067.068-.151.091-.23.026-.08-.065-.027-.137.005-.206.074-.161.22-.262.34-.378.296-.28.587-.572.824-.896.258-.355.599-.644.797-1.047.07-.142.215-.238.33-.35a.046.046 0 0 0 .02-.03.046.046 0 0 0-.005-.034c-.093.076-.195.137-.268.223-.232.275-.452.56-.68.839-.05.069-.107.133-.17.19-.306.243-.492.585-.742.874a3.342 3.342 0 0 1-.518.504c-.07.054-.15.097-.227.009-.07-.082-.017-.15.035-.214.085-.102.184-.191.293-.266.143-.102.213-.275.345-.393.116-.105.214-.228.32-.344.028-.032.069-.074.035-.11-.043-.047-.073.012-.102.037-.26.228-.54.43-.817.635a9.833 9.833 0 0 0-.57.468c-.115.098-.24.085-.364.06-.096-.02-.13-.128-.068-.235.16-.28.25-.595.447-.855.026-.033.082-.083.037-.122-.054-.048-.09.024-.127.053-.079.061-.15.133-.23.19-.071.049-.158.067-.218-.013-.058-.073-.019-.153.04-.203.276-.232.536-.481.828-.692.067-.048.13-.097.149-.182.002-.01-.013-.032-.018-.032a.332.332 0 0 0-.19.114 7.058 7.058 0 0 1-.816.731.525.525 0 0 1-.145.09c-.072.025-.147.034-.19-.041a.18.18 0 0 1 .031-.234c.314-.146.494-.466.805-.623.118-.06.216-.169.309-.269.068-.073.148-.136.207-.214.142-.187.317-.337.497-.484.03-.025.078-.058.036-.104-.036-.038-.086-.013-.114.016a2.207 2.207 0 0 0-.234.246c-.225.285-.527.477-.816.678-.29.202-.564.436-.878.608a.298.298 0 0 1-.117.047c-.078.007-.143-.016-.181-.085-.039-.069.013-.12.053-.163.108-.117.252-.19.386-.266.128-.07.252-.15.368-.238.248-.196.52-.357.761-.566.231-.199.44-.43.708-.59.06-.035.165-.075.121-.157-.024-.044-.114.028-.17.06-.493.28-.897.68-1.361.998-.26.179-.514.374-.812.496-.074.03-.143.07-.196-.023a.16.16 0 0 1 .042-.217c.077-.062.17-.104.25-.162.262-.191.568-.31.819-.529.24-.21.483-.424.763-.585a.208.208 0 0 0 .102-.103c-.058-.034-.092.002-.128.027-.432.292-.852.603-1.302.868-.15.089-.316.15-.464.247-.081.053-.176.018-.222-.064-.051-.091.033-.142.096-.177.44-.243.856-.524 1.274-.8.451-.296.907-.586 1.358-.882.171-.112.33-.241.514-.33.032-.015.077-.036.063-.081-.014-.045-.064-.034-.1-.032-.155.01-.268.11-.39.193-.372.256-.721.547-1.114.776a.114.114 0 0 1-.038.019c-.298.04-.475.275-.697.434-.117.086-.251.135-.371.21-.217.137-.405.314-.628.44a.528.528 0 0 0-.046.034c-.079.057-.166.076-.255.033a.151.151 0 0 1-.086-.166.227.227 0 0 1 .174-.188c.133-.038.257-.1.366-.183.297-.226.636-.386.948-.59.355-.23.706-.468 1.058-.704.026-.017.067-.037.046-.076-.02-.04-.057-.017-.09-.009-.23.059-.428.186-.619.315-.313.21-.601.467-.938.636-.293.148-.585.291-.864.464a.611.611 0 0 1-.147.053c-.094.028-.174.006-.212-.09-.037-.096.025-.163.104-.189.202-.067.369-.196.554-.29a.17.17 0 0 0 .098-.1c-.2.098-.377.185-.555.274-.046.023-.089.056-.137.075-.079.031-.157.014-.202-.057-.045-.07-.009-.136.052-.186.029-.024.06-.044.125-.091-.174-.017-.316-.032-.456-.043-.124-.01-.248-.016-.353-.095-.125-.094-.12-.188.015-.262a.99.99 0 0 1 .371-.14c.05-.005.116-.024.116-.086 0-.062-.066-.057-.11-.066-.069-.014-.136-.03-.143-.114-.006-.09.057-.143.131-.166.14-.046.283-.081.425-.12.023-.006.048-.004.07-.01.067-.02.151-.065.13-.126-.029-.083-.114-.03-.172-.005a2.216 2.216 0 0 1-.62.19c-.086.012-.187 0-.193-.114-.006-.111.074-.177.176-.19.337-.043.64-.214.976-.256.044-.005.113-.021.094-.081-.02-.065-.087-.037-.136-.026l-1.063.256a.219.219 0 0 1-.2-.046c-.05-.041-.059-.095-.052-.154.007-.066.05-.1.109-.116a4.81 4.81 0 0 1 .669-.124 4.43 4.43 0 0 0 .996-.228c.04-.015.1-.028.095-.072-.01-.063-.08-.044-.119-.037-.238.043-.476.086-.71.143-.222.057-.442.114-.67.134-.048.005-.095.004-.143.005-.114.003-.191-.052-.192-.163-.002-.12.11-.153.194-.138.157.028.3-.034.45-.042a.23.23 0 0 0 .097-.022c.237-.133.498-.137.759-.152.067-.004.193-.005.183-.06-.018-.087-.13-.05-.194-.028-.29.102-.596.028-.888.092-.185.04-.36.125-.556.114-.115-.005-.212-.028-.224-.163-.013-.134.08-.175.186-.189.16-.024.32-.039.482-.044.367-.003.728-.069 1.091-.1.364-.03.714-.113 1.074-.141.2-.016.4-.079.596-.127a.976.976 0 0 1 .21-.035.353.353 0 0 0 .22-.085c-.083-.043-.15 0-.217 0-.32.005-.628.085-.942.134-.35.057-.705.086-1.058.124-.385.04-.777.01-1.146.18-.183.085-.393.05-.593.043-.061-.003-.11-.032-.125-.097-.018-.079-.008-.153.062-.205a.273.273 0 0 1 .228-.054.643.643 0 0 0 .363-.03c.204-.076.422-.067.632-.091.494-.057.987-.126 1.484-.154.257-.014.508-.088.76-.159-.183.011-.366.026-.548.034-.589.026-1.17.133-1.756.17-.28.018-.567.04-.852.024-.18-.011-.289-.07-.288-.171 0-.107.147-.187.318-.167.602.07 1.192-.053 1.787-.095.007 0 .015-.01.029-.021-.422 0-.84-.044-1.245.015-.275.04-.527-.035-.79-.024a.123.123 0 0 1-.123-.07.122.122 0 0 1-.011-.049c-.007-.077.045-.106.108-.127a.39.39 0 0 1 .224-.027c.361.093.718-.024 1.077-.018.103.001.206-.014.311 0 .299.04.59-.02.882-.066v-.038h-.302c-.375.005-.75.004-1.116-.106a.57.57 0 0 0-.283.008c-.22.048-.444.043-.668.042-.112 0-.184-.045-.178-.169.007-.123.098-.157.19-.14.334.063.665-.013.996-.005.209.005.416.046.626.028.049-.004.102.009.178-.04-.214-.056-.398-.108-.584-.15-.069-.014-.119.058-.184.069-.385.056-.766.075-1.137-.078-.098-.04-.176-.083-.12-.208.03-.06-.016-.075-.06-.086-.12-.03-.238-.07-.362-.074-.124-.004-.185-.073-.207-.179-.02-.101.064-.138.138-.173.342-.162.707-.27 1.065-.392.04-.013.104-.011.102-.059-.003-.062-.071-.05-.115-.051-.147-.007-.294 0-.44-.029a.325.325 0 0 1-.167-.072c-.036-.034-.063-.072-.05-.125a.11.11 0 0 1 .117-.085c.228.002.454-.029.68.03.153.037.31.054.467.051.1 0 .201-.003.296.031.128.046.244-.007.363-.032.029-.006.062-.012.06-.048-.001-.036-.038-.04-.065-.044-.183-.028-.366-.05-.55-.078-.243-.036-.494-.019-.728-.114-.086-.034-.195-.053-.166-.17.029-.119.134-.12.233-.086.324.108.667.087.999.138.243.037.488.062.73.107.15.024.303.02.45-.013-.178-.047-.318-.189-.53-.15-.255.048-.507-.044-.76-.076a7.107 7.107 0 0 1-1.074-.216c-.063-.018-.132-.012-.198-.017a.212.212 0 0 1-.196-.142c-.036-.094-.009-.164.102-.168.118-.008.237.003.352.035.43.133.875.217 1.325.25.209.012.412.076.59.186a.061.061 0 0 0 .065.011c.168-.092.334-.021.499.007.154.026.307.062.461.091.032.008.066.01.099.007.05-.007.121-.012.124-.071.003-.059-.069-.057-.111-.066a5.544 5.544 0 0 0-.493-.075 4.415 4.415 0 0 1-.518-.088c-.589-.126-1.18-.24-1.77-.365-.208-.044-.413-.104-.62-.157-.085-.022-.106-.085-.103-.163.002-.086.057-.112.132-.116.205-.011.39.076.582.122.434.103.866.212 1.308.279.318.048.628.137.943.208.065.014.129.04.194.043.328.018.648.086.97.134.092.014.186.027.28-.019-.154-.013-.298-.075-.45-.079a1.568 1.568 0 0 1-.46-.091c-.365-.124-.748-.166-1.12-.254-.157-.037-.31-.086-.467-.125-.377-.092-.755-.181-1.133-.272l-.47-.11a.22.22 0 0 1-.068-.023C.828 9.785.755 9.727.8 9.617c.044-.105.125-.114.224-.082.474.154.966.236 1.445.368.007.002.017-.005.037-.011-.074-.085-.179-.106-.27-.142-.257-.1-.525-.164-.78-.27-.124-.05-.268-.054-.394-.113-.034-.016-.075-.027-.098-.053-.046-.049-.086-.108-.043-.179.04-.066.1-.083.171-.057.396.144.807.244 1.197.405.069.028.152.023.22.052.601.254 1.247.348 1.87.526a.31.31 0 0 0 .219-.005c-.073-.088-.17-.083-.259-.091a.355.355 0 0 1-.266-.142.092.092 0 0 1 .027-.145.088.088 0 0 1 .055-.007c.079.008.158.023.239-.022a2.777 2.777 0 0 0-1.074-.312l.002.002Zm11.67 8.426c.1 0 .178-.048.26-.102.252-.165.485-.36.763-.49.182-.085.294-.261.425-.408a.558.558 0 0 0-.236.103c-.105.075-.215.14-.33.197-.067.03-.17.048-.21-.05-.04-.091.037-.139.106-.173.167-.078.322-.18.46-.301.058-.05.109-.11.172-.148.271-.16.47-.409.728-.589.269-.188.444-.471.588-.77.069-.14.12-.288.188-.427.028-.06.08-.117.158-.09.07.026.067.098.065.16a.276.276 0 0 1-.027.108c-.171.332-.405.626-.582.956-.12.225-.333.386-.513.57-.06.061-.12.153-.049.208.077.06.114-.061.166-.107.022-.02.028-.057.041-.09.02-.05.05-.099.098-.116.119-.045.194-.134.27-.226.048-.058.106-.09.17-.035.065.054.097.014.137-.033.163-.194.281-.416.396-.639.014-.026.042-.055.01-.088-.01.004-.021.005-.027.011-.043.05-.06.155-.155.1-.094-.055-.03-.132 0-.199.102-.224.192-.454.269-.688.07-.225.082-.466.195-.68.06-.114.06-.245.061-.375.002-.16.014-.322.034-.481.01-.088.044-.183.158-.156.094.022.1-.032.101-.086.008-.25.073-.497.02-.749a1.594 1.594 0 0 1-.029-.382c.008-.25-.07-.486-.129-.725-.01-.041-.022-.092-.094-.116.023.172.042.335.067.496.016.114.02.228.009.342-.003.04-.019.077-.067.078-.04 0-.057-.028-.067-.063-.02-.082-.037-.166-.06-.248-.103-.365-.11-.75-.247-1.108-.025-.065-.06-.135-.002-.201.065-.076.121.01.198.034-.072-.269-.223-.474-.32-.704-.087-.202-.246-.358-.362-.54-.098-.156-.185-.322-.298-.465-.282-.355-.562-.712-.953-.968-.412-.271-.75-.65-1.246-.798-.312-.094-.57-.324-.9-.382-.21-.037-.418-.074-.619-.15-.242-.091-.505-.012-.748-.063-.494-.105-.973.003-1.456.052-.188.019-.385.028-.56.09-.478.167-.968.3-1.416.551-.381.215-.733.471-1.094.714-.26.176-.456.427-.665.657-.236.263-.456.541-.631.854-.175.313-.368.621-.496.965-.195.52-.377 1.034-.418 1.6-.032.46-.042.92-.055 1.38-.01.38.107.747.178 1.117.054.279.182.537.277.805.186.524.506.973.796 1.437.128.204.343.352.487.548.314.427.736.739 1.17 1.006.434.267.871.527 1.375.673.492.142.972.313 1.49.347.603.04 1.204.052 1.797-.092.124-.03.262-.027.374-.08.279-.132.589-.173.865-.31.182-.09.43-.085.485-.352.01-.044.07-.06.112-.083.118-.066.243-.122.338-.226-.247.084-.45.25-.685.358-.185.085-.355.203-.563.23-.075.01-.163.033-.193-.066-.03-.098.045-.127.12-.161.11-.051.245-.057.327-.164l-.003-.004Zm1.84 5.082c.028-.124-.032-.195-.065-.27-.088-.204-.178-.413-.318-.584-.24-.294-.537-.534-.725-.88a1.228 1.228 0 0 1-.143-.73c.03-.352.02-.692-.183-1-.067-.102-.142-.199-.208-.305-.106-.174-.296-.24-.483-.148-.16.08-.33.134-.496.202-.05.02-.062.045-.026.082.107.108.184.24.295.346.262.248.4.569.482.912.054.225.058.464.13.68.128.387.383.666.773.831.235.1.478.195.657.408.113.136.184.294.31.456ZM1.959 7.841l-.007.042c.08.028.158.079.237.08.322.008.638.083.963.07.326-.014.664-.007.97.156.051.026.106.045.162.055.286.05.514.22.737.385.239.178.488.313.78.388.178.046.36.009.535.06.134.04.26-.018.309-.148.028-.065.062-.127.1-.186.054-.091.135-.195.058-.301a.584.584 0 0 0-.367-.25c-.242-.046-.476.048-.721.014-.332-.046-.65-.114-.952-.267-.406-.205-.829-.342-1.298-.26-.242.043-.49.047-.73.115-.252.07-.517.086-.776.047Zm18.727 4.798c.251.007.46.012.668.02.246.007.492.082.737.013a.907.907 0 0 1 .396-.022 7.4 7.4 0 0 0 1.25.077c.075 0 .15.008.228.007a.057.057 0 0 0 .061-.049c.002-.029-.025-.037-.047-.046a1.367 1.367 0 0 0-.234-.057c-.288-.06-.583-.076-.868-.149-.433-.11-.862-.235-1.304-.303-.442-.067-.898-.083-1.326-.235-.25-.089-.522-.08-.77-.175-.073-.028-.118.018-.11.086.03.253.034.508.041.762.003.095.043.13.135.07.054-.034.12-.022.18-.028.336-.038.668.074.963.029Zm-.435 8.006c-.012-.057-.05-.092-.091-.125-.14-.114-.28-.226-.419-.342-.433-.36-.74-.836-1.12-1.246a22.002 22.002 0 0 1-.614-.686c-.175-.206-.37-.404-.544-.613-.135-.162-.304-.167-.476-.018-.14.12-.227.293-.403.376-.132.061-.134.117-.013.199.365.246.734.485 1.097.734.114.078.24.127.352.213.292.225.591.443.905.64l.551.347c.175.11.33.252.494.38.066.053.128.113.196.163.028.02.072.04.085-.023Zm2.747-12.338a1.312 1.312 0 0 0-.663.037c-.243.089-.47.2-.74.209-.194.007-.387.028-.581-.003-.276-.046-.55-.127-.828-.136-.425-.014-.859.004-1.237.242-.352.222-.44.292-.232.65l.015.025c.142.28.136.268.409.118.25-.14.485-.31.782-.363.253-.049.512-.056.766-.021.54.082.977-.171 1.427-.386.153-.073.288-.18.454-.232.143-.043.295-.057.428-.14Zm-3.22-3.759-.028-.03a.368.368 0 0 0-.066.018c-.331.16-.61.399-.897.62-.206.156-.42.306-.627.46-.306.229-.611.463-.934.67-.13.084-.274.153-.39.26-.116.106-.134.21-.029.302.158.136.307.28.449.432.094.1.175.091.263-.014.12-.143.24-.283.35-.43.2-.272.453-.498.659-.765.28-.364.577-.715.876-1.063.13-.15.25-.307.374-.46ZM6.26 14.91c0-.086-.037-.153-.075-.219a2.114 2.114 0 0 1-.21-.586c-.018-.084.006-.201-.105-.228-.118-.029-.172.079-.234.155a.467.467 0 0 0-.051.085c-.248.486-.618.844-1.143 1.004a2.898 2.898 0 0 0-1.276.792c-.31.326-.555.706-.845 1.049-.022.026-.061.065-.02.097.038.028.067-.018.096-.04.108-.08.182-.193.267-.294.225-.265.52-.453.77-.691.169-.16.36-.322.583-.404.412-.15.82-.322 1.275-.317.303.003.588-.089.856-.231.073-.04.121-.09.112-.171Zm1.993 8.062c.018-.022.031-.04.046-.056.116-.133.115-.318.211-.462.062-.093.141-.186.144-.305.006-.208.038-.425-.008-.623-.07-.302-.023-.58.055-.866.08-.304.245-.579.476-.791.126-.114.23-.251.306-.404.105-.216.109-.45.163-.673.043-.18-.038-.283-.207-.36-.081-.037-.17-.054-.244-.114-.064-.051-.109-.012-.126.052a.616.616 0 0 0-.012.155c0 .307-.108.585-.24.852-.134.268-.335.496-.456.769-.061.142-.166.268-.16.434.014.39.1.769.189 1.145.045.188.085.367.032.556-.05.173-.071.353-.154.517-.024.048-.051.103-.015.174Zm14.67-5.248c.042.004.078.016.088-.02.013-.047-.03-.068-.063-.082-.305-.13-.6-.295-.927-.358-.41-.08-.774-.2-1.096-.507-.369-.354-.723-.723-1.084-1.083-.21-.208-.443-.374-.729-.452-.213-.056-.332.015-.41.216a1.308 1.308 0 0 1-.195.376c-.029.034-.066.077-.033.127.027.042.077.035.118.029.225-.029.432.053.639.117.45.14.813.432 1.154.735.341.303.731.443 1.163.512.422.07.842.14 1.227.337a.99.99 0 0 0 .148.053Zm-10.531 5.843c-.055-.281-.006-.564-.021-.847-.038-.68.045-1.36-.054-2.04-.059-.402-.024-.811-.034-1.217-.005-.192-.05-.254-.235-.268-.16-.013-.323-.005-.485-.006-.089 0-.125.057-.105.13.067.247.094.502.163.747.066.236.125.474.171.714.057.29.068.59.133.88.109.483.167.978.345 1.444.058.151-.004.326.122.463ZM14.778 5.75c.11-.01.179-.043.226-.14.097-.194.16-.405.277-.59.122-.196.2-.417.374-.583.229-.211.377-.494.419-.802.04-.262.061-.527.06-.793-.007-.475.1-.918.355-1.323.025-.04.06-.09.006-.125-.059-.04-.097.01-.124.057-.052.09-.098.184-.152.273-.155.25-.244.535-.257.828-.007.19-.016.378-.031.567a.92.92 0 0 1-.217.545c-.16.188-.337.36-.53.513-.174.136-.372.248-.497.44-.162.251-.235.556-.462.77-.046.044-.08.127.003.171.177.092.372.139.55.192ZM1.823 12.16c.171 0 .324.054.471.019.247-.06.494-.06.746-.07.63-.025 1.26-.06 1.892-.07.218-.003.436-.018.654-.025.095-.004.143-.045.162-.142.04-.2.06-.402.06-.605 0-.2-.02-.222-.218-.166-.187.054-.366.136-.56.164-.49.071-.953.25-1.426.383-.512.142-1.01.33-1.541.404a.376.376 0 0 0-.24.108ZM12.182 1.378c-.031.313-.143.584-.177.87a20.102 20.102 0 0 1-.253 1.637c-.092.458-.23.908-.282 1.374-.014.118.016.174.134.177.163.005.32-.03.478-.064.158-.034.2-.12.204-.27.01-.418-.052-.834-.029-1.25.015-.295-.061-.586-.018-.88.029-.197.03-.397.002-.595a2.388 2.388 0 0 1 0-.79c.011-.064.027-.132-.06-.208v-.001Zm-7.365 2.79c-.004.066.043.089.075.12.26.25.58.427.836.683.293.295.596.58.889.876.4.402.82.784 1.22 1.187.047.048.097.094.175.057.164-.076.31-.185.432-.32.042-.045.061-.104.012-.153a1.663 1.663 0 0 0-.247-.212c-.206-.133-.42-.252-.62-.398-.24-.175-.487-.342-.738-.503-.337-.217-.68-.427-.999-.675-.268-.209-.59-.342-.846-.573a.39.39 0 0 0-.19-.088l.001-.002Zm3.984-.844c-.004.17.037.323.08.47a.941.941 0 0 1-.016.518c-.165.62-.192 1.222.135 1.803.055.097.181.17.27.127.122-.063.24-.132.355-.207.057-.036.064-.088.034-.148a1.986 1.986 0 0 1-.213-.797c-.009-.163.008-.32.013-.48a1.068 1.068 0 0 0-.162-.624c-.12-.192-.27-.364-.375-.567a.168.168 0 0 0-.122-.093l.001-.002ZM7.453 16.91a.124.124 0 0 0-.009-.044c-.104-.157-.201-.32-.346-.444-.057-.048-.13-.02-.154.047-.06.161-.18.287-.25.445-.11.256-.233.507-.37.751-.151.267-.29.54-.461.797-.205.307-.39.626-.581.943-.04.065-.135.16-.07.206.09.063.138-.063.181-.127.229-.333.486-.643.73-.962.166-.216.373-.39.539-.605.22-.289.425-.593.701-.836a.281.281 0 0 0 .09-.171Zm13.346 3.985c-.038-.136-.047-.131-.093-.207-.212-.346-.564-.558-.82-.861-.085-.102-.154-.215-.243-.314-.324-.358-.655-.711-.949-1.094a5.651 5.651 0 0 0-.54-.598 5.211 5.211 0 0 1-.49-.528c-.02-.029-.036-.082-.082-.057-.036.02-.026.07-.017.105.033.134.118.24.21.333.302.308.625.594.899.93.252.308.516.605.793.892.236.245.428.53.698.746.135.113.251.246.343.396.07.114.165.174.291.257Zm3.322-9.998c-.288-.022-.57-.025-.856.046-.378.094-.772.08-1.157.133-.408.056-.81.153-1.222.18-.255.017-.509.042-.762.077-.064.009-.129.008-.178.07 1.411-.006 2.796-.237 4.175-.506Zm-6.723 12.417c.064-.043.054-.101.041-.147-.08-.296-.161-.59-.314-.862-.17-.304-.41-.556-.623-.825a2.573 2.573 0 0 1-.454-.92c-.016-.057-.017-.143-.107-.114-.077.023-.057.097-.042.158.006.023.017.045.022.068.116.516.46.894.78 1.288.254.313.511.622.596 1.035.022.106.037.221.101.32Zm4.215-13.395c-.038-.05-.087-.029-.135-.017-.248.062-.497.127-.753.145-.213.015-.428.029-.631.094-.233.074-.483.11-.673.285-.065.059-.171.142-.114.215.057.073.166-.01.237-.061.285-.206.62-.286.958-.328.348-.042.67-.162 1.004-.252a.143.143 0 0 0 .107-.08v-.001Zm-19.57 2.508c.096.03.196.045.297.042.465.003.932-.013 1.395.015.56.033 1.116.069 1.672-.012.086-.012.237.052.24-.053.001-.075-.17-.065-.266-.061-.403.015-.805.057-1.207.05-.626-.011-1.252-.026-1.879-.022-.079 0-.16-.01-.252.04Zm19.686 3.97a.156.156 0 0 0-.076-.103c-.085-.057-.184-.102-.26-.17a22.28 22.28 0 0 1-.663-.624 3.71 3.71 0 0 0-1.333-.818c-.05-.018-.11-.035-.133.031-.022.062.036.077.082.093.128.047.26.09.386.142.367.157.669.408.96.673.24.22.475.447.716.666.065.055.136.103.211.143.043.028.094.034.11-.033ZM12.556 1.69c-.032.246-.02 3.442.022 3.565.016-.18.083-.318.077-.47-.017-.401.038-.802 0-1.204-.02-.216.014-.442-.018-.647-.054-.351-.018-.7-.044-1.047-.004-.06.012-.122-.037-.197Zm-.012 21.042c-.021.185.019.34.026.495 0 .023.005.052.035.054.03.001.04-.025.041-.048a.555.555 0 0 0 .004-.128 2.2 2.2 0 0 1-.024-.51c.049-.571.036-1.144.04-1.716.003-.44-.02-.88.002-1.32a.792.792 0 0 0-.015-.142c-.003-.023-.003-.053-.033-.055-.039-.003-.043.03-.048.057a.431.431 0 0 0-.004.07c-.012 1.091.024 2.182-.024 3.243ZM20.42 9.367c-.266-.028-.52.043-.77.111-.17.046-.336.106-.477.216-.057.045-.121.103-.066.178.049.066.111.012.164-.018a2.484 2.484 0 0 1 1.218-.344c.157-.002.314.013.467-.038.05-.016.138-.007.124-.085-.012-.07-.094-.046-.147-.046-.174.002-.343.042-.514.026h.001Zm.132 6.477c.14.184.252.379.422.537.337.313.707.536 1.166.603.215.035.424.095.624.18.076.032.146.084.26.076a.463.463 0 0 0-.185-.172 2.127 2.127 0 0 0-.47-.16c-.153-.03-.31-.049-.459-.093-.29-.085-.54-.251-.768-.448-.199-.174-.396-.349-.592-.523h.002Zm-.727 3.47c-.105-.198-.258-.358-.4-.529-.26-.318-.541-.62-.81-.93-.2-.229-.363-.487-.589-.692-.028-.026-.057-.085-.102-.044-.038.036.002.08.029.112.248.304.494.611.748.911.208.246.428.482.642.723.148.163.276.346.482.45Zm-6.894 2.807c.061-.215.05-.44.057-.657.019-.624.007-1.25.006-1.875 0-.057.003-.12-.05-.168-.078.14-.095 2.505-.014 2.7Zm3.475-19.084c-.039.085-.035.179-.043.271-.029.313-.084.619-.22.907-.134.288-.377.507-.526.788-.117.22-.29.414-.33.671-.006.044-.033.111.024.123.052.01.076-.057.073-.103-.007-.125.061-.215.125-.31.108-.16.221-.318.32-.483.111-.191.216-.388.333-.575.241-.386.286-.806.28-1.242a.041.041 0 0 0-.008-.031.04.04 0 0 0-.027-.016Zm5.745 10.657c.23.1 2.04.354 2.166.308-.215-.163-1.984-.422-2.166-.308Zm-8.023 9.897c-.027-.85-.12-1.695-.275-2.53-.052.86.109 1.696.275 2.53Zm-4.74-2.608c.117-.129.163-.284.262-.4.32-.382.572-.814.749-1.278.039-.1.092-.2.082-.313-.003-.034-.01-.069-.053-.072a.047.047 0 0 0-.05.04c-.045.22-.188.401-.239.621-.06.263-.2.49-.38.688-.128.14-.239.295-.331.46-.04.072-.073.15-.04.254Zm3.834-.961h.003v.256c.002.137.003.274.009.411.001.036.012.086.06.086.046 0 .038-.047.04-.079.012-.122.016-.245.033-.366.04-.279-.004-.568.098-.84.015-.037.055-.088.003-.112-.062-.028-.127-.076-.2-.057-.055.015-.046.076-.046.123v.578ZM7.67 17.276c-.288.21-1.775 1.946-1.823 2.14.15-.234.39-.384.557-.602.29-.375.61-.722.936-1.067.126-.134.293-.247.33-.471Zm8.438 2.242a.067.067 0 0 0-.027.075c.052.37.07.747.182 1.106.076.244.188.477.4.642.025.02.064.062.099.025.033-.036-.013-.066-.035-.095-.182-.246-.331-.508-.375-.818-.046-.319-.187-.613-.243-.935Zm5.036-4.03c-.057-.143-.104-.228-.19-.302-.443-.381-.931-.677-1.52-.773-.04-.006-.1-.024-.115.022-.018.053.046.06.08.081.116.075.258.047.383.092.329.116.623.293.91.488.156.106.265.267.452.392Zm-4.419-9.82c.426-.582.62-1.255.936-1.87-.1.086-.155.198-.217.306-.11.193-.149.42-.285.598-.108.14-.185.297-.263.453a.512.512 0 0 1-.12.173c-.11.09-.12.195-.051.338v.001Zm-3.774-.757c.044-.03.04-.066.042-.098.021-.458-.027-.916-.004-1.374.003-.061-.007-.156-.085-.155-.061.002-.063.096-.074.154a.849.849 0 0 0-.006.128c-.015.351.063.697.065 1.047a.71.71 0 0 0 .062.298Zm2.698.978a.413.413 0 0 0 .16-.21c.092-.313.274-.579.442-.852.094-.153.195-.302.287-.455.023-.039.08-.1.014-.134-.057-.03-.07.044-.092.083-.106.2-.232.39-.376.567-.243.29-.356.636-.435 1.001Zm-9.298 9.505c-.104 0-.104 0-.2.047-.364.173-.742.284-1.15.275a2.038 2.038 0 0 0-.396.028c-.202.034-.527.202-.597.313a.34.34 0 0 0 .135-.045c.26-.176.557-.22.856-.209.376.015.72-.106 1.062-.225.11-.036.21-.1.29-.184Zm.187 3.704c.186-.067 1.417-1.392 1.46-1.57-.153 0-.222.117-.295.215-.228.313-.508.581-.742.89-.125.164-.31.276-.423.465ZM9.264 3.31c-.046-.059-.097-.114-.14-.177-.26-.386-.495-.783-.53-1.264-.004-.04-.013-.097-.066-.094-.047.004-.037.057-.04.094a.407.407 0 0 0 0 .071c.054.572.352 1.01.776 1.37ZM7.67 7.391a.26.26 0 0 0-.082-.11 8.447 8.447 0 0 1-.902-.846c-.037-.04-.09-.125-.142-.072-.047.045.025.112.07.15.314.262.571.58.864.864.034.033.065.072.117.077.041.004.076-.005.075-.063Zm9.303-1.49c.37-.451.57-.991.82-1.506-.311.481-.615.967-.82 1.506ZM4.584 9.172l-.031.078c.432.379.925.585 1.532.462-.528-.104-1.086-.12-1.5-.54Zm-.218 7.05c.157-.035.276-.113.408-.107.42.022.822-.047 1.218-.18.176-.059.329-.153.49-.274-.11.009-.108.016-.212.065-.314.15-.633.272-.99.277a3.03 3.03 0 0 0-.758.118.25.25 0 0 0-.156.102ZM9.378 3.431c-.043.063-.019.097.003.126.302.41.368.88.362 1.371-.005.11.019.22.07.318.016-.085.082-.163.049-.246-.095-.236-.064-.486-.09-.728-.034-.327-.199-.58-.394-.841Zm7.305 16.483c-.078-.265-.157-.552-.29-.82-.037-.073-.06-.211-.16-.176-.056.02.012.153.04.23.097.265.271.502.271.8 0 .047.018.122.08.117.07-.005.042-.08.06-.15Zm2.193-2.234c-.111-.17-.194-.355-.336-.5-.132-.137-.2-.324-.344-.45-.04-.035-.095-.07-.14-.029-.058.053.007.093.037.129.195.233.389.465.588.693.053.062.103.132.195.157Zm-.702-9.442c.081-.018.09-.064.109-.1.108-.2.215-.396.386-.555.17-.157.284-.364.327-.59-.29.395-.654.742-.822 1.245Zm.37-1.723c-.177.301-.444.501-.636.767-.06.082-.14.142-.2.222-.027.036-.042.08-.006.116.043.044.076.002.107-.026l.029-.032c.263-.274.443-.61.684-.901.023-.028.057-.065.022-.146Zm-11.947 9.43c-.49.196-1 .336-1.522.418.324.098 1.34-.177 1.522-.418Zm9.38-9.967c-.004.036-.017.07.017.084.033.014.053-.015.066-.039a.735.735 0 0 0 .064-.157c.043-.192.129-.363.228-.53l.248-.413c.012-.02.029-.046.003-.064-.026-.017-.042 0-.058.02-.185.221-.335.468-.446.732-.05.121-.084.25-.123.367Zm2.29 1.516c.055-.003.07-.032.09-.057.087-.113.176-.223.262-.336.125-.167.249-.334.37-.503.027-.036.077-.089.034-.124-.057-.046-.093.028-.12.062-.164.208-.328.417-.48.634-.064.094-.1.209-.155.324Zm2.77 5.942-.004-.025c-.075-.01-.15-.021-.225-.029-.371-.037-.748-.03-1.12-.082-.1-.014-.21.023-.291-.074-.026-.031-.049 0-.059.03-.027.08.024.136.11.134.17-.005.35-.028.516.002.278.053.557.012.834.043.08.005.16.005.24 0Zm1.384-1.547c.58.042 1.125-.045 1.672-.069-.086-.067-1.561-.01-1.672.069ZM10.055 4.263c-.029.412.114 1.31.228 1.405-.05-.483-.091-.95-.228-1.405Zm10.32 5.51c-.028-.044-.064-.031-.095-.033-.435-.033-.799.109-1.08.446-.024.029-.073.057-.037.092.037.035.07-.014.091-.04.2-.237.476-.326.762-.407.117-.034.24-.02.36-.057ZM4.13 12.834c.13.007.23.047.337.027.168-.027.34-.028.509-.003.15.02.303.019.452-.005.029-.005.079-.004.078-.046 0-.052-.052-.045-.087-.048a1.035 1.035 0 0 0-.114 0l-.99.028a.33.33 0 0 0-.185.048Zm.963-2.903a.063.063 0 0 0 .038.068c.178.089.361.168.56.192a.875.875 0 0 0 .199-.004c.049-.005.094-.031.096-.087.002-.065-.052-.074-.1-.075a1.077 1.077 0 0 0-.226.01c-.155.03-.3.023-.434-.071-.035-.025-.077-.058-.133-.033Zm5.603-6.258c-.059.065-.04.114-.04.157 0 .294.107.576.098.872-.003.086.046.14.12.208-.058-.41-.078-.818-.178-1.237Zm9.667 9.325c-.257-.044-.499-.106-.75-.056a.148.148 0 0 1-.12-.035c-.032-.023-.069-.038-.1 0a.133.133 0 0 0-.025.134c.021.057.061.017.096.013.07-.008.14-.013.211-.014.227-.005.454.015.688-.041ZM3.99 16.995a4.891 4.891 0 0 0-1.239.74c.43-.22.824-.497 1.24-.74Zm5.426 3.238c-.285.138-.461.579-.367.887.04-.315.233-.567.367-.887Zm10.779-6.511a.175.175 0 0 0-.064-.019c-.226.029-.453.012-.679.025a.246.246 0 0 0-.131.048c-.024.017-.042.04-.029.071a.054.054 0 0 0 .06.029c.284-.026.567-.057.843-.155ZM14.352 2.484c-.102.476-.216.951-.2 1.444.026-.487.23-.949.2-1.444Zm-4.33 16.322c-.056.027-.052.07-.05.105a.778.778 0 0 1-.113.46c-.05.092-.092.188-.136.283-.028.059-.051.119 0 .215.182-.348.366-.664.3-1.063Zm12.153-5.76c-.474-.05-.948-.083-1.423-.037.474.041.949.075 1.424.037ZM6.695 7.087a.053.053 0 0 0 .02.06c.12.09.191.216.264.343.057.093.13.174.216.242.033.028.077.053.114.02.048-.04 0-.074-.022-.107-.152-.212-.386-.346-.54-.556a.036.036 0 0 0-.053-.002Zm3.732 12.787.029.023a.281.281 0 0 0 .06-.03c.223-.185.215-.47.307-.712a.05.05 0 0 0-.023-.044c-.037-.01-.049.024-.057.048-.036.117-.063.235-.128.342-.071.118-.126.247-.188.372ZM6.27 6.072c-.287-.388-.64-.714-.993-1.039.314.363.66.695.993 1.039Zm12.59 7.045c-.16.261-.21.613-.122.863.07-.301.12-.58.122-.864ZM6.512 7.482c.1.195.18.393.385.498.024.012.053.038.077.016.035-.03.005-.063-.014-.085a24.34 24.34 0 0 0-.36-.42c-.015-.019-.038-.028-.088-.01Zm-.586 1.91c.047 0 .095.003.143 0 .038-.004.101.01.096-.05-.004-.045-.062-.031-.097-.025-.32.062-.608-.041-.893-.168-.028-.012-.063-.048-.084-.004-.017.037.027.053.056.07.242.135.51.162.779.176Zm.416-2.701c-.114-.242-.3-.418-.516-.566.112.235.292.433.516.566Zm15.081 2.89.017.041c.295-.045.556-.184.819-.318a.034.034 0 0 0 .019-.02.032.032 0 0 0 .001-.014.033.033 0 0 0-.004-.014c-.022-.028-.05-.016-.076-.004-.12.057-.235.12-.361.163-.14.049-.277.11-.415.166Zm-15.72 9.99-.04-.035c-.197.264-.473.458-.648.742l.051.045.637-.752Z" fill="#A87104"/><path d="M11.204 21.806c-.066.338-.066.698-.139 1.053-.095.463-.157.932-.236 1.398a1.94 1.94 0 0 1-.057.218c-.019.063-.049.12-.128.105-.074-.013-.112-.067-.12-.14a.204.204 0 0 1 .008-.084c.08-.249.071-.512.135-.765a.28.28 0 0 0-.012-.194.121.121 0 0 1-.007-.096c.128-.346.195-.705.24-1.07.02-.159.054-.316.061-.478.005-.096.062-.215.156-.207.14.011.075.155.099.26ZM3.32 9.337c.132.105.305.1.453.161.06.026.11.055.135.116.017.046.023.094-.01.136-.033.04-.078.02-.119.01-.462-.122-.931-.22-1.376-.402a.07.07 0 0 0-.027-.009c-.383.019-.688-.228-1.044-.303a.493.493 0 0 1-.28-.16c-.067-.08-.039-.157.064-.173.12-.02.226.028.33.07.355.147.723.261 1.098.342.115.029.227.067.336.114.14.062.29.095.442.098H3.32ZM3.184 4.5c.124-.003.2.042.254.108.212.265.506.438.742.675.147.146.285.303.424.457.035.04.063.09.02.14-.049.057-.105.033-.152-.002-.485-.362-.962-.732-1.342-1.211-.028-.037-.073-.07-.044-.123a.098.098 0 0 1 .098-.044ZM23.086 10.48a1.096 1.096 0 0 0-.353.03c-.07.022-.136.02-.161-.065-.025-.085.016-.137.087-.172a.168.168 0 0 1 .068-.02c.325-.008.633-.126.955-.15.106-.007.2-.056.295-.1a.352.352 0 0 1 .207-.033c.086.013.155.053.166.149.01.09-.044.138-.118.174-.125.06-.26.096-.397.106-.25.023-.495.092-.749.08ZM7.86 21.867c-.006.127-.085.23-.16.332-.217.287-.365.615-.543.924-.043.075-.083.148-.155.2-.072.05-.141.067-.207.003-.067-.063-.093-.134-.037-.216.13-.19.277-.37.39-.571.116-.207.29-.37.401-.578a.711.711 0 0 1 .145-.174c.031-.029.062-.066.11-.047.055.02.053.071.057.127ZM23.023 16.167c.175-.003.302.13.466.164.124.025.241.085.362.128a.457.457 0 0 1 .156.096c.054.05.076.113.047.18-.033.076-.103.096-.179.082a.716.716 0 0 1-.163-.05c-.242-.107-.483-.217-.724-.327l-.026-.012c-.072-.04-.154-.083-.13-.179.024-.096.116-.08.191-.082ZM2.917 4.763c.071.015.146.022.19.088.176.265.445.432.672.645.02.02.045.034.065.055.051.055.063.12.015.18s-.114.057-.179.018c-.127-.076-.22-.194-.333-.285-.159-.127-.312-.261-.466-.394a.233.233 0 0 1-.09-.186c.004-.077.044-.124.126-.12ZM21.443 20.554c-.046-.249-.245-.373-.426-.509-.085-.064-.14-.142-.142-.249-.002-.092.038-.136.133-.097a.36.36 0 0 1 .09.045c.22.17.421.363.598.578a.19.19 0 0 1-.005.24c-.053.069-.119.034-.18.007a.372.372 0 0 0-.07-.016l.002.001ZM2.009 6.604c.024.006.078 0 .104.026.167.161.393.225.578.355.076.053.189.112.126.219-.06.101-.181.042-.257.005-.233-.114-.434-.284-.667-.402a.105.105 0 0 1-.06-.131c.027-.072.096-.068.176-.072ZM4.064 5.85c.2.089.404.207.54.418a.098.098 0 0 1-.018.13c-.043.042-.086.022-.127-.008-.157-.12-.297-.26-.47-.36a.11.11 0 0 1-.057-.134c.017-.05.06-.054.132-.046ZM.787 11.242c-.08-.021-.195-.019-.2-.133-.004-.084.076-.125.163-.12.086.003.184.018.189.126.003.08-.068.118-.152.127Z" fill="#A87104"/><path fill-rule="evenodd" clip-rule="evenodd" d="M17.135 11.11c.222-.07.254-.114.257-.345.007-.149-.061-.25-.174-.35-.13-.117-.278-.196-.427-.276a3.983 3.983 0 0 1-.225-.127 1.397 1.397 0 0 0-.738-.217l-.114-.002c-.28-.004-.56-.01-.825.111-.051.024-.105.042-.158.06l-.028.01a.069.069 0 0 1-.078-.02.043.043 0 0 1-.01-.033.041.041 0 0 1 .017-.03c.058-.04.11-.09.164-.139.144-.133.287-.265.521-.24.165.017.315-.001.434-.15.086-.108.217-.061.243.075.02.11.1.152.186.116.091-.039.161-.055.247.002a.153.153 0 0 0 .111.006.417.417 0 0 1 .34.055c.06.03.123.052.188.065l.014.003c.064.017.136.035.175-.045a.197.197 0 0 0-.034-.225c-.315-.376-.73-.596-1.185-.748a1.2 1.2 0 0 0-.475-.08c-.489.04-.959.133-1.37.442-.364.274-.664.582-.82 1.02a4.217 4.217 0 0 0-.232 1.295c-.013.42.019.837.05 1.254.004.046.008.091.01.137.015.195.036.396.303.448.115.022.188.137.177.278-.01.119-.095.123-.173.127a.817.817 0 0 0-.534.235.358.358 0 0 1-.418.076 2.068 2.068 0 0 1-.359-.21 1.94 1.94 0 0 0-.377-.217c-.115-.044-.127-.13-.077-.232a.433.433 0 0 0 .053-.232.162.162 0 0 0-.126-.154c-.07-.02-.116.017-.156.07-.085.12-.148.255-.186.396-.06.192-.02.338.139.465l.178.145c.154.126.307.252.468.367.15.108.233.229.207.416a.255.255 0 0 0 .019.111c.039.117.126.14.22.062.073-.062.1-.143.108-.238a.124.124 0 0 1 .084-.115.124.124 0 0 1 .05-.006c.08 0 .083.062.085.119v.002a.33.33 0 0 0 .04.135l.011.025c.028.057.056.117.137.1.086-.019.136-.084.151-.17a.331.331 0 0 0 .003-.04l.003-.032c.02-.142.069-.247.239-.27.153-.02.296-.09.373-.232.062-.115.158-.167.27-.214.197-.084.354-.215.377-.443.023-.223-.063-.399-.248-.541a.868.868 0 0 1-.286-.399c-.052-.14-.039-.276-.025-.411.007-.07.014-.138.012-.208-.01-.395.085-.758.32-1.081.08-.11.16-.133.28-.065a.808.808 0 0 1 .226.22l.024.03c.273.345.765.458 1.14.184a.404.404 0 0 1 .1-.057c.189-.066.283-.204.315-.398.038-.235.042-.234.254-.135.216.101.236.166.114.367-.03.051-.056.105-.018.16.043.06.109.048.17.03.046-.015.092-.03.138-.047l.131-.044Zm-1.825-.431c.116 0 .211-.077.211-.17 0-.095-.095-.172-.211-.172-.117 0-.212.077-.212.171 0 .094.095.17.212.17ZM10.118 9.694c.07.048.142.096.223.13-.082-.032-.165-.032-.249-.032-.063 0-.125 0-.187-.014a.94.94 0 0 0-.452.02c-.116.03-.233.045-.351.06-.093.01-.185.022-.277.042a1.77 1.77 0 0 0-.713.3c-.312.234-.313.405-.015.655h.001a.283.283 0 0 0 .022.017c.127.092.199.07.221-.088.023-.157.13-.225.264-.263.11-.032.162.015.148.13-.006.07-.011.14.029.194.147.193.305.378.559.435.047.01.098.014.15.018.094.008.188.015.25.064.162.13.319.111.493.085a.207.207 0 0 1 .126.013c.184.108.353.051.529-.027.086-.04.168-.085.25-.132l.126-.07c.208-.11.268-.32.122-.507a2.81 2.81 0 0 1-.138-.198c-.109-.166-.218-.331-.404-.43-.027-.014-.063-.039-.034-.078.02-.028.052-.013.078 0 .026.015.053.028.08.042.171.088.342.175.459.34l.035.053a.5.5 0 0 0 .165.181c.12.063.144.146.142.262-.001.094.053.16.145.163.092.003.117-.073.14-.151.039-.133.02-.263.002-.393-.014-.098-.028-.196-.017-.296.003-.027-.021-.063-.042-.087a1.536 1.536 0 0 1-.158-.244 3.252 3.252 0 0 0-.068-.117c-.022-.036-.04-.074-.058-.113-.032-.069-.065-.138-.12-.193l-.031-.03c-.183-.177-.362-.352-.601-.467a3.39 3.39 0 0 0-1.269-.342c-.553-.035-1.05.155-1.537.396-.096.047-.177.114-.257.18-.09.075-.179.149-.289.195-.047.02-.073.068-.1.116a.933.933 0 0 1-.021.039.092.092 0 0 0 .008.118c.033.038.072.066.124.048.04-.015.079-.034.116-.054.058-.027.116-.055.173-.084a2.464 2.464 0 0 1 .472-.196c.106-.03.208-.057.304-.127.092-.067.239-.073.324-.005.106.086.212.086.326.085h.341c.046 0 .094.001.097.067.005.096.07.138.147.173.07.032.133.074.197.117Zm.39 1.036c.044-.17.108-.216.296-.216.1 0 .177.096.117.168l-.075.093c-.112.14-.224.281-.383.374-.033.02-.084.048-.119.014-.036-.037-.011-.068.012-.097.007-.009.014-.017.019-.026a1.2 1.2 0 0 0 .133-.31Zm-1.018-.098c.119 0 .215-.078.215-.174 0-.095-.096-.173-.215-.173-.118 0-.214.078-.214.173 0 .096.096.174.214.174Z" fill="#A87104"/><path d="M13.317 16.909a.47.47 0 0 1-.188-.032c-.167-.064-.33-.145-.515-.153a.37.37 0 0 1-.172-.063 2.458 2.458 0 0 0-1.058-.385.878.878 0 0 1-.525-.233.344.344 0 0 0-.254-.106c-.122 0-.183-.077-.176-.194.008-.162.046-.32.114-.468.059-.123.187-.136.274-.03a.104.104 0 0 0 .008.011c.074.072.04.223.167.248.156.03.312-.013.465-.043.153-.03.285-.103.417-.178.11-.064.236-.094.34-.175a.256.256 0 0 1 .205-.036c.188.035.368.075.57.026.302-.075.565.061.804.241a.96.96 0 0 0 .49.207c.178.017.298-.054.39-.202.104-.167.153-.164.281-.007.018.021.038.043.055.065.175.236.085.488-.202.522a.82.82 0 0 0-.426.169c-.134.104-.322.079-.461.179-.096.068-.2.125-.296.194-.084.061-.061.165-.08.25-.03.131-.092.206-.227.193Zm.33-.885a.255.255 0 0 0-.202-.018c-.306.082-.61.057-.916.005-.135-.022-.27-.048-.405-.066-.045-.006-.113-.014-.124.04-.012.065.059.061.101.074.078.022.15.055.225.085.265.106.534.197.821.054.104-.049.214-.08.327-.093.058-.008.125-.011.174-.08v-.001ZM12.651 16.99c.322.018.586.037.834.148.079.031.15.08.208.142.132.148.12.283-.034.418-.086.076-.245.035-.347-.093a.296.296 0 0 1-.063-.11c-.04-.177-.168-.228-.326-.24a1.198 1.198 0 0 0-.573.075.97.97 0 0 1-.205.057c-.064.011-.14.02-.168-.064a.143.143 0 0 1 .036-.158.142.142 0 0 1 .05-.03 1.38 1.38 0 0 1 .293-.102c.115-.023.232-.051.295-.043ZM18.492 12.536c-.033.193-.008.37 0 .54.017.366-.154.692-.169 1.046-.003.07-.034.156-.12.15-.086-.005-.094-.1-.095-.167a.577.577 0 0 1 .032-.224c.088-.217.114-.449.174-.672.049-.183-.036-.366-.015-.551.01-.085 0-.17.005-.256.002-.05.016-.101.072-.109.056-.007.078.047.09.093.014.056.02.112.026.15ZM17.904 13.32c-.066-.462.05-.915.06-1.373 0-.045 0-.113.05-.121.062-.01.053.063.068.104.064.175.022.355.033.533.016.256.007.512.017.766.006.136-.035.262-.062.391-.01.049-.031.096-.091.09-.06-.007-.073-.057-.074-.106-.004-.095-.001-.19-.001-.284ZM18.017 14.02a.519.519 0 0 1-.051.28c-.098.219-.19.441-.282.664a.396.396 0 0 1-.095.139c-.045.043-.094.094-.16.051-.065-.043-.051-.118-.022-.167.203-.344.314-.726.459-1.093.015-.04.039-.082.093-.07.053.013.055.06.057.103.003.037 0 .075 0 .092ZM17.647 13.86c-.005.268-.08.53-.216.76-.048.079-.115.119-.204.074-.094-.048-.068-.126-.03-.195.1-.186.145-.39.202-.589l.019-.068c.02-.075.063-.138.145-.13.101.01.078.1.084.148ZM14.993 17.762a.557.557 0 0 0-.18.031c-.08.027-.143-.014-.174-.082-.03-.069.015-.118.07-.153.156-.1.34-.133.513-.185.05-.015.092.014.114.063.025.055-.005.088-.049.116-.104.064-.218.114-.296.212l.002-.002ZM16.263 16.394c-.049 0-.085-.006-.108-.043-.025-.043-.01-.083.016-.119.067-.097.148-.184.24-.26.058-.047.111-.1.16-.157a.094.094 0 0 1 .067-.037.095.095 0 0 1 .073.023c.042.033.064.084.032.125-.124.166-.251.33-.421.452a.158.158 0 0 1-.059.016Z" fill="#A87104"/></svg>