<svg width="255" height="255" fill="none" xmlns="http://www.w3.org/2000/svg"><path d="M195.516 127.007c0 37.632-30.507 68.139-68.14 68.139-37.632 0-68.14-30.507-68.14-68.139 0-37.633 30.508-68.14 68.14-68.14 37.633 0 68.14 30.507 68.14 68.14Z" fill="#898989"/><path d="m163.119 15.055 6.704-3.95-3.232 14.962-2.035 12.569-2.634 5.746-7.062 12.09-4.19 4.788c-1.716-.32-5.434-1.03-6.584-1.317-1.149-.287-2.473-2.434-2.992-3.471.878-2.514 2.705-7.71 2.992-8.38.288-.67 3.871-4.428 5.627-6.224l5.147-3.232 3.83-4.31V29.06l1.796-7.9 2.633-6.105ZM117.879 34.215l5.306-21.742 2.808-.833.937 6.658v37.97c-3.225.625-9.946 1.873-11.027 1.873-1.082 0-1.422-1.248-1.457-1.872l3.433-22.054ZM93.073 35.402l-5.244-4.791.904 8.95-2.17 9.131v12.566l5.154 4.702c2.923-1.176 8.769-3.544 8.769-3.617V59.45l-2.441-6.78-.904-7.142-1.085-4.159-2.983-5.967ZM88.281 66.864 47.418 40.827l.904 3.345 32.275 30.014 5.514-2.983 2.17-4.34ZM165.998 66.943l40.863-26.037-.904 3.345L177.71 77l-9.543-5.716-2.169-4.34ZM23.37 78.797l-5.063.904v1.718c0 .434 3.375.784 5.063.904 5.032 1.326 15.459 4.068 16.905 4.43 1.447.362 8.98 3.646 12.567 5.244l11.933 2.079c1.628-.904 5.1-2.82 5.967-3.255.868-.434.724-3.978.543-5.695l-4.25-2.803h-3.254c-3.707-.874-11.228-2.802-11.662-3.526-.434-.723-7.353-2.531-10.759-3.345l-9.13 2.26-8.86 1.085ZM232.869 83.144l4.208 1.989v1.717c0 .434-3.375.784-5.062.904-5.033 1.326-14.252 6.213-15.698 6.575-1.447.361-9.465-1.253-13.052.344l-12.656 4.834c-1.628-.904-1.908-4.4-2.776-4.834-.867-.434-3.914-2.398-3.734-4.116l4.25-2.803h3.254c3.707-.873 11.229-2.802 11.662-3.525.434-.724 7.509.813 10.914 0l8.976-1.085h9.714ZM16.396 122.889l42.113-12.1h2.435l-1.414 13.357-38.577 1.021-4.085-1.021-.472-1.257ZM247.693 128.795l-49.791-12.607h-2.436l1.414 13.357 46.256 1.529 4.085-1.021.472-1.258ZM50.077 202.459l18.661-39.644 1.606-1.831 9.111 9.868-24.661 29.682-3.461 2.399-1.256-.474ZM125.234 242.361l-12.896-46.376-.005-2.436 13.359 1.385 1.811 42.865-1.012 4.088-1.257.474ZM206.824 212.462l-40.107-26.599-1.648-1.793 10.792-7.996 29.557 31.491 2.012 3.699-.606 1.198ZM48.53 150.23l8.957-10.685h2.986l4.557 7.543v7.228l-11 2.671-13.199 3.929-8.721 8.328-9.114 6.6-2.75-.55 11.864-16.343 16.42-8.721ZM84.27 202.091l5.072-12.476v-4.543l7.378 1.647 4.183 4.052-3.388 9.78-7.085 10.396v13.399l-4.851 9.78-3.85 1.848V213.95l2.54-11.859ZM200.933 172.294l-10.336-8.632-4.328-1.384 3.817-6.526 5.134-2.749 8.282 6.207 7.953 9.091 12.553 4.906 11.671 6.565-.55 2.278-23.674-6.914-10.522-2.842ZM151.334 215.49l-6.042-17.233-3.169-3.255 6.434-3.967 5.824-.015 4.396 9.371 2.176 12.391 8.073 10.895 4.622 9.096-1.469 4.01-16.14-14.8-4.705-6.493Z" fill="#898989"/><path d="M33.85 95.165c-2.12-1.16-4.399-1.866-6.687-2.649a149.937 149.937 0 0 1-8.66-3.295c-1.611-.664-3.199-1.3-4.694-2.227-.648-.406-1.087-.914-.758-1.66.348-.797 1.073-.678 1.744-.458.477.154.91.598 1.539.16-.948-1.546-2.466-2.57-3.53-3.986-1.065-1.415-1.745-3.016-2.365-4.626-.337-.87-.494-1.94.407-2.686.998-.824 2.17-.87 3.283-.342 1.745.832 3.452 1.766 5.447 1.894.465.029.94.272 1.454-.174-.73-1.117-2.175-1.184-3.03-2.068-.462-.476-1.567-.65-1.064-1.593.503-.942 1.503-.87 2.326-.435 2.053 1.085 4.07 2.248 6.072 3.408 1.454.847 2.858 1.404 4.344-.04.62-.6 1.567-.357 2.384-.41.413-.025 1.012.149 1.164-.359.15-.507-.396-.87-.8-1.085-1.291-.67-2.646-1.273-3.71-2.26-1.745-1.624-3.819-2.775-5.75-4.133-.625-.44-1.372-.986-.802-1.89.512-.813 1.291-.607 2.08-.326 1.773.633 3.27 1.764 4.596 2.98 2.35 2.151 4.892 3.92 7.834 5.125.675.29 1.1.983 1.882 1.04.375.03.852.172 1.061-.228.244-.47-.244-.667-.54-.87-1.181-.844-2.327-1.77-3.575-2.483-2.413-1.37-4.49-3.19-6.76-4.749-1.454-.997-2.658-2.242-3.917-3.43-.596-.564-1.431-1.35-.727-2.229.703-.879 1.683-.414 2.53 0 .93.47 1.581 1.277 2.276 2.008 1.952 2.047 4.298 3.573 6.64 5.11.767.505 1.415 1.138 2.198 1.64 5.004 3.219 10.448 5.754 15.001 9.676.803.69 1.841.968 3.155 1.29-.744-1.45-1.913-2.103-2.928-2.807-3.841-2.672-7.75-5.248-11.631-7.867a4.554 4.554 0 0 1-.794-.632c-2.713-2.9-6.398-4.667-9.015-7.678-1.23-1.41-3.222-1.74-4.548-3.054-.413-.406-.907-.71-1.09-1.311-.332-1.094.177-1.784 1.3-1.526a9.483 9.483 0 0 1 4.635 2.544c2.347 2.36 4.839 4.557 7.366 6.715 2.428 2.076 5.164 3.724 7.77 5.557 2.244 1.581 4.504 3.173 6.766 4.696a55.243 55.243 0 0 1 5.38 4.16c.532.46 1.145 1.16 2.166 1.14-.18-.931-.89-1.381-1.433-1.813-1.547-1.23-2.964-2.64-4.793-3.501a5.438 5.438 0 0 1-2.486-2.361c-.311-.58-.471-1.076.125-1.538.596-.46 1.19-.615 1.84-.078a792.674 792.674 0 0 0 5.599 4.568c.328.267.625.618 1.453.363-1.244-1.16-2.003-2.61-3.37-3.353-2.724-1.491-4.687-3.86-7.034-5.787-1.11-.91-2.242-1.853-3.068-3.074-.244-.36-.581-.737-.273-1.178.308-.44.872-.426 1.317-.189.715.392 1.51.68 2.076 1.306 1.498 1.656 3.519 2.723 4.993 4.409.151.17.346.348.634.18.16-.476-.218-.685-.485-.938-2.833-2.642-5.77-5.16-8.096-8.29-.942-1.264-2.521-1.917-3.556-3.19-1.565-1.9-3.234-3.718-4.912-5.511a15.73 15.73 0 0 0-3.745-2.956c-.91-.519-1.71-1.233-1.059-2.32.652-1.088 1.594-.543 2.437-.105.329.171.582.528 1.163.415-.337-.603-.666-1.16-.96-1.74-.232-.453-.337-.931.085-1.337.422-.406.942-.273 1.346 0 .6.38 1.134.87 1.957 1.16-.724-1.668-1.427-3.345-2.186-4.995-.198-.432-.52-.8-.637-1.288-.53-2.198.64-3.376 2.786-2.66 1.227.41 2.532.673 3.623 1.45.695.5 1.218.418 1.535-.495.399-1.16 1.163-1.256 1.978-.42a31.414 31.414 0 0 1 3.812 4.695c1.05 1.596 2.405 2.72 4.362 3.142-2.068-2.156-3.458-4.81-5.403-7.046a9.549 9.549 0 0 1-1.58-2.42c-.619-1.403.03-2.32 1.56-2.166.665.073 1.011.087.988-.705-.023-.792-.076-1.685.954-1.845a2.057 2.057 0 0 1 2.283 1.213c1.047 2.378 2.867 4.223 4.254 6.364 2.035 3.115 4.652 5.801 6.543 9.015 1.346 2.3 2.75 4.536 4.527 6.529.538.603.942 1.349 1.797 1.604.329-.409 0-.679-.183-.908-1.593-2.03-2.75-4.391-4.568-6.274-1.402-1.45-2.036-3.388-2.949-5.128-1.544-2.97-3.49-5.67-5.35-8.412-1.33-1.943-2.06-4.275-3.882-5.902a1.191 1.191 0 0 1-.154-1.604c.395-.58 1.06-.58 1.576-.34 1.227.58 2.35 1.274 3.073 2.52 2.69 4.642 5.389 9.254 8.189 13.816.581.966.762 2.074 1.416 2.997 2.972 4.188 5.888 8.411 8.866 12.603.855 1.2 2.245 1.902 3.07 3.167-.552-2.03-2.093-3.454-2.945-5.264-.831-1.764-2.192-3.168-3.108-4.87-2.097-3.899-4.159-7.818-6.398-11.635-2.035-3.498-4.286-6.886-6.47-10.305-.477-.746-.925-1.477-.965-2.382-.026-.551.029-1.079.581-1.386.553-.308 1.038-.145 1.518.124 1.233.694 1.614 2.01 2.254 3.127 2.931 5.105 5.842 10.219 8.782 15.321.7 1.215 1.454 2.41 1.905 3.742.692 1.99 1.855 3.675 3.108 5.354 1.088 1.45 1.832 3.17 2.789 4.734.622 1.012 1.355 1.958 2.154 3.098.472-1.129.059-1.889-.383-2.663-2.49-4.35-5.098-8.65-7.413-13.096-2.762-5.311-5.868-10.442-8.627-15.741a18.422 18.422 0 0 0-2.376-3.284c-.762-.9-.89-1.891-.817-2.976.035-.534.026-1.105.669-1.317.54-.18.921.148 1.288.479 1.18 1.064 1.852 2.465 2.53 3.852 1.954 4.023 4.44 7.738 6.237 11.8 1.425 3.222 3.199 6.247 5.063 9.24.782 1.265 1.553 2.544 2.346 3.809.361.58.64 1.262 1.56 1.37-.873-1.199-1.272-2.65-2.211-3.772a8.484 8.484 0 0 1-1.436-2.488c-1.702-4.432-4.115-8.537-6.421-12.638-1.879-3.339-3.504-6.834-5.487-10.112a7.481 7.481 0 0 1-.626-1.612c-.244-.775-.11-1.45.678-1.848.788-.397 1.422-.075 1.93.516.332.351.591.763.766 1.213 1.163 3.623 3.49 6.671 5.007 10.105 1.495 3.38 3.463 6.533 4.574 10.112.649 2.088 1.96 3.974 2.998 5.934a.854.854 0 0 0 .969.49c.482-.107.52-.519.54-.913a2.316 2.316 0 0 0-.369-1.523c-2.12-2.918-3.152-6.396-4.906-9.493-2.407-4.247-3.855-8.966-6.592-13.053-.686-1.024-1.03-2.283-1.477-3.455a1.487 1.487 0 0 1 .468-1.833c.704-.522 1.271-.04 1.806.398a4.274 4.274 0 0 1 1.428 2.149c.581 2.091 1.745 3.97 2.17 6.126.162.81.761 1.546 1.22 2.28 1.73 2.744 2.65 5.902 4.458 8.603.36.536.567 1.206 1.192 1.592.492-.618.32-1.206 0-1.668-2.177-3.257-3.082-7.071-4.713-10.552-1.57-3.359-2.39-7.045-4.53-10.152-.498-.725-.478-1.618.305-2.219.738-.58 1.454-.246 2.122.255 1.038.79 1.405 1.926 1.67 3.127a11.63 11.63 0 0 0 1.006 3.049c.511-1.532.974-3.08 1.55-4.589.72-1.888 1.343-3.826 2.503-5.511.318-.488.73-.908 1.213-1.236 1.276-.838 2.547-.455 2.977.995.466 1.57.791 3.19 1.184 4.769.605 2.454 1.716 4.676 3.178 7.06a5.406 5.406 0 0 0 .064-3.568c-.747-2.347-1.599-4.655-2.381-6.993a6.203 6.203 0 0 1-.291-1.555c-.04-.624-.073-1.331.704-1.572.715-.223 1.489-.24 2.053.325.64.647 1.224 1.343 1.34 2.338.343 2.923.75 5.841 1.111 8.765.19 1.546.992 3.046.2 4.67-.22.456 1.568 3.069 2.062 3.19.76.195.629-.4.6-.791-.216-3.002-1.091-5.868-1.763-8.783-.637-2.758-1.625-5.424-2.035-8.238-.125-.844.119-1.45.93-1.72.812-.27 1.376.11 1.771.853.476.898.756 1.887.82 2.9.19 2.864.942 5.599 1.669 8.357.547 2.077 1.163 4.194.96 6.381-.122 1.314.291 2.506.698 3.664.823 2.419 2.14 4.64 2.733 7.185.521-1.082.111-2.016-.206-2.936-.239-.69-.55-1.375-.532-2.094.078-3.046-1.274-5.801-1.786-8.702a11.138 11.138 0 0 1-.291-1.99c.018-2.775-.619-5.418-1.436-8.06a14.505 14.505 0 0 1-.538-5.442c.064-.792.424-1.592 1.381-1.595.957-.003 1.364.786 1.393 1.58.125 3.43 1.195 6.716 1.344 10.17.127 2.959 1.18 5.85 1.637 8.815.206 1.337.16 2.703.523 4.015.125.455.14.968.701 1.34a4.92 4.92 0 0 0 .137-3.229c-1.225-4.037-.896-8.246-1.768-12.313-.582-2.761-.533-5.662-.725-8.501-.049-.737.233-1.372 1.111-1.407.878-.035 1.355.473 1.454 1.296.402 3.063.707 6.14 1.184 9.192.503 3.191.134 6.553 1.015 9.613.791 2.74-.186 5.45.677 8.104 1.14 3.498.323 7.315 1.646 10.813.212.563.131 1.242.145 1.868.03 1.25.524 2.32 1.164 3.368.721-.354.555-.949.555-1.43 0-2.03.07-4.06-.477-6.048-.64-2.34-.267-4.783-.509-7.181-.291-2.823-.387-5.686-.776-8.496-.896-6.454-.407-13.01-1.582-19.434a4.478 4.478 0 0 1 .073-1.726c.11-.545.244-1.059.942-1.09a1.252 1.252 0 0 1 1.361.87c.308.907.747 1.783.683 2.793-.337 5.467.625 10.886.689 16.347.032 2.707-.096 5.512.649 8.209a6.165 6.165 0 0 1-.154 3.585c-.364 1.07-.094 2.106.058 3.15.04.276.116.635.477.62.36-.014.383-.405.421-.67.172-1.238.25-2.482.34-3.73.251-3.448-.753-6.772-.785-10.198-.026-2.94.088-5.876.082-8.815 0-3.527-.928-6.999-.62-10.543.028-.674.099-1.345.213-2.01.183-.827.671-1.468 1.625-1.294.954.174 1.349.908 1.224 1.839a50.424 50.424 0 0 0-.468 5.624c-.061 3.574.39 7.133.349 10.706-.02 1.863-.48 3.733.198 5.712.759-.694 1.018-1.573 1.163-2.437.249-1.231.369-2.485.358-3.742-.221-5.22.645-10.407.322-15.628-.049-.798-.334-2.103.806-2.16 1.14-.059 1.076 1.255 1.195 2.128.07.513 0 1.047.105 1.58a21.215 21.215 0 0 1 1.163-3.54c.582-1.352 1.608-1.976 3.1-1.93 1.006.032 1.637.453 1.96 1.398.366 1.068.767 2.124 1.227 3.385.488-.884.154-1.496.052-2.14-.136-.844-.247-1.77.599-2.376a1.407 1.407 0 0 1 1.646 0 1.995 1.995 0 0 1 .838 2.303c-1.286 4.717-.239 9.372.29 14.045.248 2.204.326 4.426.582 6.63.067.58.041 1.663.872 1.576.681-.073.64-1.085.643-1.74.027-4.388.037-8.776.029-13.164 0-1.833.111-3.666-.16-5.51-.154-1.045.454-1.866 1.471-1.979 1.018-.113 1.565.696 1.588 1.677.044 1.83.21 3.678-.328 5.476-.326 1.088-.239 2.204-.236 3.313 0 4.243.352 8.521-.064 12.724-.448 4.517.872 8.91.393 13.38a1 1 0 0 0 .064.427c.026.075.125.125.253.24a2.295 2.295 0 0 0 .427-1.74c-.538-5.122.177-10.221.218-15.335 0-1.108-.116-2.213-.154-3.321-.166-5.03.762-10.013.646-15.045-.035-1.506.837-2.512 1.744-2.4 1.059.131 1.847 1.469 1.632 2.852-.803 5.117-.582 10.265-.637 15.417-.032 3.066-.352 6.146-.686 9.218-.277 2.526-.812 5.244.5 8.003.658-.962.966-2.12.872-3.281-.18-2.976.448-5.839 1-8.737.442-2.32-.034-4.736.184-7.086.366-3.936-.143-7.93.788-11.825.433-1.81 1.25-2.808 2.125-2.425 1.355.58 1.164 1.83.992 3.005-.791 5.354-1.387 10.732-.913 16.092.346-.597.965-4.145 1.079-5.537a92.28 92.28 0 0 1 1.989-12.716c.238-1.073.924-1.796 2.079-1.526 1.242.29 1.224 1.346 1.038 2.35-.372 2-1.649 3.686-1.954 5.734-.654 4.35-2.094 8.603-1.777 13.093.055.795-.448 1.59.061 2.593.675-1.792 1.274-3.44 1.428-5.192a64.364 64.364 0 0 1 3.257-15.083c.267-.783.622-1.685 1.701-1.366 1.003.29.98 1.244.872 2.068-.267 1.83-1.209 3.466-1.657 5.221a75.408 75.408 0 0 0-2.036 11.205c-.363 3.687-1.509 7.168-2.425 10.712-.433 1.674-1.044 3.321-.747 5.105.055.33-.021.705.369.87.457.195.724-.133.983-.42a4.57 4.57 0 0 0 1.012-1.74c.814-2.693 1.085-5.471 1.524-8.233.747-4.704 1.561-9.403 2.55-14.07.581-2.683.959-5.401 1.779-8.03.317-1.017.986-1.652 2.065-1.229a1.524 1.524 0 0 1 .785 2.32c-2.559 3.618-1.934 7.977-2.986 11.936-.873 3.26-1.163 6.634-1.791 9.944-.291 1.543-1.472 2.868-1.164 4.568.073.389-.218.992.384 1.088.457.072.812-.383.963-.775.36-.94.791-1.897.898-2.88.404-3.634 1.524-7.159 1.597-10.842.026-1.419.735-2.695 1.084-4.061.759-2.941 1.419-5.914 2.597-8.734.127-.415.345-.797.637-1.12.34-.313.727-.501 1.189-.318a1.028 1.028 0 0 1 .663 1.032c-.029.336-.077.67-.145 1-.064.494-.483 1.115.195 1.413.677.3.872-.377 1.238-.748 1.646-1.717 3.725-2.9 5.592-4.328 1.05-.809 3.292-.232 4.028.68.82 1.017.672 2.717-.329 4.19-1.515 2.234-2.064 4.81-2.521 7.403-.084.484-.142 1.058.317 1.6 1.195-1.397 1.184-3.236 1.925-4.762.3-.711.677-1.387 1.125-2.016.495-.618 1.219-.893 1.937-.455s.66 1.253.317 1.821c-1.759 2.921-2.617 6.228-4.088 9.268-.413.85-.902 1.711-.358 2.863a11.02 11.02 0 0 0 2.094-3.121 21.77 21.77 0 0 1 2.401-4.105c.681-.87.908-2.108 1.396-3.153.364-.78.782-1.813 1.885-1.256.971.493.732 1.517.331 2.32-1.515 3.026-3.132 6-4.385 9.15-.259.652-.649 1.302-.381 2.207.896-.755 1.233-1.773 1.66-2.666 1.396-2.918 2.871-5.801 4.476-8.603.116-.21.246-.414.386-.61.582-.788 1.358-1.47 2.327-.945 1.047.58.442 1.48.131 2.295-.582 1.557-1.917 2.796-1.815 4.71.355-.52.718-1.036 1.064-1.56.291-.444.533-.929.873-1.338.581-.722 1.343-1.604 2.282-.87.873.7-.037 1.43-.427 2.12a55.337 55.337 0 0 0-3.222 7.04c.462.096.602-.075.672-.238 1.079-2.535 2.922-4.66 3.879-7.251.474-1.288 1.564-1.891 2.553-1.45.989.44 1.3 1.714.582 2.9-1.635 2.672-3.141 5.41-4.586 8.186-.782 1.5-1.661 2.94-2.51 4.4-.811 1.39-.959 3.063-1.762 4.513-.494.888-1.294 1.703-1.399 2.921.62.014.797-.444.951-.774 1.399-3.008 3.507-5.593 4.798-8.702 1.553-3.756 3.801-7.228 5.787-10.802.372-.667.919-1.415 1.812-1.16.892.255 1.244.937.782 1.807-.649 1.238-1.192 2.587-2.088 3.631-2.213 2.579-3.199 5.784-4.597 8.746-2.036 4.266-4.167 8.464-6.465 12.588-.29.54-.738 1.036-.753 1.703 0 .24 0 .507.291.594a.467.467 0 0 0 .582-.313c.785-2.378 2.393-4.27 3.701-6.343a201.611 201.611 0 0 0 3.952-6.538c.823-1.416 1.62-2.855 2.327-4.334 1.392-2.973 3.524-5.51 4.844-8.533.436-.998 1.373-1.03 2.228-.528.933.545.727 1.366.314 2.152-1.454 2.785-3.539 5.221-4.883 8.043-2.018 4.212-4.964 7.91-6.476 12.45.771-.85 1.815-1.581 2.257-2.576 1.192-2.683 3.199-4.824 4.638-7.327 1.567-2.712 3.489-5.221 4.891-8.032.387-.771 1.079-1.18 1.928-.855.849.325.535 1.035.384 1.633-.524 2.062-1.832 3.724-3.007 5.406-1.527 2.184-2.541 4.641-4.071 6.834-.602.87-1.192 1.74-1.794 2.61-.21.29-.582.668-.253 1.028.39.417.872.08 1.163-.195a12.88 12.88 0 0 0 1.437-1.621 959.985 959.985 0 0 0 7.31-9.688c.425-.58.582-1.334.997-1.923.53-.757 1.326-1.303 2.231-.752.904.552.622 1.384.256 2.196-.73 1.61-2.327 2.692-2.824 4.58a5.432 5.432 0 0 0 2.652-1.54 7.711 7.711 0 0 1 2.6-1.816c1.134-.507 2.361-1.027 3.373 0s.779 2.448.163 3.66c-.765 1.506-1.652 2.95-2.492 4.418-.721 1.256-1.422 2.518-2.382 3.632a3.675 3.675 0 0 0-.928 2.193c.809.058 1.196-.488 1.414-1.018 1.163-2.782 3.672-4.517 5.286-6.941.207-.31.53-.737.934-.485.541.337.101.792-.099 1.126a53.1 53.1 0 0 1-4.33 6.323 9.716 9.716 0 0 0-1.541 2.262c-.628 1.45-1.53 2.672-2.975 3.443-1.131.604-1.681 1.74-2.265 2.779a30.997 30.997 0 0 0-2.19 4.931c2.393-2.468 4.885-4.806 6.61-7.794.311-.54.622-1.14 1.09-1.523 2.42-1.99 3.853-4.667 5.307-7.338a4.596 4.596 0 0 1 1.698-1.74c.498-.29 1.001-.407 1.48 0a1.29 1.29 0 0 1 .387 1.45c-.07.282-.195.548-.366.783-2.617 3.19-4.423 6.938-7.049 10.05-2.091 2.478-4.106 4.992-6.008 7.606a6.889 6.889 0 0 0-.561.841.477.477 0 0 0-.088.347.477.477 0 0 0 .181.309c.244.156.445-.032.637-.186 3.434-2.744 6.287-6.013 8.988-9.465 1.87-2.387 4.071-4.513 6.171-6.723.427-.453 1.026-.87 1.684-.505.657.366.642 1.16.494 1.825a2.413 2.413 0 0 1-.524 1.16c-3.344 3.289-6.057 7.135-9.244 10.54-2.326 2.495-4.801 4.9-7.269 7.278a86.31 86.31 0 0 0-6.133 6.355c-2.036 2.413-4.58 4.296-6.642 6.671-.291.349-.791.58-.846 1.245 1.087-.267 1.794-.972 2.457-1.7 2.893-3.19 5.86-6.268 9.393-8.763 2.908-2.053 5.062-4.907 7.732-7.225 2.88-2.5 5.668-5.11 8.363-7.831 1.396-1.407 2.771-2.826 4.263-4.134.82-.72 1.762-1.125 2.559-.24.73.809.549 1.896-.291 2.593-3.626 3.008-6.397 6.923-10.018 9.861-3.018 2.44-5.766 5.117-8.584 7.745-.413.386-.747.87-1.268 1.45a1.942 1.942 0 0 0 1.783-.748c1.841-2.016 4.202-3.39 6.281-5.108 4.362-3.59 9.014-6.807 12.838-11.008.736-.809 1.576-1.238 2.501-.365.925.873.34 1.677-.291 2.509-1.928 2.564-4.809 3.991-7.104 6.091-3.108 2.843-6.868 4.859-9.767 7.927-1.984 2.1-4.461 3.522-6.828 5.097-1.038.69-2.117 1.325-2.699 2.5.346.29.62.09.832-.067 2.777-2.004 5.845-3.53 8.724-5.345 1.622-1.018 2.908-2.51 4.612-3.481 2.893-1.616 5.141-4.168 8.049-5.804a6.993 6.993 0 0 0 2.512-2.352c.669-1.027 1.605-1.799 2.574-2.53.776-.58 1.654-.554 2.5-.316.983.29 1.271 1.392.559 2.219-.504.52-1.055.994-1.646 1.413-.265.208-.622.316-.849.55-2.376 2.454-5.432 4.038-8.011 6.176-3.981 3.298-8.672 5.468-12.76 8.554-.512.388-1.478.73-1.088 1.45.39.72 1.454.53 2.111.226a41.861 41.861 0 0 0 5.011-2.593c1.145-.72 2.361-1.337 3.451-2.135 4.475-3.266 8.942-6.543 13.377-9.862.948-.713 1.802-.757 2.599 0 .939.9.085 1.64-.497 2.199-1.041 1.006-2.358 1.677-3.527 2.52-4.109 2.974-8.488 5.555-12.504 8.656-.788.61-1.792.946-2.71 1.378-.483.226-1.164.38-.94 1.044.224.664.844.29 1.274.171 2.379-.606 4.478-1.9 6.514-3.138 4.117-2.506 8.415-4.728 12.35-7.542a3.315 3.315 0 0 1 1.744-.632 1.458 1.458 0 0 1 1.434.812c.27.508-.038.914-.317 1.323-1.163 1.705-3.004 2.367-4.749 3.19a211.22 211.22 0 0 0-5.446 2.7c-.311.16-.803.384-.582.87.18.375.628.213.919.09 1.783-.733 3.571-1.45 5.322-2.262 1.23-.562 2.41-1.232 3.6-1.88.793-.431 1.593-.704 2.111.29.494.932.494 1.89-.378 2.65-.547.49-1.78.611-1.536 1.475.245.865 1.428.813 2.245 1.08 1.498.484 3.077.316 4.598.629 1.241.255 2.364.606 2.756 1.993.393 1.386-.538 2.158-1.471 2.874-3.103 2.41-6.592 4.148-10.274 5.54a3.738 3.738 0 0 0-.927.41c-.541.402-1.588.643-1.164 1.54.364.785 1.3.475 1.972.275a66.893 66.893 0 0 0 9.555-3.797 6.92 6.92 0 0 1 .783-.374c.654-.215 1.378-.464 1.791.342.413.806-.041 1.378-.724 1.801-4.237 2.611-8.744 4.569-13.702 5.343-1.291.203-2.536.659-3.862.665-.634 0-1.047.452-1.454.87-.619.6-1.178 1.276-1.986 1.74a13.401 13.401 0 0 0 4.903-1.096 14.625 14.625 0 0 1 3.312-1.06c3.149-.486 6.019-1.777 8.965-2.86a2.56 2.56 0 0 1 1.131-.164c.843.098 1.658.339 1.847 1.337.189.998-.329 1.615-1.216 1.868-2.975.844-5.958 1.67-8.956 2.436-3.734.955-7.581 1.451-11.236 2.738-3.656 1.288-7.485 1.349-11.309 1.407a18.65 18.65 0 0 0-8.468 2.263c-.366.191-.913.472-.747.934.165.461.791.307 1.163.191 4.423-1.375 9.064-1.517 13.586-2.32 2.445-.43 4.943-1.001 7.47-.827.672.046 1.515-.081 1.701.754.212.949-.718 1.276-1.343 1.413-2.036.452-3.946 1.261-6.194 1.16-3.074-.134-6.107.896-9.09 1.645-1.425.356-2.995.026-4.284 1.16 2.475-.148 4.944-.264 7.427-.45 4.929-.368 9.765-1.378 14.609-2.277 1.783-.33 3.629-.113 5.299-.58 2.655-.734 5.376-.917 8.034-1.482 1.506-.319 2.987-.789 4.528-.96.913-.102 1.849.023 2.303.87.497.928.055 1.845-.695 2.451-1.027.835-.939 1.279.291 1.688.916.29 1.488 1.007 1.334 1.993-.165 1.053-.991 1.552-1.992 1.581-2.035.061-4.071.322-6.086.264-3.559-.102-7.159.026-10.538.829-3.379.804-6.857.87-10.265 1.389-1.98.311-4.024.633-6.069.386-.264-.032-.581-.194-.77.134a.357.357 0 0 0 .106.266.372.372 0 0 0 .266.108c2.934.113 5.903.534 8.796.232 3.728-.386 7.43-1.195 11.184-1.21 3.984-.014 7.851-1.16 11.818-1.076.43 0 .872-.11 1.3-.124.872-.024 1.698.124 2.035 1.038.332.87 0 1.621-.68 2.204-.524.45-.832.766-.259 1.514.701.914.27 1.613-.832 1.915-.648.177-1.285.412-1.922.626-.34.116-.637.29-.581.711.034.345.351.438.625.528 1.654.539 3.315 1.059 4.969 1.601 1.227.403 2.763.615 3.022 2.12.258 1.506-.582 2.782-1.87 3.675-.396.273-.715.67-1.131.905-1.041.581-1.89 1.077-.416 2.216.66.511.291 1.245-.361 1.686a2.693 2.693 0 0 1-2.378.272 9.752 9.752 0 0 0-3.882-.388c-1.745.159-3.301-.743-5.005-.723-.291 0-.582-.119-.872-.087-.466.05-1.19.024-1.216.534-.035.627.716.528 1.146.54 3.164.092 6.188 1.05 9.305 1.467 2.327.314 2.934 1.546 1.675 3.542-.352.56-.224.94.099 1.45.922 1.424.198 2.878-1.506 3.089-.239.045-.485.04-.721-.014-2.388-.743-4.854-.789-7.32-.954-2.922-.195-5.56-1.596-8.418-2.161-1.948-.386-3.926-.482-5.877-.769-2.233-.325-4.458-.83-6.726-.951-.704-.038-1.413-.177-2.224.168.82.87 1.8 1.003 2.719 1.073 4.172.313 8.142 1.74 12.262 2.245 3.897.49 7.468 2.416 11.457 2.399.873 0 1.745.139 2.617.165a6.078 6.078 0 0 1 2.138.348c1.52.618 1.794 1.923.616 3.078a10.26 10.26 0 0 1-1.134.844c.047.502.474.484.747.621.873.429 1.745.925 1.329 2.062-.416 1.137-1.436 1.705-2.582 1.314-2.117-.722-4.388-.722-6.476-1.558-2.908-1.16-6.016-1.398-9.04-2.03-4.022-.841-8.061-1.633-12.068-2.515-2.396-.528-4.702-1.682-7.098-2.416-.358-.11-.692-.377-1.193-.108.608 1.256 1.806 1.668 2.966 2.008 1.85.545 3.781.87 5.618 1.383 4.141 1.161 8.387 1.825 12.522 3.063 3.716 1.114 7.508 2.15 11.341 2.939 1.037.246 2.044.604 3.004 1.067.756.336 1.163.902 1.006 1.723-.152.87-.873.977-1.568.946a27.091 27.091 0 0 1-7.232-1.309c-4.958-1.641-9.93-3.211-14.961-4.614a3.005 3.005 0 0 1-1.526-.798c-.559-.647-1.123-.87-1.882-.38-.343.22-1.061-.078-1.082.481-.023.636.611 1.114 1.14 1.161 1.69.127 3.077 1.247 4.714 1.383 3.016.25 5.668 1.578 8.398 2.657a23.332 23.332 0 0 0 5.845 1.506c2.12.261 4.17 1.16 6.229 1.815.753.244.939.917.872 1.659a1.676 1.676 0 0 1-1.282 1.575c-.521.145-1.164.247-1.565-.055-1.579-1.16-3.533-1.406-5.292-1.853-4.798-1.224-9.131-3.835-14.089-4.415-.872-.104-1.745-.478-2.908-.812 1.117 1.45 2.062 2.506 3.719 2.848 1.744.413 3.463.925 5.147 1.535.719.238 1.687.58 1.289 1.563-.364.905-1.263 1.291-2.289.981-.963-.29-1.908-.644-3.106-.479a3.862 3.862 0 0 0 2.239 1.804c4.49 1.54 8.724 3.64 12.999 5.697 1.547.745 1.744 1.613.715 2.985-.512.681-.465 1.212 0 1.812a7.56 7.56 0 0 0 3.146 2.272c.538.22 1.085.417 1.611.652 2.269 1.01 2.431 2.164.582 3.846-1.495 1.361-3.178 1.947-5.255 2.031-4.51.197-8.479-1.076-12.16-3.565-.873-.58-1.885-.989-2.841-1.45-.291-.145-.695-.334-.943-.023-.349.432.123.69.367.948 1.745 1.856 3.931 3.121 6.057 4.464.965.609 1.788 1.323 2.268 2.37a1.203 1.203 0 0 1-.099 1.366 1.27 1.27 0 0 1-1.454.36 5.024 5.024 0 0 1-2.509-1.66c-1.454-1.876-3.42-3.126-5.281-4.49-.872-.635-1.454-1.566-2.402-2.074-.512-.269-.974-.641-1.5-.87-.469-.211-1.132-.58-1.478-.124-.38.513.378.794.687 1.067a734.9 734.9 0 0 0 9.636 8.333c.771.653 1.257 1.216.477 2.144-.727.87-1.576.983-2.402.241-2.698-2.417-5.879-4.258-8.313-6.985a1.221 1.221 0 0 0-.314-.29c-3.088-1.543-5.816-3.585-8.401-5.856-.314-.29-.849-.473-1.163 0-.314.472.154.687.447.931 3.926 3.26 7.831 6.552 11.792 9.769 2.352 1.911 4.589 3.968 7.145 5.636 1.006.658.924 1.72.375 2.723-.55 1.004-1.21.769-2.184.508-1.943-.519-3.007-1.804-3.838-3.44a2.126 2.126 0 0 0-.873-.946c-2.864-1.531-4.812-4.156-7.336-6.105-4.735-3.658-9.163-7.69-14.104-11.112-3.408-2.362-6.089-5.648-9.491-8.067-.291-.206-.489-.632-1.219-.339 2.327 1.952 3.72 4.641 6.433 6.021a8.797 8.797 0 0 1 2.855 2.196 24.258 24.258 0 0 0 5.554 4.838 16.83 16.83 0 0 1 3.199 2.901 46.689 46.689 0 0 0 8.116 6.961c3.426 2.341 5.944 5.471 9.014 8.064.873.739 1.111 1.757.393 2.552-.788.87-1.745.313-2.367-.441-2.393-2.938-5.368-5.267-8.293-7.599-3.164-2.521-6.197-5.221-9.631-7.408a8.89 8.89 0 0 0-.873-.38c.803 1.16 1.71 1.595 2.466 2.19a77.716 77.716 0 0 1 8.462 7.904c1.393 1.476 3.353 2.277 4.711 3.843a13.61 13.61 0 0 1 1.66 2.355c.312.563.405 1.129-.104 1.59-.556.502-1.163.217-1.553-.212-3.173-3.399-7.27-5.772-10.314-9.319-.975-1.138-2.077-2.144-3.49-2.779-.994-.444-1.576-1.41-2.288-2.196-1.068-1.178-2.106-2.384-3.804-3.135.39 1.801 1.727 2.804 2.882 3.593 2.379 1.619 3.867 4.229 6.42 5.596.195.144.361.324.489.53.555.694 1.195 1.471.582 2.321-.582.783-1.486.461-2.286.235-.218-.061-.427-.255-.66-.041a.548.548 0 0 0 .291.621c2.835 1.949 4.612 4.908 6.979 7.298.7.705 1.413 1.299 2.361 1.604l-.018-.018c.099 3.156.099 3.156-3.396 1.451 1.986 2.738 2.262 5.96 3.681 8.727.384.746.553 1.654-.235 2.263s-1.666.467-2.475.029a52.874 52.874 0 0 1-2.995-1.778 1.887 1.887 0 0 0-2.166-.041c-1.257.728-2.353.58-3.283-.678a13.205 13.205 0 0 0-3.025-2.863c-.415.742 0 1.18.32 1.549.768.87.957 1.989 1.454 2.976.439.87-.07 1.621-.849 2.062-.779.441-1.305-.151-1.695-.696a13.547 13.547 0 0 1-1.035-1.891c-1.454-2.901-4.013-5.056-5.412-7.994-.538-1.129-.922-2.344-2.015-3.113-.291-.212-.582-.632-.998-.29-.348.29-.02.615.096.917.387 1.009 1.111 1.807 1.687 2.7 2.169 3.368 3.859 7.02 6.188 10.3 1.088 1.532 1.027 3.44 0 3.771-1.663.563-2.326-1.004-2.934-1.975-1.576-2.538-2.745-5.335-4.362-7.849-1.878-2.924-3.574-5.941-5.286-8.954a7.157 7.157 0 0 0-2.397-2.376c-.427.58-.142 1.044.105 1.485 1.454 2.547 2.533 5.328 4.923 7.252.222.187.368.449.41.736.332 3.585 2.774 6.17 4.342 9.166.491.94 1.029 1.865 1.43 2.843.268.652.201 1.383-.506 1.792-.706.409-1.163 0-1.628-.513a23.542 23.542 0 0 1-3.804-5.72c-1.163-2.445-2.326-4.983-4.108-7.112-.402-.479-.847-1.001-1.012-1.578-1.108-3.835-3.871-6.753-5.581-10.239-1.049-2.138-3.134-3.533-3.899-5.828a1.154 1.154 0 0 0-.358-.452c-.355-.31-.773-.902-1.198-.603-.558.394.163.803.291 1.212.788 2.321 2.908 3.681 4.15 5.711 1.337 2.179 2.524 4.438 3.85 6.619 1.326 2.182 2.428 4.583 3.632 6.872 1.957 3.716 3.757 7.507 5.766 11.193.695 1.279 1.381 2.611.622 4.102-.634 1.25-1.492 1.377-2.326.29-.788-1.018-1.666-1.996-1.719-3.432a4.56 4.56 0 0 0-.581-1.923c-2.14-3.933-3.92-8.049-6.369-11.84-1.715-2.654-2.922-5.642-4.591-8.356-.425-.691-.96-1.912-1.579-1.59-.791.412.038 1.45.343 2.132.756 1.659 2.012 3.086 2.254 4.983.058.185.17.349.322.47 2.298 2.268 3.275 5.352 4.99 7.953 1.454 2.202 1.885 4.804 3.49 6.918a10.618 10.618 0 0 1 2.224 5.291c.037.192.063.385.076.58-.029 1.474-3.626 3.605-4.943 2.918-.448-.235-.8-.505-1.204.122-1.021 1.581-1.722 1.604-2.908.194-.242-.29-.349-.826-.777-.774-.54.066-.453.664-.581 1.056a8.092 8.092 0 0 0-.134 3.881c.332 1.685.017 3.274-.34 4.873-.372 1.667-1.245 2.059-2.754 1.238-1.384-.754-2.326-2.03-3.402-3.13-.442-.446-.858-.919-1.294-1.372-.436-.452-.937-.615-1.553-.243-1.28.768-1.922.02-2.245-1.094-.509-1.763-.893-3.562-1.381-5.331a15.634 15.634 0 0 0-.832-2.152.607.607 0 0 0-.689-.418c-.384.11-.291.467-.224.737.512 2.401.995 4.812 1.585 7.193.224.902.439 1.778.317 2.701-.099.736-.463 1.305-1.259 1.377-.797.073-1.306-.388-1.536-1.081a14.943 14.943 0 0 1-.735-2.797 60.324 60.324 0 0 0-2.466-11.155c-.192-.58-.445-1.137-1.181-1.024-.872.136-.698.821-.541 1.366 1.006 3.481 1.033 7.164 2.376 10.587.582 1.514.518 3.228.614 4.864a2.945 2.945 0 0 1-.658 1.889 1.612 1.612 0 0 1-1.445.666 1.622 1.622 0 0 1-1.317-.893 3.395 3.395 0 0 1-.366-1.685c.101-2.869-.355-5.67-.841-8.487-.517-2.988-.704-6.033-1.352-8.992a5.315 5.315 0 0 0-.323-1.111c-.267-.58-.654-1.279-1.378-.957-.724.322-.018.905.061 1.363.581 3.481 1.21 6.936 1.768 10.411.323 2.001.558 4.014.805 6.024.125 1.007.23 2.031-.093 3.02-.218.678-.648 1.064-1.39 1.021-.683-.041-1.163-.467-1.18-1.079-.096-2.376-1.044-4.607-1.05-7.005 0-3.191-.965-6.268-1.204-9.433-.186-2.457-1.274-4.766-1.119-7.269a3.82 3.82 0 0 0-.806-2.442c-1.814-2.5-1.846-5.436-2.181-8.293-.203-1.74-.436-3.452-1.454-4.931-.264-.391-.459-.87-1.023-.966-.489.409-.067.772.055 1.143.683 1.975 1.556 3.933 1.41 6.129.001.484.1.962.291 1.407.625 1.694 1.059 3.367.692 5.221-.247 1.259.64 2.399.872 3.626.748 3.872 1.716 7.703 2.205 11.631.413 3.304.991 6.587 1.5 9.876.038.238.111.47.151.708.213 1.178-.067 2.321-1.27 2.576-1.204.255-1.588-.966-1.745-1.883-.41-2.227-.654-4.484-1-6.723-.78-5.036-.786-10.152-2.004-15.173-.707-2.918-1.381-6.001-1.489-9.096a6.368 6.368 0 0 0-.965-3.246c-.201 1.314-.582 2.338-.291 3.362.457 1.665.291 3.356.422 5.035a169.01 169.01 0 0 0 1.017 9.775c.771 5.723 2.234 11.356 2.149 17.186 0 .777.018 1.566-.514 2.21-.332.403-.643.937-1.236.911-.672-.029-.937-.6-1.163-1.143-.69-1.586-.719-3.286-.841-4.969-.046-.649.073-1.337-.413-2.065-.669.957-.482 1.865-.343 2.733.18 1.248.222 2.513.125 3.77-.052.908-.389 1.926-1.381 1.938-1.088 0-1.163-1.053-1.236-1.955-.291-3.211-.832-6.416-.922-9.633-.151-5.511-1.625-10.883-1.381-16.411.087-1.976-1.058-3.797-.785-5.845-.439 1.343-1.117 2.625-.814 4.061.799 3.802.29 7.707.994 11.527.524 2.871.253 5.801.654 8.742a28.053 28.053 0 0 1-.061 8.473c-.096.562-.29 1.032-.907 1.177-.616.145-.983-.275-1.282-.736-.431-.665-.759-1.387-.556-2.188.692-2.714.364-5.374.093-8.121a90.402 90.402 0 0 1-.54-9.952c0-.696.328-1.897-.626-1.912-.73 0-.506 1.196-.514 1.883-.035 2.587.256 5.169-.248 7.762a9.334 9.334 0 0 0 .219 4.177c.494 1.818-.291 3.533-.393 5.299-.041.751-.678 1.529-1.562 1.41-.814-.11-.619-.975-.633-1.575-.032-1.129 0-2.26 0-3.643-1.1.635-1.257 1.398-1.388 2.134a16.373 16.373 0 0 0-.354 3.455c.049 1.482-.803 2.611-1.745 3.53-1.381 1.349-3.443.661-3.998-1.189a60.2 60.2 0 0 1-1.553-6.773 2.587 2.587 0 0 0-.742-1.627c-.168 1.775-.046 3.327-.366 4.823-.111.517-.137 1.053-.268 1.564-.11.429-.325.853-.872.777-.497-.067-.727-.449-.82-.902a4.307 4.307 0 0 1-.079-.87c.015-4.29-.319-8.597.937-12.812.355-1.195-.463-2.32-.873-3.576-.203.786-.639 1.592-.567 2.352a42.856 42.856 0 0 1 0 6.779 69.996 69.996 0 0 1-1.096 8.667c-.11.58-.442 1.287-1.253 1.16-.692-.113-1.021-.719-1.163-1.349a5.557 5.557 0 0 1 .081-2.3c.582-2.982.643-6.045 1.114-8.992.68-4.275-.178-8.684 1.384-12.867.582-1.563-.224-3.086-1.262-4.545-.172 1.34-.404 2.674-.506 4.017-.468 6.091-.785 12.183-1.943 18.213-.29 1.552-.023 3.191-.66 4.711-.11.266-.139.58-.258.829-.384.847-.786 1.868-1.946 1.532-1.16-.337-.962-1.378-.872-2.321.203-2.178 1.32-4.125 1.57-6.303.076-.655.207-1.32.291-1.987.451-3.715.503-7.469 1.221-11.167.416-2.152.274-4.4.451-6.605.201-2.514.66-4.965 1.099-7.431.253-1.427.465-2.837-.11-4.484-.533 1.16-.911 2.158-.873 3.275a5.199 5.199 0 0 1-.305 2.137c-.192.47-.43.908-1.044.792-.614-.116-.742-.603-.698-1.108.175-2.03.378-4.035.582-6.05l.642-6.559c-1.047.792-.872 1.628-.994 2.341-.679 3.744-1.366 7.486-2.062 11.225-.805 4.299-2.082 8.502-2.533 12.885-.418 4.061-1.433 8.031-1.899 12.107-.247 2.152-1.619 4.182-2.544 6.242a.973.973 0 0 1-1.343.542c-.687-.333-1.35-.992-1.105-1.708 1.052-3.057-.152-6.431 1.672-9.442 1.375-2.271 1.509-5.093 1.901-7.698.439-2.915 1.091-5.784 1.731-8.644.735-3.292.927-6.671 1.942-9.914.433-1.38.765-2.796 1.111-4.206.096-.391.387-.806.026-1.244-.721.151-.715.783-.942 1.3-1.093 2.517-1.05 5.427-2.687 7.756-.122.21-.173.454-.145.696.311 3.547-1.326 6.755-1.818 10.169-.369 2.57-1.146 5.091-1.119 7.716 0 1.105-.399 2.082-.634 3.106a341.238 341.238 0 0 1-2.489 10.028c-.239.91-.823 1.697-1.818 1.902-.736.151-1.108-.469-1.454-1.006a1.571 1.571 0 0 1-.081-1.398c1.39-4.165 2.797-8.348 3.536-12.67.631-3.701 1.971-7.219 2.41-10.967.291-2.515.908-5.027 2.402-7.193.105-.151.242-.363.21-.517-.349-1.673.349-3.225.68-4.971-.709.209-.826.705-.927 1.114-.704 2.807-1.481 5.598-2.24 8.385-.703 2.593-1.672 5.14-2.134 7.785-.826 4.714-2.75 9.146-3.41 13.885-.234 1.677-1.097 3.191-1.205 4.902-.04.627-.555 1.117-1.02 1.549a1.476 1.476 0 0 1-1.745.229c-.582-.29-.617-.87-.532-1.392.174-1.091.322-2.248.689-3.231 1.236-3.31 1.454-6.915 3.044-10.103.541-1.09.152-2.297.582-3.402.651-1.659 1.454-3.318 1.745-5.05.66-3.838 2.3-7.431 2.698-11.681-1.163 1.659-1.945 3.191-2.035 4.899-.076 1.529-.471 2.939-.873 4.377-.948 3.281-1.785 6.593-3.198 9.72a7.63 7.63 0 0 0-.637 3.231c.02 1.712-.53 3.232-1.294 4.696-.669 1.282-1.51 2.477-1.812 3.934a1.767 1.767 0 0 1-.741 1.047c-.404.29-.847.519-1.347.264-.5-.256-.514-.734-.509-1.248 0-1.311.53-2.451 1.204-3.515a7.327 7.327 0 0 0 1.085-3.266c.032-.322.29-.725-.07-.928-.413-.232-.724.153-.986.423-1.311 1.355-2.657 2.683-3.893 4.102-1.3 1.49-2.46 3.103-3.749 4.606a7.925 7.925 0 0 0-1.413 2.166c-.404.99-1.236 1.596-2.128 2.106a1.928 1.928 0 0 1-2.19-.162c-1.114-.786-1.43-1.961-1.294-3.191.142-.955.396-1.891.756-2.787.806-2.231.7-4.664 1.745-7.023-.748.163-.791.685-.969 1.068-.665 1.45-1.227 2.953-2.515 4.017-.503.418-1.009.833-1.686.531-.678-.302-.603-1.03-.617-1.648a2.18 2.18 0 0 1 .425-1.511c2.718-3.173 3.94-7.167 5.96-10.732a38.083 38.083 0 0 0 1.455-2.825c.677-1.418.663-2.753.05-4.305-.582-1.432-.484-3.118-.725-4.684-.061-.406-.026-.989-.515-1.114-.599-.151-.817.447-1.02.847-2.207 4.351-5.482 8.003-8.195 12.02-1.183 1.74-2.11 3.666-3.536 5.265-.686.771-1.436 1.317-2.361.603-.997-.772-.683-1.856.03-2.553 3.25-3.19 5.3-7.231 7.976-10.824 2.407-3.235 4.728-6.576 6.545-10.205a4.99 4.99 0 0 0 .617-3.164c-1.137 1.354-2.254 2.32-2.908 3.544-1.192 2.228-2.888 4.09-4.173 6.248-2.443 4.104-5.923 7.452-8.584 11.411a13.126 13.126 0 0 1-2.036 2.254c-.764.705-1.7 1.018-2.617.232-.657-.58-.526-2.106.29-2.735a24.365 24.365 0 0 0 5.078-5.552c2.504-3.658 5.525-6.898 8.198-10.407 2.907-3.815 5.487-7.861 8.4-11.672 1.539-2.013 2.6-4.383 4.089-6.443.814-1.125 1.887-2.062 2.387-3.411.117-.31.332-.609-.064-1.116a35.968 35.968 0 0 0-3.129 3.869c-1.744 2.413-3.094 5.108-5.199 7.266-1.114 1.14-2.23 2.248-2.847 3.791-.477 1.195-1.61 1.923-2.541 2.75-2.742 2.439-4.161 5.926-6.813 8.432-1.547 1.45-3.24 2.851-4.342 4.658-1.564 2.558-3.696 4.574-5.697 6.729a5.27 5.27 0 0 1-.854.784c-.646.44-1.376.951-2.097.29a1.944 1.944 0 0 1-.448-2.39c.146-.306.342-.585.582-.824 4.205-4.128 7.985-8.65 11.812-13.102 1.957-2.277 3.623-4.841 5.632-7.13 4.251-4.805 8.2-9.869 11.824-15.161.802-1.181 1.745-2.271 2.687-3.672-1.277.322-1.858 1.189-2.472 1.911-1.454 1.703-2.908 3.353-4.778 4.621a1.657 1.657 0 0 0-.68.734c-.727 2.393-2.847 3.727-4.193 5.636-2.036 2.9-4.423 5.511-6.427 8.411-1.8 2.611-4.114 4.748-5.999 7.252-1.69 2.245-3.798 4.104-5.49 6.34-.925 1.222-2.07 2.283-3.155 3.38-.683.69-1.541.925-2.347.264-.805-.662-.27-1.399.053-2.1.756-1.642 2.239-2.672 3.475-3.85 3.003-2.865 5.975-5.827 8.383-9.134 2.632-3.614 6.107-6.564 8.122-10.668.712-1.45 2.195-2.422 3.367-3.573a.48.48 0 0 0 .21-.293.464.464 0 0 0-.061-.354c-.943.774-1.984 1.401-2.725 2.277-2.364 2.799-4.612 5.699-6.924 8.545a12.206 12.206 0 0 1-1.745 1.932c-3.111 2.477-5.007 5.969-7.56 8.916-1.617 1.871-3.292 3.652-5.272 5.134-.724.542-1.533.989-2.312.087-.721-.835-.18-1.526.355-2.181a15.037 15.037 0 0 1 2.99-2.712c1.453-1.036 2.163-2.796 3.509-4.006 1.18-1.062 2.184-2.32 3.257-3.501.29-.322.704-.757.357-1.128-.433-.467-.738.127-1.035.386-2.646 2.32-5.499 4.374-8.322 6.474-2.01 1.493-3.923 3.121-5.816 4.762-1.163 1.001-2.434.871-3.708.607-.97-.195-1.32-1.303-.695-2.393 1.629-2.846 2.548-6.057 4.563-8.702.262-.345.832-.847.378-1.25-.55-.485-.922.246-1.303.542-.8.621-1.518 1.358-2.346 1.935-.716.499-1.606.682-2.22-.128-.58-.748-.188-1.56.42-2.074 2.803-2.361 5.455-4.902 8.432-7.051.68-.49 1.326-.986 1.515-1.853.02-.096-.133-.328-.183-.322-.811.104-1.43.629-1.942 1.16a71.825 71.825 0 0 1-8.308 7.448 5.32 5.32 0 0 1-1.474.905c-.742.262-1.504.351-1.943-.408a1.836 1.836 0 0 1 .215-2.283.38.38 0 0 1 .108-.099c3.199-1.491 5.033-4.748 8.2-6.349 1.207-.609 2.199-1.723 3.147-2.741.692-.743 1.509-1.387 2.108-2.182 1.454-1.908 3.23-3.434 5.062-4.931.32-.261.8-.597.37-1.058-.364-.389-.873-.137-1.163.156a22.6 22.6 0 0 0-2.38 2.515c-2.293 2.901-5.37 4.853-8.319 6.909-2.948 2.057-5.746 4.435-8.944 6.187a3.045 3.045 0 0 1-1.192.488c-.797.069-1.454-.172-1.847-.871-.393-.699.137-1.221.544-1.664 1.096-1.193 2.562-1.924 3.928-2.704a30.003 30.003 0 0 0 3.757-2.428c2.527-1.995 5.293-3.634 7.756-5.766 2.35-2.03 4.487-4.391 7.208-6.016.605-.359 1.687-.763 1.236-1.601-.241-.449-1.163.29-1.73.618-5.03 2.84-9.145 6.929-13.874 10.166-2.654 1.819-5.234 3.815-8.273 5.056-.753.308-1.454.717-1.997-.232a1.623 1.623 0 0 1 .433-2.213c.776-.635 1.721-1.062 2.539-1.653 2.675-1.95 5.795-3.159 8.345-5.39 2.446-2.137 4.923-4.319 7.782-5.96.46-.217.825-.59 1.032-1.053-.581-.345-.936.026-1.303.275-4.4 2.979-8.674 6.144-13.26 8.844-1.54.908-3.222 1.535-4.73 2.521-.83.542-1.795.185-2.266-.653-.52-.928.334-1.45.98-1.804 4.484-2.474 8.724-5.34 12.987-8.151 4.594-3.019 9.235-5.972 13.833-8.991 1.744-1.14 3.355-2.457 5.234-3.356.334-.16.794-.369.648-.83-.145-.461-.654-.345-1.015-.322-1.587.105-2.739 1.108-3.972 1.958-3.8 2.611-7.36 5.581-11.358 7.913a1.179 1.179 0 0 1-.39.191c-3.033.412-4.842 2.799-7.107 4.429-1.192.871-2.553 1.367-3.78 2.141-2.207 1.392-4.12 3.191-6.397 4.476a5.028 5.028 0 0 0-.466.345c-.805.58-1.695.777-2.6.339a1.539 1.539 0 0 1-.872-1.694 2.32 2.32 0 0 1 1.774-1.917 11.059 11.059 0 0 0 3.728-1.862c3.024-2.306 6.479-3.936 9.657-6.002 3.62-2.352 7.194-4.78 10.78-7.184.264-.177.68-.374.47-.778-.209-.403-.58-.168-.912-.087-2.344.598-4.362 1.894-6.307 3.208-3.2 2.15-6.133 4.76-9.564 6.486-2.981 1.5-5.962 2.967-8.8 4.725-.475.243-.979.423-1.5.537-.963.29-1.777.066-2.158-.911-.38-.978.25-1.662 1.058-1.929 2.056-.682 3.755-1.996 5.645-2.964a1.72 1.72 0 0 0 .997-1.016 1016.682 1016.682 0 0 0-5.653 2.794c-.477.238-.907.58-1.399.771-.805.314-1.602.137-2.058-.58-.457-.716-.087-1.395.532-1.903.29-.24.616-.449 1.273-.928-1.78-.168-3.218-.322-4.652-.435-1.26-.101-2.527-.165-3.588-.969-1.274-.96-1.233-1.914.148-2.665 1.186-.647 2.379-1.288 3.78-1.433.5-.052 1.184-.241 1.187-.87.003-.63-.678-.58-1.129-.679-.698-.142-1.384-.31-1.454-1.16-.064-.923.582-1.451 1.338-1.688 1.425-.465 2.882-.83 4.33-1.225.232-.063.488-.04.718-.11.675-.203 1.535-.649 1.314-1.279-.29-.838-1.163-.307-1.744-.043a22.597 22.597 0 0 1-6.325 1.931c-.872.122-1.899 0-1.963-1.16-.064-1.137.75-1.801 1.789-1.935 3.434-.44 6.516-2.178 9.95-2.61.451-.055 1.146-.218.96-.827-.204-.664-.893-.377-1.387-.261a2595.9 2595.9 0 0 0-10.832 2.611 2.232 2.232 0 0 1-2.036-.476c-.517-.418-.601-.96-.537-1.563.072-.673.503-1.016 1.11-1.184a49.012 49.012 0 0 1 6.82-1.267c3.451-.444 6.87-1.094 10.148-2.321.404-.154 1.03-.29.968-.734-.093-.647-.808-.446-1.21-.374-2.422.438-4.856.87-7.243 1.45-2.256.581-4.501 1.161-6.825 1.372-.48.047-.968.038-1.454.05-1.163.026-1.945-.528-1.96-1.665-.017-1.221 1.117-1.561 1.978-1.407 1.608.29 3.059-.345 4.591-.426.34-.003.676-.08.983-.227 2.417-1.348 5.08-1.395 7.735-1.546.69-.037 1.972-.055 1.864-.606-.174-.89-1.317-.516-1.969-.29-2.954 1.044-6.077.29-9.058.943-1.881.409-3.658 1.267-5.655 1.16-1.181-.055-2.161-.29-2.29-1.662-.127-1.372.827-1.784 1.897-1.926 1.625-.25 3.264-.4 4.908-.447 3.743-.032 7.418-.707 11.126-1.015 3.708-.307 7.27-1.16 10.937-1.45 2.035-.154 4.07-.795 6.08-1.294.699-.193 1.416-.31 2.14-.348a3.598 3.598 0 0 0 2.242-.87c-.855-.435-1.538 0-2.216 0-3.26.052-6.397.87-9.596 1.369-3.57.58-7.185.87-10.785 1.256-3.92.421-7.921.11-11.675 1.836-1.864.87-4.007.516-6.04.435-.628-.026-1.131-.316-1.28-.98-.18-.804-.075-1.558.629-2.095a2.786 2.786 0 0 1 2.326-.548 6.547 6.547 0 0 0 3.705-.313c2.07-.769 4.292-.673 6.44-.922 5.034-.58 10.056-1.282 15.122-1.567 2.617-.145 5.173-.899 7.732-1.618-1.858.116-3.717.267-5.575.345-6.002.261-11.922 1.355-17.895 1.74-2.852.18-5.778.409-8.677.232-1.838-.11-2.946-.71-2.94-1.74 0-1.094 1.495-1.906 3.245-1.7 6.127.72 12.144-.539 18.207-.971.075 0 .148-.099.29-.212-4.292 0-8.56-.444-12.68.154-2.804.406-5.369-.36-8.047-.241a1.254 1.254 0 0 1-.954-.305 1.231 1.231 0 0 1-.419-.908c-.066-.789.457-1.079 1.103-1.302.744-.258 1.53-.47 2.282-.273 3.679.955 7.314-.243 10.975-.185 1.05.017 2.096-.137 3.17 0 3.044.42 6.013-.198 8.99-.665v-.394h-3.076c-3.83.049-7.65.041-11.379-1.073-.921-.276-1.925-.137-2.884.075-2.245.496-4.525.444-6.802.432-1.146 0-1.881-.464-1.814-1.723.066-1.258.997-1.598 1.942-1.421 3.396.632 6.764-.139 10.143-.058 2.128.049 4.237.473 6.374.29.503-.04 1.041.084 1.815-.417-2.176-.563-4.054-1.091-5.953-1.515-.695-.153-1.204.581-1.876.691-3.916.58-7.804.774-11.582-.789-.994-.412-1.788-.85-1.212-2.123.29-.615-.175-.76-.617-.871-1.218-.313-2.425-.719-3.693-.757-1.268-.037-1.89-.745-2.108-1.824-.21-1.033.651-1.404 1.404-1.761 3.49-1.653 7.2-2.758 10.856-3.997.398-.136 1.055-.113 1.032-.6-.03-.633-.718-.502-1.163-.522-1.498-.067-3.001 0-4.49-.29-.631-.125-1.227-.29-1.704-.734-.366-.348-.64-.737-.503-1.276a1.132 1.132 0 0 1 1.186-.871c2.327.021 4.636-.29 6.941.311 1.554.378 3.15.553 4.75.519 1.02 0 2.052-.029 3.02.319 1.303.467 2.48-.078 3.696-.334.291-.058.628-.118.614-.484-.015-.365-.39-.406-.66-.447-1.867-.29-3.737-.522-5.604-.797-2.477-.366-5.036-.192-7.427-1.161-.872-.348-1.983-.539-1.689-1.74.294-1.201 1.37-1.218 2.376-.87 3.306 1.105 6.798.89 10.177 1.41 2.475.377 4.973.632 7.442 1.084 1.525.245 3.083.201 4.591-.13-1.817-.482-3.245-1.926-5.406-1.526-2.6.485-5.17-.452-7.743-.774a72.355 72.355 0 0 1-10.949-2.202c-.636-.183-1.343-.127-2.02-.174a2.162 2.162 0 0 1-1.995-1.45c-.37-.96-.088-1.665 1.04-1.706 1.208-.089 2.422.029 3.59.348a61.477 61.477 0 0 0 13.5 2.562c2.13.113 4.196.763 6.005 1.888a.624.624 0 0 0 .67.113c1.709-.94 3.398-.218 5.082.067 1.573.267 3.132.629 4.702.934.33.077.67.099 1.006.066.515-.075 1.236-.127 1.268-.725.032-.597-.707-.58-1.137-.673-1.663-.304-3.335-.609-5.019-.762a44.976 44.976 0 0 1-5.283-.894c-6-1.285-12.022-2.457-18.03-3.727-2.122-.45-4.213-1.053-6.315-1.593-.873-.223-1.082-.87-1.059-1.667.026-.871.582-1.134 1.346-1.178 2.094-.116 3.967.774 5.935 1.241 4.42 1.048 8.82 2.161 13.327 2.843 3.237.49 6.398 1.395 9.61 2.12.661.148 1.312.409 1.978.444 3.339.183 6.601.87 9.887 1.363.928.143 1.887.27 2.838-.194-1.561-.133-3.027-.763-4.58-.806a15.97 15.97 0 0 1-4.681-.931c-3.717-1.256-7.622-1.689-11.423-2.588-1.596-.377-3.16-.87-4.754-1.27-3.841-.94-7.691-1.851-11.539-2.77-1.596-.383-3.198-.751-4.795-1.131a2.248 2.248 0 0 1-.686-.227c-.805-.516-1.556-1.102-1.093-2.221.445-1.074 1.27-1.16 2.285-.836 4.822 1.57 9.835 2.402 14.717 3.748.076.02.178-.047.384-.111-.756-.87-1.823-1.084-2.754-1.45-2.617-1.018-5.35-1.665-7.956-2.74-1.253-.517-2.725-.56-4.007-1.161-.346-.16-.762-.273-1.003-.537-.462-.499-.872-1.102-.433-1.824.404-.676 1.012-.844 1.744-.58 4.034 1.465 8.218 2.486 12.196 4.121.7.29 1.544.241 2.242.537 6.124 2.587 12.708 3.539 19.047 5.357a3.14 3.14 0 0 0 2.236-.052c-.739-.893-1.727-.844-2.635-.928a3.615 3.615 0 0 1-2.715-1.45.944.944 0 0 1 .273-1.477.892.892 0 0 1 .567-.07c.8.079 1.608.236 2.434-.217a28.297 28.297 0 0 0-10.946-3.185l.02.02Zm118.913 85.857c1.021 0 1.824-.488 2.652-1.03 2.577-1.688 4.944-3.675 7.785-4.992 1.846-.87 2.989-2.665 4.33-4.168-.96.128-1.687.58-2.414 1.056a23.843 23.843 0 0 1-3.353 2.001c-.692.308-1.73.499-2.154-.499-.399-.937.381-1.421 1.084-1.766a20.278 20.278 0 0 0 4.699-3.072c.582-.516 1.103-1.119 1.745-1.505 2.766-1.636 4.787-4.165 7.415-6.002 2.742-1.917 4.528-4.803 5.999-7.846.695-1.435 1.219-2.935 1.908-4.35.291-.615.817-1.193 1.611-.914.727.255.692.989.663 1.615a2.805 2.805 0 0 1-.273 1.109c-1.745 3.39-4.124 6.381-5.927 9.743-1.224 2.288-3.399 3.93-5.234 5.801-.616.629-1.215 1.566-.494 2.123.782.606 1.163-.618 1.689-1.088.227-.206.291-.58.419-.908.198-.519.518-1.012 1.003-1.195 1.204-.452 1.972-1.363 2.742-2.294.492-.595 1.088-.911 1.745-.36s.977.142 1.384-.339c1.664-1.975 2.87-4.232 4.042-6.506.137-.264.425-.563.09-.899-.096.04-.209.052-.264.116-.439.496-.623 1.581-1.579 1.018-.957-.563-.314-1.346 0-2.031a68.983 68.983 0 0 0 2.739-7.01c.712-2.298.832-4.751 1.983-6.936.62-1.16.622-2.491.625-3.814a45.01 45.01 0 0 1 .343-4.908c.102-.893.454-1.862 1.611-1.589.963.229 1.018-.316 1.036-.87.081-2.544.738-5.07.197-7.632a16.236 16.236 0 0 1-.29-3.892c.081-2.553-.719-4.954-1.315-7.385-.104-.427-.227-.946-.962-1.192.235 1.76.427 3.419.689 5.064.161 1.153.19 2.321.087 3.481-.026.4-.189.783-.677.797-.408 0-.582-.29-.684-.641-.215-.841-.381-1.696-.616-2.535-1.044-3.715-1.114-7.646-2.516-11.286-.255-.661-.604-1.378-.023-2.053.666-.775 1.236.098 2.018.353-.73-2.74-2.274-4.835-3.268-7.173-.873-2.065-2.495-3.649-3.679-5.51-1-1.584-1.881-3.278-3.036-4.734-2.873-3.623-5.731-7.252-9.712-9.862-4.196-2.765-7.645-6.623-12.693-8.14-3.181-.954-5.816-3.298-9.171-3.89-2.135-.376-4.261-.75-6.308-1.522-2.471-.931-5.147-.122-7.627-.647-5.028-1.067-9.913.032-14.83.528-1.922.194-3.926.29-5.72.92-4.865 1.705-9.861 3.054-14.42 5.618-3.888 2.184-7.47 4.797-11.147 7.275-2.651 1.786-4.652 4.35-6.778 6.697-2.41 2.674-4.652 5.511-6.435 8.702-1.782 3.19-3.748 6.329-5.054 9.827-1.98 5.299-3.841 10.544-4.251 16.298-.335 4.691-.436 9.381-.567 14.068-.108 3.867 1.087 7.614 1.82 11.391.55 2.836 1.85 5.47 2.815 8.194 1.896 5.346 5.161 9.914 8.116 14.642 1.303 2.083 3.49 3.588 4.96 5.592 3.2 4.351 7.503 7.524 11.923 10.245 4.42 2.721 8.881 5.369 14.013 6.857 5.014 1.45 9.902 3.191 15.174 3.542 6.153.4 12.277.525 18.319-.937 1.265-.305 2.673-.273 3.813-.815 2.841-1.352 5.999-1.767 8.814-3.156 1.858-.917 4.385-.87 4.943-3.597.093-.449.718-.606 1.14-.844 1.204-.676 2.48-1.244 3.446-2.297-2.516.853-4.589 2.552-6.979 3.643-1.885.87-3.621 2.068-5.737 2.347-.762.101-1.667.333-1.966-.67-.3-1.004.459-1.297 1.221-1.648 1.125-.519 2.492-.58 3.327-1.665l-.024-.049Zm18.756 51.795c.291-1.267-.325-1.992-.657-2.749-.904-2.08-1.814-4.218-3.242-5.961-2.449-2.991-5.47-5.436-7.392-8.96-1.338-2.46-1.689-4.861-1.454-7.44.308-3.594.198-7.057-1.864-10.19-.689-1.047-1.454-2.03-2.12-3.109-1.087-1.769-3.021-2.445-4.923-1.508-1.64.806-3.373 1.366-5.057 2.056-.514.209-.631.458-.261.833 1.084 1.105 1.872 2.448 3.006 3.524 2.673 2.538 4.071 5.801 4.915 9.302.544 2.289.581 4.722 1.314 6.935 1.312 3.939 3.911 6.782 7.886 8.464 2.394 1.012 4.871 1.987 6.689 4.157 1.151 1.377 1.881 2.996 3.163 4.646h-.003ZM19.966 79.902l-.07.426c.805.29 1.602.804 2.413.821 3.283.073 6.497.838 9.814.702 3.318-.136 6.767-.067 9.887 1.592.517.27 1.072.46 1.646.56 2.908.52 5.234 2.237 7.505 3.925 2.434 1.813 4.976 3.19 7.945 3.953 1.823.467 3.678.093 5.458.62 1.367.407 2.652-.185 3.15-1.516.288-.657.632-1.288 1.026-1.888.538-.934 1.367-1.996.581-3.075-.913-1.239-2.061-2.213-3.736-2.535-2.472-.476-4.854.476-7.349.13-3.387-.467-6.62-1.16-9.697-2.717-4.141-2.095-8.45-3.481-13.231-2.643-2.47.43-4.987.47-7.436 1.16a19.13 19.13 0 0 1-7.906.485ZM210.79 128.79c2.561.07 4.69.128 6.813.197 2.498.081 5.004.841 7.502.14a9.25 9.25 0 0 1 4.039-.221c4.222.69 8.468.812 12.731.783.774 0 1.544.081 2.326.07a.581.581 0 0 0 .628-.499c.021-.29-.261-.38-.479-.467a13.916 13.916 0 0 0-2.391-.58c-2.931-.609-5.935-.78-8.845-1.52-4.406-1.117-8.777-2.399-13.284-3.086-4.507-.688-9.145-.847-13.507-2.396-2.553-.908-5.321-.821-7.851-1.781-.748-.29-1.201.183-1.12.87.311 2.584.343 5.175.422 7.768.029.969.43 1.322 1.372.719.547-.348 1.219-.226 1.841-.29 3.411-.389 6.802.757 9.803.293Zm-4.429 81.579c-.119-.58-.521-.931-.934-1.271-1.419-1.16-2.858-2.297-4.265-3.48-4.415-3.681-7.541-8.519-11.405-12.696-2.123-2.292-4.231-4.606-6.261-6.991-1.788-2.102-3.78-4.118-5.551-6.253-1.37-1.645-3.091-1.694-4.845-.18-1.419 1.224-2.311 2.982-4.111 3.829-1.341.629-1.358 1.189-.131 2.03 3.719 2.506 7.485 4.946 11.183 7.481 1.164.789 2.446 1.293 3.58 2.164 2.981 2.297 6.028 4.519 9.224 6.529l5.621 3.536c1.782 1.125 3.364 2.564 5.025 3.878.68.536 1.305 1.142 2.003 1.656.282.209.73.397.867-.232Zm27.985-125.72c-2.306-.395-4.678-.371-6.746.38-2.48.902-4.804 2.03-7.537 2.126-1.983.073-3.958.29-5.929-.035-2.809-.467-5.604-1.285-8.433-1.38-4.339-.145-8.756.037-12.606 2.465-3.591 2.263-4.496 2.973-2.367 6.628.049.084.105.162.148.25 1.454 2.845 1.393 2.729 4.17 1.197 2.556-1.412 4.944-3.15 7.974-3.692a24.002 24.002 0 0 1 7.804-.218c5.508.836 9.948-1.74 14.54-3.927 1.559-.746 2.934-1.845 4.629-2.367 1.454-.444 3.007-.58 4.353-1.424v-.003Zm-32.804-38.302-.29-.308c-.229.04-.454.102-.672.183-3.373 1.622-6.206 4.061-9.137 6.309-2.099 1.598-4.28 3.124-6.397 4.705-3.112 2.32-6.223 4.707-9.518 6.819-1.329.853-2.788 1.558-3.969 2.642-1.181 1.085-1.361 2.156-.291 3.087a59.016 59.016 0 0 1 4.572 4.394c.953 1.032 1.779.934 2.684-.142 1.209-1.45 2.442-2.875 3.565-4.386 2.035-2.761 4.612-5.07 6.708-7.788 2.859-3.707 5.88-7.283 8.927-10.834 1.321-1.531 2.551-3.12 3.818-4.681ZM63.793 151.929c0-.885-.383-1.561-.764-2.233-1.056-1.871-1.672-3.896-2.138-5.979-.189-.852.053-2.047-1.078-2.32-1.196-.29-1.745.806-2.382 1.578a4.781 4.781 0 0 0-.52.87c-2.53 4.946-6.296 8.597-11.65 10.227a29.532 29.532 0 0 0-12.998 8.076c-3.164 3.318-5.656 7.187-8.607 10.683-.23.272-.631.67-.204.989.381.29.675-.186.974-.409 1.102-.818 1.853-1.961 2.725-2.988 2.291-2.703 5.298-4.615 7.851-7.045 1.71-1.628 3.661-3.281 5.935-4.113 4.194-1.535 8.349-3.29 12.984-3.238 3.088.035 5.996-.902 8.724-2.355.75-.397 1.241-.913 1.148-1.743Zm20.31 82.153c.182-.226.316-.406.462-.58 1.18-1.352 1.177-3.24 2.154-4.705.631-.948 1.437-1.894 1.469-3.103.058-2.121.384-4.334-.085-6.35-.718-3.08-.23-5.917.565-8.829a16.666 16.666 0 0 1 4.847-8.061 13.806 13.806 0 0 0 3.114-4.113c1.07-2.199 1.114-4.58 1.66-6.86.44-1.827-.383-2.88-2.102-3.666-.828-.38-1.744-.551-2.489-1.16-.648-.525-1.11-.125-1.285.531a6.258 6.258 0 0 0-.125 1.58c0 3.124-1.096 5.952-2.451 8.682-1.356 2.729-3.406 5.047-4.633 7.831-.63 1.451-1.698 2.73-1.637 4.424.14 3.971 1.012 7.831 1.925 11.666.457 1.92.873 3.744.326 5.67-.51 1.755-.721 3.597-1.567 5.262-.245.49-.524 1.05-.149 1.781Zm149.485-53.487c.428.044.794.172.896-.197.134-.484-.311-.693-.64-.835-3.105-1.334-6.106-3.011-9.444-3.652-4.191-.806-7.895-2.03-11.173-5.163-3.76-3.611-7.362-7.37-11.05-11.037-2.134-2.117-4.51-3.817-7.421-4.603-2.172-.58-3.39.145-4.181 2.196-.521 1.351-1.047 2.689-1.986 3.828-.291.354-.672.792-.34 1.3.276.423.79.351 1.203.29 2.298-.29 4.403.542 6.511 1.195 4.586 1.421 8.288 4.403 11.763 7.489 3.475 3.087 7.45 4.517 11.852 5.221 4.295.702 8.579 1.427 12.504 3.435.487.217.991.396 1.506.533Zm-107.315 59.546c-.556-2.865-.059-5.751-.216-8.632-.381-6.921.463-13.862-.549-20.788-.596-4.093-.236-8.267-.343-12.403-.05-1.955-.501-2.587-2.394-2.732-1.637-.125-3.288-.053-4.943-.061-.907 0-1.277.58-1.07 1.328.683 2.515.957 5.12 1.66 7.614a89.074 89.074 0 0 1 1.745 7.269c.582 2.964.689 6.022 1.352 8.963 1.108 4.931 1.707 9.975 3.522 14.72.587 1.546-.047 3.327 1.236 4.722Zm24.321-181.544c1.111-.11 1.818-.447 2.303-1.424.986-1.987 1.626-4.134 2.815-6.025 1.25-1.99 2.036-4.246 3.815-5.934a13.687 13.687 0 0 0 4.269-8.174c.415-2.672.621-5.372.616-8.075-.072-4.841 1.015-9.363 3.612-13.488.259-.412.605-.914.061-1.273-.599-.398-.983.101-1.259.58-.529.92-1 1.873-1.55 2.781a17.37 17.37 0 0 0-2.617 8.441 146.51 146.51 0 0 1-.326 5.778 9.382 9.382 0 0 1-2.204 5.558 38.688 38.688 0 0 1-5.409 5.22c-1.765 1.39-3.78 2.53-5.053 4.485-1.661 2.558-2.397 5.662-4.714 7.849-.468.444-.823 1.294.029 1.74 1.809.94 3.795 1.413 5.612 1.961ZM18.576 123.898c1.744 0 3.3.554 4.803.194 2.516-.603 5.028-.618 7.596-.716 6.426-.247 12.85-.612 19.285-.705 2.222-.032 4.443-.183 6.665-.258.965-.035 1.454-.459 1.652-1.451.41-2.027.613-4.092.605-6.16 0-2.031-.21-2.263-2.216-1.691-1.905.545-3.734 1.38-5.706 1.667-5.001.728-9.712 2.553-14.54 3.905-5.21 1.45-10.293 3.361-15.702 4.118-.794.125-1.628.264-2.445 1.105l.003-.008ZM124.132 14.041c-.317 3.19-1.454 5.952-1.803 8.87-.645 5.592-1.471 11.144-2.576 16.676-.933 4.672-2.344 9.25-2.876 14.006-.134 1.198.169 1.767 1.367 1.805 1.66.049 3.257-.32 4.871-.659 1.613-.34 2.035-1.218 2.076-2.758.102-4.255-.524-8.49-.291-12.737.154-2.996-.625-5.96-.183-8.957.294-2.01.301-4.052.023-6.065-.369-2.694-.526-5.369 0-8.058.113-.64.27-1.334-.619-2.114l.011-.009ZM49.085 42.467c-.04.681.436.908.768 1.227 2.649 2.555 5.9 4.35 8.52 6.961 2.986 3.011 6.072 5.912 9.052 8.922 4.071 4.105 8.364 7.992 12.434 12.102.48.484.99.951 1.78.58A13.744 13.744 0 0 0 86.045 69c.424-.467.625-1.067.119-1.56a16.939 16.939 0 0 0-2.513-2.158c-2.096-1.363-4.277-2.576-6.313-4.061-2.442-1.784-4.972-3.48-7.525-5.122-3.437-2.22-6.93-4.351-10.178-6.886-2.73-2.124-6.008-3.481-8.625-5.83a3.967 3.967 0 0 0-1.936-.897l.011-.02Zm40.6-8.594c-.043 1.74.373 3.286.812 4.791.529 1.816.29 3.606-.163 5.276-1.675 6.312-1.951 12.453 1.375 18.37.558.995 1.847 1.74 2.76 1.293a40.724 40.724 0 0 0 3.609-2.105c.581-.366.654-.897.346-1.512a20.24 20.24 0 0 1-2.173-8.121c-.087-1.654.09-3.266.14-4.894a10.89 10.89 0 0 0-1.649-6.358c-1.236-1.949-2.765-3.706-3.827-5.777a1.712 1.712 0 0 0-1.241-.943l.011-.02ZM75.943 172.3a1.27 1.27 0 0 0-.085-.444c-1.058-1.598-2.056-3.266-3.533-4.522-.581-.487-1.311-.2-1.564.473-.617 1.644-1.835 2.929-2.539 4.536a82.269 82.269 0 0 1-3.78 7.655c-1.541 2.723-2.957 5.511-4.702 8.121-2.085 3.127-3.975 6.382-5.918 9.61-.398.661-1.372 1.633-.715 2.094.919.647 1.407-.638 1.852-1.293 2.326-3.394 4.944-6.55 7.441-9.801 1.69-2.196 3.798-3.971 5.482-6.167 2.25-2.938 4.333-6.039 7.15-8.513a2.867 2.867 0 0 0 .91-1.749Zm136.005 40.608c-.393-1.387-.483-1.332-.957-2.109-2.157-3.521-5.737-5.682-8.348-8.774-.873-1.036-1.576-2.19-2.481-3.191-3.3-3.652-6.671-7.251-9.669-11.15a57.695 57.695 0 0 0-5.498-6.091 52.877 52.877 0 0 1-4.993-5.386c-.215-.29-.372-.836-.841-.58-.363.197-.264.707-.174 1.073.337 1.36 1.207 2.436 2.146 3.394 3.074 3.135 6.365 6.053 9.157 9.467a150.728 150.728 0 0 0 8.078 9.099c2.408 2.495 4.362 5.404 7.116 7.603a16.125 16.125 0 0 1 3.489 4.034c.721 1.161 1.684 1.773 2.975 2.611Zm33.851-101.877c-2.94-.221-5.816-.255-8.724.47-3.85.957-7.872.823-11.794 1.357-4.156.566-8.253 1.558-12.449 1.836-2.6.171-5.188.424-7.767.78-.649.09-1.312.079-1.815.708 14.38-.061 28.489-2.407 42.549-5.151Zm-68.507 126.532c.648-.438.543-1.033.415-1.5-.817-3.014-1.645-6.004-3.198-8.78-1.745-3.104-4.173-5.673-6.351-8.412-2.283-2.862-3.647-5.975-4.63-9.374-.165-.58-.168-1.451-1.084-1.16-.791.237-.582.992-.428 1.612.061.235.166.456.218.691 1.187 5.258 4.691 9.107 7.954 13.122 2.585 3.19 5.208 6.343 6.074 10.552.221 1.073.372 2.254 1.03 3.249Zm42.952-136.502c-.39-.496-.89-.29-1.381-.174-2.53.641-5.06 1.297-7.674 1.483-2.172.153-4.362.29-6.432.957-2.367.757-4.923 1.125-6.857 2.9-.66.604-1.745 1.451-1.163 2.193.581.743 1.692-.101 2.419-.62 2.908-2.095 6.325-2.916 9.762-3.339 3.542-.435 6.836-1.648 10.227-2.57a1.455 1.455 0 0 0 1.099-.818v-.012Zm-199.426 25.56a9.129 9.129 0 0 0 3.03.43c4.74.026 9.491-.131 14.216.151 5.694.339 11.367.701 17.035-.119.872-.125 2.41.525 2.437-.543.02-.76-1.716-.658-2.702-.623-4.103.153-8.206.58-12.3.51-6.38-.116-12.76-.264-19.143-.223-.805-.003-1.631-.093-2.573.417Zm200.604 40.458a1.573 1.573 0 0 0-.774-1.053c-.872-.58-1.878-1.039-2.655-1.741a228.653 228.653 0 0 1-6.752-6.352c-3.899-3.803-8.497-6.457-13.58-8.33-.508-.189-1.125-.363-1.361.316-.218.629.373.777.832.945 1.315.479 2.649.914 3.935 1.451 3.739 1.598 6.821 4.153 9.785 6.857 2.454 2.239 4.844 4.548 7.301 6.781a12.132 12.132 0 0 0 2.149 1.465c.436.279.954.342 1.12-.339ZM127.95 17.223c-.331 2.506-.215 35.077.224 36.321.163-1.836.844-3.234.78-4.786-.172-4.087.389-8.174 0-12.266-.204-2.199.139-4.502-.184-6.6-.552-3.575-.186-7.12-.445-10.662-.04-.609.117-1.241-.375-2.007Zm-.122 214.414c-.221 1.894.189 3.46.265 5.05 0 .232.043.531.355.545.311.015.401-.246.421-.49.063-.43.075-.866.038-1.3a22.384 22.384 0 0 1-.241-5.197c.488-5.819.363-11.658.404-17.482.032-4.482-.201-8.969.02-13.453a8.02 8.02 0 0 0-.154-1.45c-.032-.232-.029-.534-.34-.56-.393-.032-.436.31-.486.58a4.362 4.362 0 0 0-.043.722c-.117 11.115.25 22.227-.247 33.035h.008Zm80.258-136.182c-2.719-.29-5.295.438-7.851 1.128-1.724.464-3.426 1.082-4.865 2.204-.582.45-1.23 1.05-.666 1.81.497.67 1.131.122 1.669-.185 3.847-2.196 7.959-3.452 12.417-3.504 1.593-.017 3.199.127 4.757-.386.497-.165 1.405-.07 1.262-.87-.128-.714-.962-.47-1.503-.467-1.765.017-3.487.432-5.237.27h.017Zm1.338 66.002c1.436 1.874 2.57 3.855 4.301 5.462 3.437 3.191 7.208 5.468 11.884 6.149 2.186.353 4.319.972 6.354 1.842.776.316 1.492.853 2.661.769-.582-.841-1.143-1.41-1.893-1.755a21.619 21.619 0 0 0-4.793-1.624c-1.558-.314-3.155-.502-4.673-.955-2.963-.87-5.504-2.561-7.828-4.568-2.024-1.764-4.03-3.547-6.031-5.32h.018Zm-7.401 35.364c-1.07-2.03-2.634-3.66-4.071-5.398-2.666-3.24-5.525-6.323-8.264-9.488-2.036-2.32-3.699-4.954-5.999-7.042-.291-.261-.582-.87-1.038-.444-.387.363.02.809.291 1.14 2.532 3.098 5.033 6.225 7.624 9.282 2.123 2.5 4.362 4.911 6.537 7.362 1.509 1.662 2.818 3.524 4.92 4.588Zm-70.26 28.591c.631-2.19.509-4.475.581-6.691.195-6.364.076-12.737.07-19.104 0-.58.023-1.224-.521-1.717-.782 1.436-.965 25.528-.13 27.512Zm35.418-194.466c-.396.87-.355 1.824-.442 2.764-.291 3.19-.858 6.303-2.233 9.241-1.376 2.939-3.851 5.17-5.371 8.035-1.193 2.245-2.946 4.212-3.35 6.837-.067.44-.34 1.13.241 1.25.521.104.765-.58.739-1.05-.067-1.27.625-2.19 1.27-3.153 1.1-1.64 2.257-3.246 3.254-4.931 1.143-1.947 2.213-3.95 3.406-5.856 2.457-3.93 2.907-8.215 2.849-12.656a.41.41 0 0 0-.36-.481h-.003Zm58.536 108.597c2.346 1.016 20.791 3.603 22.074 3.139-2.187-1.656-20.219-4.299-22.071-3.136l-.003-.003Zm-81.75 100.851a170.736 170.736 0 0 0-2.803-25.789c-.532 8.774 1.108 17.293 2.803 25.789Zm-48.294-26.572c1.186-1.314 1.654-2.901 2.666-4.087a45.697 45.697 0 0 0 7.625-13.018c.398-1.012.939-2.031.837-3.191-.032-.345-.093-.696-.535-.734a.48.48 0 0 0-.515.415c-.453 2.242-1.919 4.084-2.431 6.326-.61 2.68-2.035 4.998-3.884 7.008a26.02 26.02 0 0 0-3.368 4.687c-.41.731-.738 1.538-.395 2.594Zm39.059-9.796h.029v2.611c.02 1.395.032 2.793.093 4.188.014.369.125.87.605.87.479 0 .392-.475.421-.797.114-1.245.154-2.501.332-3.733.41-2.843-.044-5.787 1.003-8.554.145-.383.555-.908.029-1.146-.634-.29-1.297-.78-2.036-.58-.567.151-.476.774-.479 1.247.003 1.947.008 3.922.008 5.894h-.005Zm-56.574-27.982c-2.934 2.135-18.084 19.826-18.575 21.804 1.532-2.384 3.972-3.913 5.679-6.129 2.948-3.826 6.22-7.362 9.53-10.874 1.287-1.363 2.986-2.515 3.366-4.801Zm85.987 22.842a.679.679 0 0 0-.276.772c.523 3.771.718 7.608 1.852 11.263.774 2.492 1.916 4.861 4.071 6.544.265.208.663.635 1.009.261.346-.374-.131-.679-.346-.969-1.861-2.512-3.379-5.183-3.827-8.339-.471-3.249-1.904-6.242-2.48-9.529l-.003-.003Zm51.313-41.066c-.582-1.45-1.059-2.32-1.937-3.075-4.516-3.883-9.485-6.9-15.493-7.872-.41-.066-1.006-.243-1.163.226-.189.534.462.607.805.824 1.195.757 2.635.479 3.914.931 3.347 1.19 6.342 2.994 9.268 4.972 1.593 1.085 2.698 2.721 4.606 3.994ZM170.429 57.75c4.339-5.926 6.316-12.786 9.535-19.04-1.009.87-1.576 2.008-2.207 3.113-1.123 1.964-1.518 4.27-2.908 6.091-1.102 1.424-1.881 3.028-2.678 4.618a5.238 5.238 0 0 1-1.227 1.76c-1.12.911-1.222 1.985-.515 3.45v.008Zm-38.46-7.704c.454-.316.413-.676.428-1 .221-4.665-.274-9.332-.035-13.999.032-.63-.07-1.598-.873-1.578-.622.018-.634.972-.75 1.567a8.68 8.68 0 0 0-.058 1.3c-.154 3.578.637 7.1.66 10.67a7.234 7.234 0 0 0 .628 3.04Zm27.5 9.967a4.223 4.223 0 0 0 1.626-2.138c.939-3.19 2.788-5.903 4.504-8.685.96-1.557 1.983-3.077 2.922-4.64.236-.395.812-1.01.149-1.364-.582-.307-.721.453-.937.844a35.438 35.438 0 0 1-3.835 5.775c-2.481 2.953-3.629 6.489-4.429 10.208Zm-94.757 96.856c-1.058 0-1.052 0-2.035.472-3.702 1.767-7.56 2.901-11.71 2.802a20.839 20.839 0 0 0-4.045.29c-2.05.349-5.365 2.057-6.078 3.191.197-.02.391-.056.582-.107.277-.085.543-.204.79-.354 2.65-1.79 5.674-2.242 8.724-2.123 3.836.148 7.331-1.085 10.827-2.298a7.093 7.093 0 0 0 2.945-1.873Zm1.91 37.745c1.894-.682 14.436-14.19 14.886-16.003-1.57 0-2.274 1.19-3.01 2.19-2.326 3.191-5.181 5.926-7.56 9.065-1.276 1.673-3.164 2.816-4.315 4.748ZM94.403 33.73c-.474-.6-.992-1.16-1.42-1.8-2.663-3.934-5.05-7.983-5.414-12.885-.032-.415-.122-.992-.668-.955-.48.035-.379.58-.41.958-.021.24-.021.482 0 .722.558 5.83 3.594 10.294 7.912 13.96ZM78.162 75.32a2.654 2.654 0 0 0-.835-1.123 86.064 86.064 0 0 1-9.192-8.623c-.384-.41-.925-1.27-1.454-.737-.471.467.259 1.14.721 1.526 3.199 2.674 5.816 5.917 8.802 8.809.346.336.66.73 1.187.783.421.047.78-.05.77-.635Zm94.797-15.188c3.76-4.597 5.816-10.102 8.363-15.35-3.184 4.905-6.278 9.857-8.363 15.35ZM46.715 93.468l-.32.792c4.406 3.86 9.422 5.963 15.61 4.704-5.374-1.052-11.065-1.227-15.29-5.496Zm-2.221 71.841c1.599-.356 2.809-1.16 4.158-1.09 4.266.22 8.372-.482 12.402-1.833 1.797-.604 3.353-1.564 5.002-2.797-1.134.09-1.102.157-2.164.665-3.198 1.528-6.452 2.773-10.093 2.819-2.615.071-5.21.475-7.723 1.201-.642.128-1.209.5-1.582 1.035ZM95.562 34.96c-.439.644-.189.99.03 1.285 3.076 4.174 3.753 8.972 3.695 13.972a6.253 6.253 0 0 0 .707 3.24c.163-.87.837-1.656.497-2.509-.96-2.401-.645-4.948-.91-7.42-.355-3.33-2.03-5.905-4.019-8.568Zm74.442 167.97c-.799-2.704-1.602-5.627-2.96-8.351-.375-.754-.605-2.161-1.622-1.798-.582.209.113 1.552.404 2.343.986 2.695 2.759 5.114 2.759 8.151 0 .481.181 1.236.812 1.192.718-.049.427-.821.607-1.537Zm22.348-22.77c-1.137-1.726-1.984-3.614-3.423-5.102-1.346-1.392-2.036-3.298-3.507-4.58-.407-.354-.968-.708-1.434-.29-.581.54.076.943.384 1.311 1.981 2.37 3.961 4.737 5.988 7.066.543.626 1.055 1.343 1.992 1.595Zm-7.16-96.209c.829-.191.913-.661 1.111-1.027 1.099-2.03 2.199-4.032 3.937-5.656a10.969 10.969 0 0 0 3.33-6.01c-2.957 4.029-6.662 7.559-8.378 12.693Zm3.781-17.563c-1.812 3.069-4.537 5.108-6.491 7.814-.605.838-1.422 1.45-2.035 2.26-.277.371-.434.82-.067 1.189.448.45.779.02 1.096-.27.108-.096.189-.22.291-.325 2.684-2.787 4.516-6.221 6.979-9.18.227-.287.576-.667.215-1.488h.012ZM67.225 162.481a71.795 71.795 0 0 1-15.514 4.255c3.31 1.001 13.653-1.804 15.514-4.255Zm95.577-101.564c-.035.369-.163.705.174.853.337.148.55-.148.672-.394.28-.506.501-1.042.657-1.598.433-1.955 1.314-3.704 2.326-5.401.844-1.404 1.69-2.805 2.527-4.212.119-.203.291-.464.029-.647-.261-.182-.43 0-.596.209a28.929 28.929 0 0 0-4.536 7.455c-.524 1.232-.858 2.55-1.253 3.735Zm23.35 15.443c.547-.023.704-.325.901-.58.89-1.143 1.8-2.268 2.673-3.423a304.607 304.607 0 0 0 3.78-5.122c.268-.371.782-.905.343-1.265-.581-.472-.948.29-1.224.633-1.672 2.12-3.341 4.249-4.888 6.46-.66.962-1.03 2.128-1.585 3.303v-.006Zm28.221 60.553-.046-.256c-.765-.098-1.527-.214-2.295-.29-3.78-.383-7.621-.316-11.405-.844-1.017-.142-2.14.244-2.971-.748-.268-.319-.498 0-.599.31-.274.807.247 1.384 1.11 1.361 1.745-.05 3.571-.29 5.267.02 2.835.542 5.679.125 8.499.438.813.048 1.627.05 2.44.009Zm14.103-15.762c5.909.429 11.458-.458 17.029-.699-.872-.685-15.906-.102-17.032.696l.003.003Zm-126.019-77.71c-.291 4.198 1.163 13.358 2.326 14.32-.503-4.922-.927-9.69-2.326-14.32Zm105.17 56.156c-.291-.456-.66-.325-.969-.348-4.437-.331-8.142 1.111-11.018 4.551-.232.29-.735.58-.363.937.372.356.707-.148.925-.407 2.035-2.416 4.853-3.329 7.761-4.153 1.195-.34 2.445-.203 3.664-.58ZM42.083 130.778c1.335.061 2.347.467 3.431.267a17.057 17.057 0 0 1 5.188-.029c1.533.205 3.087.187 4.615-.052.29-.05.797-.041.79-.47 0-.528-.526-.459-.889-.491a10.744 10.744 0 0 0-1.163 0c-3.366.093-6.73.19-10.093.291a3.345 3.345 0 0 0-1.879.484Zm9.814-29.586a.644.644 0 0 0 .393.69c1.814.905 3.675 1.706 5.708 1.958.672.061 1.35.046 2.018-.046.503-.052.965-.316.986-.888.02-.658-.535-.745-1.018-.757-.77-.05-1.543-.02-2.306.09-1.582.305-3.05.241-4.426-.719-.357-.25-.788-.592-1.355-.328Zm57.1-63.77c-.602.656-.407 1.161-.41 1.599 0 2.996 1.09 5.868.994 8.887-.026.87.471 1.43 1.233 2.118-.602-4.177-.802-8.337-1.817-12.603Zm98.502 95.024c-2.617-.459-5.08-1.085-7.645-.58a1.502 1.502 0 0 1-1.21-.348c-.331-.241-.706-.395-1.026 0a1.34 1.34 0 0 0-.253 1.36c.215.58.622.177.971.136a21.253 21.253 0 0 1 2.155-.151c2.309-.04 4.623.154 7.008-.417ZM40.669 173.17a49.818 49.818 0 0 0-12.622 7.541c4.37-2.236 8.389-5.067 12.623-7.541Zm55.294 33c-2.907 1.398-4.704 5.891-3.742 9.038.413-3.214 2.376-5.781 3.742-9.038Zm109.835-66.357a1.784 1.784 0 0 0-.655-.185c-2.297.29-4.612.119-6.912.249a2.51 2.51 0 0 0-1.34.487c-.244.177-.428.404-.291.731a.547.547 0 0 0 .605.29c2.899-.266 5.787-.574 8.593-1.572ZM146.253 25.319c-1.044 4.855-2.21 9.696-2.05 14.72.27-4.963 2.358-9.67 2.05-14.72ZM102.131 191.65c-.581.275-.541.71-.506 1.067.169 1.708-.355 3.225-1.163 4.693-.512.931-.933 1.909-1.381 2.875-.291.6-.524 1.212 0 2.192 1.852-3.547 3.731-6.761 3.05-10.827Zm123.839-58.708c-4.839-.508-9.666-.833-14.508-.369 4.836.418 9.672.76 14.511.372l-.003-.003ZM68.213 72.23a.538.538 0 0 0 .204.6c1.23.92 1.96 2.207 2.701 3.504a9.385 9.385 0 0 0 2.199 2.463c.334.29.785.542 1.163.206.486-.415 0-.755-.23-1.091-1.547-2.164-3.928-3.524-5.499-5.668a.37.37 0 0 0-.538-.014Zm38.039 130.294.29.235c.218-.077.426-.179.62-.305 2.271-1.885 2.184-4.794 3.126-7.251a.52.52 0 0 0-.233-.453c-.378-.104-.5.25-.581.496-.37 1.187-.643 2.39-1.303 3.481-.727 1.207-1.285 2.518-1.919 3.788v.009ZM63.904 61.874c-2.931-3.956-6.523-7.277-10.123-10.586 3.202 3.695 6.724 7.083 10.123 10.587Zm128.293 71.784c-1.631 2.669-2.143 6.257-1.244 8.798.706-3.069 1.215-5.9 1.244-8.798ZM66.358 76.25c1.015 1.993 1.84 4.003 3.92 5.076.244.125.54.386.791.168.355-.307.05-.644-.148-.87a247.845 247.845 0 0 0-3.664-4.272c-.157-.198-.393-.296-.899-.102Zm-5.973 19.46c.483 0 .972.032 1.454 0 .39-.035 1.038.099.983-.499-.043-.464-.637-.322-.991-.255-3.26.623-6.197-.427-9.093-1.715-.291-.127-.649-.49-.855-.043-.178.38.27.545.56.71 2.467 1.378 5.194 1.651 7.942 1.799v.003Zm4.243-27.518c-1.163-2.462-3.05-4.258-5.26-5.772a13.377 13.377 0 0 0 5.26 5.772Zm153.677 29.453.168.414c3.013-.455 5.671-1.876 8.346-3.237a.342.342 0 0 0 .163-.49c-.218-.29-.509-.165-.774-.04-1.218.58-2.396 1.215-3.678 1.659-1.434.496-2.821 1.122-4.225 1.694ZM58.115 199.438l-.408-.357c-2.01 2.689-4.824 4.673-6.607 7.562l.524.458 6.49-7.663Z" fill="#646464"/><path d="M114.17 222.208c-.671 3.446-.668 7.115-1.413 10.732-.971 4.714-1.605 9.494-2.411 14.239a19.71 19.71 0 0 1-.581 2.228c-.186.641-.494 1.215-1.297 1.07-.756-.136-1.143-.69-1.233-1.427a2.086 2.086 0 0 1 .087-.856c.812-2.538.724-5.221 1.373-7.796a2.862 2.862 0 0 0-.119-1.982 1.206 1.206 0 0 1-.073-.98c1.308-3.524 1.992-7.182 2.454-10.897.201-1.622.541-3.223.617-4.871.046-.986.628-2.192 1.593-2.111 1.431.116.756 1.584 1.003 2.651ZM33.831 95.146c1.35 1.064 3.106 1.009 4.615 1.641.62.258 1.125.554 1.373 1.184.183.467.235.957-.1 1.377-.334.421-.796.215-1.206.108-4.71-1.247-9.494-2.242-14.028-4.096a.723.723 0 0 0-.273-.093c-3.903.192-7.014-2.32-10.64-3.089a5.025 5.025 0 0 1-2.847-1.638c-.692-.81-.398-1.587.651-1.758 1.213-.197 2.303.29 3.365.725a66.049 66.049 0 0 0 11.18 3.48c1.174.291 2.32.68 3.43 1.16a11.83 11.83 0 0 0 4.498 1.001l-.018-.002ZM32.45 45.85c1.256-.02 2.035.43 2.585 1.103 2.158 2.7 5.153 4.47 7.56 6.877 1.498 1.497 2.908 3.09 4.316 4.661.363.404.648.911.21 1.428-.498.58-1.071.336-1.554-.024-4.943-3.684-9.8-7.457-13.667-12.339-.29-.371-.75-.705-.45-1.253a.996.996 0 0 1 1-.452ZM235.252 106.789c-1.212-.032-2.419-.041-3.6.319-.718.218-1.381.195-1.64-.67-.259-.864.163-1.395.89-1.758.214-.114.45-.183.692-.2 3.309-.084 6.444-1.279 9.727-1.52 1.085-.078 2.036-.58 3.004-1.035a3.578 3.578 0 0 1 2.114-.328c.872.136 1.576.54 1.689 1.517.105.911-.447 1.401-1.203 1.775-1.267.61-2.637.977-4.04 1.082-2.544.229-5.042.931-7.633.818ZM80.104 222.823c-.072 1.299-.872 2.349-1.643 3.388-2.204 2.926-3.71 6.262-5.525 9.412-.439.763-.849 1.511-1.584 2.03-.736.52-1.437.694-2.112.044-.674-.65-.947-1.372-.377-2.204 1.326-1.941 2.826-3.771 3.972-5.819 1.183-2.109 2.954-3.771 4.094-5.894a7.223 7.223 0 0 1 1.477-1.772c.314-.29.628-.665 1.125-.479.556.206.538.728.573 1.294ZM234.612 164.744c1.783-.029 3.077 1.323 4.749 1.668 1.262.261 2.454.87 3.681 1.305a4.652 4.652 0 0 1 1.591.984c.55.507.782 1.145.483 1.833-.338.771-1.053.974-1.823.838a7.278 7.278 0 0 1-1.658-.508c-2.469-1.093-4.923-2.221-7.383-3.335-.087-.041-.177-.076-.262-.122-.736-.406-1.57-.853-1.326-1.827.244-.975 1.178-.821 1.948-.836ZM29.722 48.537c.73.148 1.486.223 1.931.893 1.797 2.7 4.545 4.409 6.851 6.578.21.198.465.349.663.557.526.563.648 1.222.16 1.83-.488.61-1.163.58-1.823.186-1.3-.777-2.236-1.972-3.402-2.9-1.611-1.3-3.17-2.666-4.74-4.015a2.376 2.376 0 0 1-.913-1.894c.029-.783.444-1.264 1.273-1.235ZM218.506 209.451c-.469-2.54-2.49-3.802-4.336-5.186-.872-.658-1.422-1.45-1.454-2.541-.017-.934.387-1.389 1.364-.989.321.111.626.267.904.461a37.402 37.402 0 0 1 6.107 5.889 1.947 1.947 0 0 1-.058 2.442c-.538.702-1.207.351-1.841.069a3.782 3.782 0 0 0-.704-.162l.018.017ZM20.47 67.3c.243.055.796 0 1.06.264 1.704 1.638 4.002 2.294 5.889 3.614.78.545 1.925 1.14 1.285 2.23-.608 1.036-1.846.432-2.617.055-2.376-1.16-4.429-2.9-6.801-4.101a1.075 1.075 0 0 1-.611-1.337c.276-.725.98-.685 1.794-.725ZM41.412 59.61c2.035.905 4.123 2.109 5.496 4.267a.999.999 0 0 1-.178 1.32c-.439.43-.872.229-1.29-.084-1.6-1.219-3.03-2.651-4.793-3.667a1.13 1.13 0 0 1-.582-1.36c.18-.508.614-.56 1.347-.476ZM8.018 114.559c-.809-.218-1.98-.195-2.036-1.358-.038-.852.776-1.27 1.66-1.23.884.041 1.882.189 1.925 1.294.032.812-.686 1.198-1.55 1.294Z" fill="#646464"/><path fill-rule="evenodd" clip-rule="evenodd" d="M174.608 113.221c2.265-.731 2.591-1.166 2.617-3.521.07-1.52-.622-2.547-1.777-3.571-1.316-1.188-2.831-1.998-4.346-2.808-.774-.415-1.549-.829-2.295-1.293a14.24 14.24 0 0 0-7.517-2.22c-.386-.002-.773-.009-1.16-.015-2.849-.046-5.704-.093-8.407 1.136-.522.237-1.068.425-1.613.614l-.286.099a.696.696 0 0 1-.794-.203.419.419 0 0 1-.092-.158.418.418 0 0 1 .04-.355.421.421 0 0 1 .125-.134c.587-.418 1.128-.918 1.67-1.418 1.463-1.35 2.927-2.703 5.309-2.451 1.677.177 3.213-.006 4.425-1.529.876-1.1 2.208-.615 2.469.772.212 1.122 1.033 1.549 1.905 1.177.925-.394 1.64-.56 2.512.02.356.162.76.184 1.131.062 1.26-.346 2.365-.099 3.47.56a6.988 6.988 0 0 0 1.91.667c.047.01.094.023.141.034.658.165 1.388.348 1.784-.464a2.002 2.002 0 0 0-.346-2.291c-3.207-3.832-7.441-6.077-12.071-7.623-1.535-.513-3.184-.963-4.838-.824-4.984.418-9.777 1.364-13.958 4.51-3.714 2.791-6.779 5.93-8.366 10.402a42.958 42.958 0 0 0-2.361 13.189c-.132 4.272.191 8.53.514 12.785l.105 1.387c.148 1.996.358 4.035 3.074 4.575 1.177.22 1.922 1.389 1.805 2.831-.097 1.206-.968 1.252-1.761 1.295a8.326 8.326 0 0 0-5.442 2.397c-1.163 1.111-2.535 1.482-4.254.772-1.322-.553-2.492-1.348-3.658-2.14-1.228-.834-2.452-1.666-3.847-2.211-1.166-.456-1.291-1.329-.785-2.364.4-.724.588-1.545.544-2.37a1.652 1.652 0 0 0-1.286-1.566c-.718-.212-1.18.171-1.59.716a12.788 12.788 0 0 0-1.896 4.035c-.602 1.955-.201 3.44 1.416 4.733.61.491 1.214.986 1.819 1.482 1.564 1.283 3.127 2.564 4.767 3.74 1.527 1.093 2.373 2.329 2.109 4.237-.023.388.042.775.189 1.134.401 1.19 1.285 1.425 2.236.624.753-.632 1.032-1.459 1.108-2.425a1.265 1.265 0 0 1 1.366-1.227c.811-.003.843.633.872 1.208l.001.019c.031.484.167.955.398 1.381.041.081.081.165.122.249.279.586.569 1.194 1.39 1.021.878-.191 1.381-.853 1.538-1.74.023-.13.029-.262.036-.394.005-.11.011-.22.026-.328.197-1.451.703-2.524 2.431-2.747 1.567-.203 3.024-.92 3.809-2.37.631-1.172 1.602-1.7 2.748-2.184 2.012-.85 3.606-2.193 3.841-4.513.23-2.274-.642-4.061-2.53-5.511a8.849 8.849 0 0 1-2.908-4.061c-.533-1.425-.395-2.812-.258-4.197.07-.704.14-1.408.122-2.115-.105-4.023.872-7.727 3.257-11.022.814-1.123 1.643-1.349 2.849-.659.98.558 1.646 1.404 2.312 2.251l.239.302c2.785 3.513 7.798 4.667 11.631 1.874.305-.24.641-.435 1-.58 1.934-.679 2.897-2.08 3.219-4.061.39-2.39.428-2.384 2.591-1.372 2.199 1.032 2.408 1.688 1.164 3.742-.314.519-.573 1.064-.187 1.618.442.63 1.108.502 1.722.313.475-.147.946-.312 1.415-.476.444-.156.888-.311 1.336-.452Zm-18.6-4.402c1.19 0 2.154-.779 2.154-1.74 0-.962-.964-1.741-2.154-1.741s-2.154.779-2.154 1.741c0 .961.964 1.74 2.154 1.74ZM103.102 98.786c.722.486 1.449.976 2.278 1.323-.836-.328-1.69-.329-2.539-.33-.641 0-1.28 0-1.905-.143a9.576 9.576 0 0 0-4.609.2c-1.178.318-2.379.465-3.58.613-.942.115-1.884.231-2.817.429-2.667.562-5.115 1.453-7.27 3.063-3.178 2.378-3.19 4.127-.148 6.671l.009.007c.07.059.142.12.218.173 1.3.931 2.03.705 2.26-.896.229-1.601 1.32-2.298 2.683-2.689 1.129-.325 1.658.154 1.515 1.337-.07.699-.119 1.424.291 1.964 1.5 1.969 3.109 3.857 5.697 4.438.479.106 1.002.146 1.52.187.97.075 1.925.149 2.55.648 1.661 1.317 3.252 1.131 5.028.87.43-.093.879-.049 1.283.125 1.881 1.108 3.603.528 5.391-.273.882-.4 1.713-.87 2.544-1.341.427-.241.854-.483 1.289-.715 2.12-1.132 2.733-3.266 1.247-5.169-.505-.642-.958-1.33-1.41-2.018-1.108-1.686-2.217-3.373-4.115-4.378-.279-.148-.642-.394-.352-.792.213-.29.535-.139.794 0 .274.144.549.286.824.427 1.744.893 3.482 1.783 4.672 3.469.12.171.238.351.358.533.48.731.979 1.49 1.678 1.848 1.227.638 1.474 1.479 1.454 2.669-.015.954.532 1.624 1.471 1.653.939.029 1.195-.74 1.431-1.54.395-1.349.208-2.674.02-3.998-.141-1.002-.283-2.003-.172-3.013.032-.281-.221-.644-.43-.893-.642-.763-1.125-1.623-1.607-2.483-.226-.402-.451-.803-.693-1.195-.226-.367-.409-.758-.593-1.149-.33-.702-.66-1.405-1.233-1.964l-.309-.3c-1.858-1.81-3.691-3.596-6.123-4.77a34.547 34.547 0 0 0-12.926-3.48c-5.644-.36-10.707 1.577-15.668 4.028-.978.483-1.8 1.163-2.618 1.841-.913.757-1.822 1.511-2.942 1.982-.48.202-.75.7-1.012 1.184-.074.136-.147.27-.224.397a.941.941 0 0 0 .085 1.204c.334.389.732.676 1.265.493.403-.163.797-.347 1.18-.551.592-.275 1.176-.569 1.76-.863 1.491-.749 2.982-1.498 4.603-1.942l.206-.056c1.085-.294 2.123-.575 3.097-1.29.936-.687 2.434-.748 3.306-.052 1.077.877 2.161.874 3.316.87H98.613c.46.005.958.009.989.682.043.974.709 1.4 1.497 1.76.709.324 1.354.758 2.003 1.195Zm3.976 10.556c.442-1.735 1.099-2.202 3.015-2.202 1.015-.006 1.8.978 1.193 1.709-.259.313-.514.633-.768.954-1.134 1.427-2.275 2.864-3.899 3.811-.338.203-.858.485-1.21.134-.369-.368-.118-.687.118-.984.07-.089.14-.177.19-.264.6-.983 1.058-2.047 1.361-3.158Zm-10.369-1.002c1.208 0 2.188-.791 2.188-1.767 0-.976-.98-1.768-2.188-1.768-1.208 0-2.187.792-2.187 1.768s.98 1.767 2.187 1.767Z" fill="#646464"/><path d="M135.698 172.301a4.797 4.797 0 0 1-1.911-.322c-1.707-.658-3.358-1.479-5.254-1.56a3.77 3.77 0 0 1-1.745-.638 25.043 25.043 0 0 0-10.783-3.922c-1.994-.232-3.855-.934-5.347-2.378a3.506 3.506 0 0 0-2.591-1.085c-1.248 0-1.864-.786-1.794-1.978a12.743 12.743 0 0 1 1.163-4.76c.599-1.262 1.904-1.39 2.791-.313.026.04.055.078.085.116.747.73.413 2.277 1.701 2.526 1.59.305 3.172-.133 4.734-.435 1.561-.302 2.908-1.05 4.251-1.822 1.126-.649 2.408-.951 3.461-1.778a2.623 2.623 0 0 1 2.093-.371c1.92.365 3.746.772 5.816.264 3.068-.757 5.746.632 8.186 2.463 1.48 1.108 3.088 1.928 4.996 2.108 1.814.171 3.027-.554 3.969-2.059 1.064-1.7 1.562-1.677 2.867-.076.183.224.381.438.556.67 1.785 2.402.872 4.966-2.056 5.32a8.37 8.37 0 0 0-4.339 1.714c-1.37 1.068-3.283.81-4.702 1.825-.98.699-2.036 1.279-3.018 1.984-.852.618-.62 1.676-.803 2.541-.308 1.343-.945 2.106-2.326 1.966Zm3.376-9.018a2.633 2.633 0 0 0-2.071-.177c-3.114.83-6.22.581-9.334.05-1.375-.229-2.748-.493-4.129-.679-.451-.061-1.146-.142-1.256.421-.128.652.599.615 1.029.742.788.232 1.53.563 2.288.87 2.708 1.079 5.444 2.002 8.372.551a10.762 10.762 0 0 1 3.333-.954c.59-.081 1.268-.11 1.768-.818v-.006ZM128.916 173.128c3.286.185 5.97.383 8.494 1.505a6.04 6.04 0 0 1 2.129 1.451c1.343 1.505 1.227 2.886-.355 4.266-.872.772-2.495.351-3.533-.954a3.028 3.028 0 0 1-.64-1.122c-.404-1.805-1.716-2.321-3.327-2.449a12.21 12.21 0 0 0-5.833.772 9.863 9.863 0 0 1-2.088.58c-.66.113-1.427.2-1.712-.65a1.445 1.445 0 0 1 .369-1.616 1.45 1.45 0 0 1 .503-.298c.955-.46 1.959-.81 2.992-1.044 1.163-.229 2.359-.522 3.001-.441ZM188.435 127.739c-.337 1.967-.075 3.771 0 5.511.178 3.725-1.564 7.043-1.718 10.651-.032.725-.349 1.59-1.228 1.535-.878-.056-.95-1.019-.962-1.706a5.872 5.872 0 0 1 .326-2.28c.895-2.213 1.163-4.577 1.765-6.854.5-1.856-.358-3.724-.143-5.61.099-.87 0-1.74.041-2.61.02-.499.172-1.033.741-1.105.57-.073.797.472.914.939.145.572.203 1.149.264 1.529ZM182.442 135.728c-.669-4.699.52-9.317.611-13.981 0-.464 0-1.16.508-1.238.637-.102.547.641.698 1.056.655 1.783.221 3.625.335 5.432.163 2.611.07 5.221.177 7.809.058 1.383-.355 2.668-.637 3.985-.104.493-.317.978-.93.914-.614-.064-.736-.58-.753-1.079-.032-.966-.009-1.932-.009-2.898ZM183.593 142.857a5.298 5.298 0 0 1-.517 2.854c-1 2.236-1.937 4.505-2.87 6.773a4.031 4.031 0 0 1-.969 1.415c-.459.438-.959.963-1.628.525-.669-.437-.526-1.206-.23-1.705 2.074-3.504 3.199-7.399 4.673-11.141.16-.403.402-.83.948-.705.547.125.561.606.582 1.038.032.386.011.772.011.946ZM179.825 141.238a15.735 15.735 0 0 1-2.204 7.748c-.48.798-1.163 1.201-2.071.742-.965-.487-.7-1.279-.317-1.984 1.027-1.888 1.481-3.965 2.065-5.998.067-.232.128-.464.192-.696.206-.766.646-1.401 1.483-1.317 1.029.102.797 1.021.852 1.505ZM152.784 181.003a5.668 5.668 0 0 0-1.838.313c-.822.276-1.453-.142-1.77-.841-.317-.699.151-1.198.703-1.554 1.6-1.03 3.464-1.352 5.234-1.883.512-.154.94.136 1.164.635.25.56-.047.9-.501 1.181-1.055.653-2.218 1.16-3.018 2.164l.026-.015ZM165.727 167.056c-.503 0-.872-.058-1.102-.44-.253-.435-.107-.847.16-1.21a13.246 13.246 0 0 1 2.44-2.642 13.037 13.037 0 0 0 1.64-1.607.983.983 0 0 1 .682-.381.988.988 0 0 1 .743.241c.424.328.645.85.328 1.274-1.264 1.685-2.561 3.353-4.297 4.6a1.597 1.597 0 0 1-.594.165Z" fill="#646464"/></svg>